{
  "accessors": [
    {
      "bufferView": 2,
      "componentType": 5126,
      "count": 429,
      "max": [
        109.81920623779297,
        98.418136596679688,
        106.94596862792969
      ],
      "min": [
        -118.01666259765625,
        -125.15263366699219,
        -5.5953669548034668
      ],
      "type": "VEC3"
    },
    {
      "bufferView": 2,
      "byteOffset": 5148,
      "componentType": 5126,
      "count": 429,
      "max": [
        0.91157311201095581,
        0.92077064514160156,
        0.99585390090942383
      ],
      "min": [
        -0.89255201816558838,
        -0.94867509603500366,
        0.2204359769821167
      ],
      "type": "VEC3"
    },
    {
      "bufferView": 3,
      "componentType": 5126,
      "count": 429,
      "max": [
        0.99796664714813232,
        0.99087399244308472,
        0.79236036539077759,
        1
      ],
      "min": [
        -0.98832398653030396,
        -0.9991300106048584,
        -0.89386469125747681,
        1
      ],
      "type": "VEC4"
    },
    {
      "bufferView": 1,
      "componentType": 5126,
      "count": 429,
      "max": [
        0.91479802131652832,
        0.97053402662277222
      ],
      "min": [
        0,
        0.012470000423491001
      ],
      "type": "VEC2"
    },
    {
      "bufferView": 0,
      "componentType": 5125,
      "count": 1572,
      "max": [
        428
      ],
      "min": [
        0
      ],
      "type": "SCALAR"
    }
  ],
  "asset": {
    "extras": {
      "author": "zvanstone (https://sketchfab.com/zvanstone)",
      "license": "CC-BY-4.0 (http://creativecommons.org/licenses/by/4.0/)",
      "source": "https://sketchfab.com/models/0773992894ef4747b94f03e6eb69d620",
      "title": "Fern"
    },
    "generator": "Sketchfab-3.19.5",
    "version": "2.0"
  },
  "bufferViews": [
    {
      "buffer": 0,
      "byteLength": 6288,
      "byteOffset": 0,
      "name": "floatBufferViews",
      "target": 34963
    },
    {
      "buffer": 0,
      "byteLength": 3432,
      "byteOffset": 6288,
      "byteStride": 8,
      "name": "floatBufferViews",
      "target": 34962
    },
    {
      "buffer": 0,
      "byteLength": 10296,
      "byteOffset": 9720,
      "byteStride": 12,
      "name": "floatBufferViews",
      "target": 34962
    },
    {
      "buffer": 0,
      "byteLength": 6864,
      "byteOffset": 20016,
      "byteStride": 16,
      "name": "floatBufferViews",
      "target": 34962
    }
  ],
  "buffers": [
    {
      "byteLength": 26880,
      "uri": "paprat.bin"
    }
  ],
  "images": [
    {
      "uri": "lambert2SG_baseColor.png"
    },
    {
      "uri": "lambert2SG_metallicRoughness.png"
    },
    {
      "uri": "lambert2SG_normal.png"
    }
  ],
  "materials": [
    {
      "alphaCutoff": 0.013910061,
      "alphaMode": "MASK",
      "doubleSided": true,
      "name": "lambert2SG",
      "normalTexture": {
        "index": 2,
        "scale": 1,
        "texCoord": 0
      },
      "pbrMetallicRoughness": {
        "baseColorFactor": [
          1,
          1,
          1,
          1
        ],
        "baseColorTexture": {
          "index": 0,
          "texCoord": 0
        },
        "metallicFactor": 0,
        "metallicRoughnessTexture": {
          "index": 1,
          "texCoord": 0
        },
        "roughnessFactor": 1
      }
    }
  ],
  "meshes": [
    {
      "primitives": [
        {
          "attributes": {
            "NORMAL": 1,
            "POSITION": 0,
            "TANGENT": 2,
            "TEXCOORD_0": 3
          },
          "indices": 4,
          "material": 0,
          "mode": 4
        }
      ]
    }
  ],
  "nodes": [
    {
      "children": [
        1
      ],
      "name": "RootNode (gltf orientation matrix)",
      "rotation": [
        -0.70710678118654746,
        -0,
        -0,
        0.70710678118654757
      ]
    },
    {
      "children": [
        2
      ],
      "name": "RootNode (model correction matrix)"
    },
    {
      "children": [
        3
      ],
      "name": "fern.obj.cleaner.materialmerger.gles"
    },
    {
      "mesh": 0,
      "name": ""
    }
  ],
  "samplers": [
    {
      "magFilter": 9729,
      "minFilter": 9987,
      "wrapS": 10497,
      "wrapT": 10497
    }
  ],
  "scene": 0,
  "scenes": [
    {
      "name": "OSG_Scene",
      "nodes": [
        0
      ]
    }
  ],
  "textures": [
    {
      "sampler": 0,
      "source": 0
    },
    {
      "sampler": 0,
      "source": 1
    },
    {
      "sampler": 0,
      "source": 2
    }
  ]
}

