{
  "accessors": [
    {
      "bufferView": 2,
      "componentType": 5126,
      "count": 9702,
      "max": [
        33.941135406494141,
        55.909088134765625,
        13.066140174865723
      ],
      "min": [
        -34.555282592773438,
        -53.359043121337891,
        -13.149996757507324
      ],
      "type": "VEC3"
    },
    {
      "bufferView": 2,
      "byteOffset": 116424,
      "componentType": 5126,
      "count": 9702,
      "max": [
        0.99966073036193848,
        0.99995547533035278,
        0.99999630451202393
      ],
      "min": [
        -0.99981653690338135,
        -0.9999956488609314,
        -1
      ],
      "type": "VEC3"
    },
    {
      "bufferView": 3,
      "componentType": 5126,
      "count": 9702,
      "max": [
        0.99999648332595825,
        0.99970388412475586,
        0.99995696544647217,
        1
      ],
      "min": [
        -0.9999963641166687,
        -0.99895370006561279,
        -0.99993067979812622,
        -1
      ],
      "type": "VEC4"
    },
    {
      "bufferView": 1,
      "componentType": 5126,
      "count": 9702,
      "max": [
        0.97999995946884155,
        0.97359007596969604
      ],
      "min": [
        0.019999999552965164,
        0.019999999552965164
      ],
      "type": "VEC2"
    },
    {
      "bufferView": 1,
      "byteOffset": 77616,
      "componentType": 5126,
      "count": 9702,
      "max": [
        0.97999995946884155,
        0.97359007596969604
      ],
      "min": [
        0.019999999552965164,
        0.019999999552965164
      ],
      "type": "VEC2"
    },
    {
      "bufferView": 0,
      "componentType": 5125,
      "count": 53760,
      "max": [
        9701
      ],
      "min": [
        0
      ],
      "type": "SCALAR"
    }
  ],
  "asset": {
    "extras": {
      "author": "Peter Linejung (https://sketchfab.com/linejung)",
      "license": "CC-BY-4.0 (http://creativecommons.org/licenses/by/4.0/)",
      "source": "https://sketchfab.com/3d-models/human-kidney-lowpoly-example-9k-2417146cf20a49b5960c79d554d20650",
      "title": "Human kidney (Lowpoly example 9k)"
    },
    "generator": "Sketchfab-8.47.0",
    "version": "2.0"
  },
  "bufferViews": [
    {
      "buffer": 0,
      "byteLength": 215040,
      "byteOffset": 0,
      "name": "floatBufferViews",
      "target": 34963
    },
    {
      "buffer": 0,
      "byteLength": 155232,
      "byteOffset": 215040,
      "byteStride": 8,
      "name": "floatBufferViews",
      "target": 34962
    },
    {
      "buffer": 0,
      "byteLength": 232848,
      "byteOffset": 370272,
      "byteStride": 12,
      "name": "floatBufferViews",
      "target": 34962
    },
    {
      "buffer": 0,
      "byteLength": 155232,
      "byteOffset": 603120,
      "byteStride": 16,
      "name": "floatBufferViews",
      "target": 34962
    }
  ],
  "buffers": [
    {
      "byteLength": 758352,
      "uri": "bubreg.bin"
    }
  ],
  "images": [
    {
      "uri": "Njure_grundmaterial_baseColor.png"
    },
    {
      "uri": "Njure_grundmaterial_normal.png"
    }
  ],
  "materials": [
    {
      "doubleSided": true,
      "name": "Njure_grundmaterial",
      "normalTexture": {
        "index": 1,
        "scale": 1,
        "texCoord": 0
      },
      "pbrMetallicRoughness": {
        "baseColorFactor": [
          1,
          1,
          1,
          1
        ],
        "baseColorTexture": {
          "index": 0,
          "texCoord": 0
        },
        "metallicFactor": 0,
        "roughnessFactor": 0.59999999999999998
      }
    }
  ],
  "meshes": [
    {
      "name": "Njure_Njure grundmaterial_0",
      "primitives": [
        {
          "attributes": {
            "NORMAL": 1,
            "POSITION": 0,
            "TANGENT": 2,
            "TEXCOORD_0": 3,
            "TEXCOORD_1": 4
          },
          "indices": 5,
          "material": 0,
          "mode": 4
        }
      ]
    }
  ],
  "nodes": [
    {
      "children": [
        1
      ],
      "name": "RootNode (gltf orientation matrix)",
      "rotation": [
        -0.70710678118654746,
        -0,
        -0,
        0.70710678118654757
      ]
    },
    {
      "children": [
        2
      ],
      "matrix": [
        0.001519756275229156,
        0,
        0,
        0,
        0,
        0.001519756275229156,
        0,
        0,
        0,
        0,
        0.001519756275229156,
        0,
        0,
        0,
        0,
        1
      ],
      "name": "RootNode (model correction matrix)"
    },
    {
      "children": [
        3
      ],
      "matrix": [
        1,
        0,
        0,
        0,
        0,
        0,
        1,
        0,
        0,
        -1,
        0,
        0,
        0,
        0,
        0,
        1
      ],
      "name": "Njure_Lowres_9k.fbx"
    },
    {
      "children": [
        4
      ],
      "name": "RootNode"
    },
    {
      "children": [
        5
      ],
      "matrix": [
        1,
        0,
        0,
        0,
        0,
        2.2204460492503131e-16,
        -1,
        0,
        0,
        1,
        2.2204460492503131e-16,
        0,
        0,
        0,
        0,
        1
      ],
      "name": "Njure"
    },
    {
      "mesh": 0,
      "name": "Njure_Njure grundmaterial_0"
    }
  ],
  "samplers": [
    {
      "magFilter": 9729,
      "minFilter": 9987,
      "wrapS": 10497,
      "wrapT": 10497
    }
  ],
  "scene": 0,
  "scenes": [
    {
      "name": "OSG_Scene",
      "nodes": [
        0
      ]
    }
  ],
  "textures": [
    {
      "sampler": 0,
      "source": 0
    },
    {
      "sampler": 0,
      "source": 1
    }
  ]
}

