{
  "accessors": [
    {
      "bufferView": 2,
      "componentType": 5126,
      "count": 12492,
      "max": [
        14.750723838806152,
        9.9668912887573242,
        4.8121166229248047
      ],
      "min": [
        -9.4907760620117188,
        -11.078096389770508,
        -5.0517787933349609
      ],
      "type": "VEC3"
    },
    {
      "bufferView": 2,
      "byteOffset": 149904,
      "componentType": 5126,
      "count": 12492,
      "max": [
        1,
        1,
        0.99991422891616821
      ],
      "min": [
        -1,
        -1,
        -0.99991422891616821
      ],
      "type": "VEC3"
    },
    {
      "bufferView": 1,
      "componentType": 5126,
      "count": 12492,
      "max": [
        1.0000002384185791,
        1
      ],
      "min": [
        0,
        0
      ],
      "type": "VEC2"
    },
    {
      "bufferView": 0,
      "componentType": 5125,
      "count": 18972,
      "max": [
        12491
      ],
      "min": [
        0
      ],
      "type": "SCALAR"
    },
    {
      "bufferView": 2,
      "byteOffset": 299808,
      "componentType": 5126,
      "count": 6540,
      "max": [
        6.6243720054626465,
        9.5531549453735352,
        3.92507004737854
      ],
      "min": [
        -12.173641204833984,
        -8.3035678863525391,
        -0.43994498252868652
      ],
      "type": "VEC3"
    },
    {
      "bufferView": 2,
      "byteOffset": 378288,
      "componentType": 5126,
      "count": 6540,
      "max": [
        1,
        1,
        0.9997563362121582
      ],
      "min": [
        -1,
        -1,
        -0.9997563362121582
      ],
      "type": "VEC3"
    },
    {
      "bufferView": 1,
      "byteOffset": 99936,
      "componentType": 5126,
      "count": 6540,
      "max": [
        1.0000002384185791,
        1
      ],
      "min": [
        0,
        0
      ],
      "type": "VEC2"
    },
    {
      "bufferView": 0,
      "byteOffset": 75888,
      "componentType": 5125,
      "count": 10332,
      "max": [
        6539
      ],
      "min": [
        0
      ],
      "type": "SCALAR"
    },
    {
      "bufferView": 2,
      "byteOffset": 456768,
      "componentType": 5126,
      "count": 6996,
      "max": [
        7.8849763870239258,
        6.6237878799438477,
        2.0477225780487061
      ],
      "min": [
        -6.0016098022460938,
        -5.2666311264038086,
        -3.7303121089935303
      ],
      "type": "VEC3"
    },
    {
      "bufferView": 2,
      "byteOffset": 540720,
      "componentType": 5126,
      "count": 6996,
      "max": [
        0.99826532602310181,
        0.99902081489562988,
        0.9997563362121582
      ],
      "min": [
        -0.99748945236206055,
        -0.99902075529098511,
        -0.9997563362121582
      ],
      "type": "VEC3"
    },
    {
      "bufferView": 1,
      "byteOffset": 152256,
      "componentType": 5126,
      "count": 6996,
      "max": [
        1.0000002384185791,
        1
      ],
      "min": [
        0,
        0
      ],
      "type": "VEC2"
    },
    {
      "bufferView": 0,
      "byteOffset": 117216,
      "componentType": 5125,
      "count": 11640,
      "max": [
        6995
      ],
      "min": [
        0
      ],
      "type": "SCALAR"
    },
    {
      "bufferView": 3,
      "componentType": 5126,
      "count": 4,
      "max": [
        2.6359667778015137
      ],
      "min": [
        0
      ],
      "type": "SCALAR"
    },
    {
      "bufferView": 4,
      "componentType": 5126,
      "count": 4,
      "max": [
        6.1537818908691406,
        8.3220739364624023,
        26.750387191772461
      ],
      "min": [
        6.1537814140319824,
        8.3220739364624023,
        26.750387191772461
      ],
      "type": "VEC3"
    },
    {
      "bufferView": 3,
      "byteOffset": 16,
      "componentType": 5126,
      "count": 158,
      "max": [
        2.6359667778015137
      ],
      "min": [
        0
      ],
      "type": "SCALAR"
    },
    {
      "bufferView": 5,
      "componentType": 5126,
      "count": 158,
      "max": [
        0.49857538938522339,
        0.8602832555770874,
        0.089807868003845215,
        0.8602864146232605
      ],
      "min": [
        -0.50971221923828125,
        -0.68678635358810425,
        -0.50975459814071655,
        -0.49576893448829651
      ],
      "type": "VEC4"
    }
  ],
  "animations": [
    {
      "channels": [
        {
          "sampler": 0,
          "target": {
            "node": 5,
            "path": "scale"
          }
        },
        {
          "sampler": 1,
          "target": {
            "node": 5,
            "path": "rotation"
          }
        }
      ],
      "name": "Acidelactique|AcidelactiqueAction",
      "samplers": [
        {
          "input": 12,
          "interpolation": "LINEAR",
          "output": 13
        },
        {
          "input": 14,
          "interpolation": "LINEAR",
          "output": 15
        }
      ]
    }
  ],
  "asset": {
    "extras": {
      "author": "DumbHarambe (https://sketchfab.com/DumbHarambe)",
      "license": "CC-BY-4.0 (http://creativecommons.org/licenses/by/4.0/)",
      "source": "https://sketchfab.com/3d-models/lactic-acid-ae6f8ca097c745b7873768c93e9449b2",
      "title": "Lactic Acid"
    },
    "generator": "Sketchfab-7.35.0",
    "version": "2.0"
  },
  "bufferViews": [
    {
      "buffer": 0,
      "byteLength": 163776,
      "byteOffset": 0,
      "name": "floatBufferViews",
      "target": 34963
    },
    {
      "buffer": 0,
      "byteLength": 208224,
      "byteOffset": 163776,
      "byteStride": 8,
      "name": "floatBufferViews",
      "target": 34962
    },
    {
      "buffer": 0,
      "byteLength": 624672,
      "byteOffset": 372000,
      "byteStride": 12,
      "name": "floatBufferViews",
      "target": 34962
    },
    {
      "buffer": 0,
      "byteLength": 648,
      "byteOffset": 996672,
      "name": "floatBufferViews"
    },
    {
      "buffer": 0,
      "byteLength": 48,
      "byteOffset": 997320,
      "byteStride": 12,
      "name": "floatBufferViews"
    },
    {
      "buffer": 0,
      "byteLength": 2528,
      "byteOffset": 997368,
      "byteStride": 16,
      "name": "floatBufferViews"
    }
  ],
  "buffers": [
    {
      "byteLength": 999896,
      "uri": "kiselina.bin"
    }
  ],
  "materials": [
    {
      "doubleSided": true,
      "emissiveFactor": [
        0,
        0,
        0
      ],
      "name": "Hydrogene",
      "pbrMetallicRoughness": {
        "baseColorFactor": [
          1,
          1,
          1,
          1
        ],
        "metallicFactor": 0,
        "roughnessFactor": 1
      }
    },
    {
      "doubleSided": true,
      "emissiveFactor": [
        0,
        0,
        0
      ],
      "name": "Oxygene",
      "pbrMetallicRoughness": {
        "baseColorFactor": [
          1,
          0,
          0,
          1
        ],
        "metallicFactor": 0,
        "roughnessFactor": 1
      }
    },
    {
      "doubleSided": true,
      "emissiveFactor": [
        0,
        0,
        0
      ],
      "name": "Carbone",
      "pbrMetallicRoughness": {
        "baseColorFactor": [
          0,
          0,
          0,
          1
        ],
        "metallicFactor": 0,
        "roughnessFactor": 1
      }
    }
  ],
  "meshes": [
    {
      "name": "Acidelactique_Hydrogene_0",
      "primitives": [
        {
          "attributes": {
            "NORMAL": 1,
            "POSITION": 0,
            "TEXCOORD_0": 2
          },
          "indices": 3,
          "material": 0,
          "mode": 4
        }
      ]
    },
    {
      "name": "Acidelactique_Oxygene_0",
      "primitives": [
        {
          "attributes": {
            "NORMAL": 5,
            "POSITION": 4,
            "TEXCOORD_0": 6
          },
          "indices": 7,
          "material": 1,
          "mode": 4
        }
      ]
    },
    {
      "name": "Acidelactique_Carbone_0",
      "primitives": [
        {
          "attributes": {
            "NORMAL": 9,
            "POSITION": 8,
            "TEXCOORD_0": 10
          },
          "indices": 11,
          "material": 2,
          "mode": 4
        }
      ]
    }
  ],
  "nodes": [
    {
      "children": [
        1
      ],
      "name": "RootNode (gltf orientation matrix)",
      "rotation": [
        -0.70710678118654746,
        -0,
        -0,
        0.70710678118654757
      ]
    },
    {
      "children": [
        2
      ],
      "name": "RootNode (model correction matrix)"
    },
    {
      "children": [
        3
      ],
      "matrix": [
        1,
        0,
        0,
        0,
        0,
        0,
        1,
        0,
        0,
        -1,
        0,
        0,
        0,
        0,
        0,
        1
      ],
      "name": "4bb31e4a36194c13bd15b761da35406c.fbx"
    },
    {
      "children": [
        4
      ],
      "name": ""
    },
    {
      "children": [
        5
      ],
      "name": "RootNode"
    },
    {
      "children": [
        6,
        7,
        8
      ],
      "name": "Acidelactique",
      "rotation": [
        -0.15553876757621765,
        0.58462387323379517,
        -0.48538264632225037,
        0.63121020793914795
      ],
      "scale": [
        6.1537818908691406,
        8.3220739364624023,
        26.750387191772461
      ],
      "translation": [
        100.07357788085938,
        58.812862396240234,
        -40.349033355712891
      ]
    },
    {
      "mesh": 0,
      "name": "Acidelactique_Hydrogene_0"
    },
    {
      "mesh": 1,
      "name": "Acidelactique_Oxygene_0"
    },
    {
      "mesh": 2,
      "name": "Acidelactique_Carbone_0"
    }
  ],
  "scene": 0,
  "scenes": [
    {
      "name": "OSG_Scene",
      "nodes": [
        0
      ]
    }
  ]
}

