{
  "accessors": [
    {
      "bufferView": 2,
      "componentType": 5126,
      "count": 56118,
      "max": [
        0.90157902240753174,
        0.88295698165893555,
        -4.8379149436950684
      ],
      "min": [
        0.043937999755144119,
        0.17636799812316895,
        -5.5949668884277344
      ],
      "type": "VEC3"
    },
    {
      "bufferView": 2,
      "byteOffset": 673416,
      "componentType": 5126,
      "count": 56118,
      "max": [
        0.99969238042831421,
        0.99999022483825684,
        0.99996346235275269
      ],
      "min": [
        -0.99991649389266968,
        -0.99990922212600708,
        -0.99993634223937988
      ],
      "type": "VEC3"
    },
    {
      "bufferView": 3,
      "componentType": 5126,
      "count": 56118,
      "max": [
        0.99997061491012573,
        0.99927574396133423,
        0.99592489004135132,
        1
      ],
      "min": [
        -0.99998635053634644,
        -0.99999308586120605,
        -0.99999630451202393,
        -1
      ],
      "type": "VEC4"
    },
    {
      "bufferView": 1,
      "componentType": 5126,
      "count": 56118,
      "max": [
        0.7632259726524353,
        1
      ],
      "min": [
        0,
        0.00024799999664537609
      ],
      "type": "VEC2"
    },
    {
      "bufferView": 0,
      "componentType": 5125,
      "count": 328566,
      "max": [
        56117
      ],
      "min": [
        0
      ],
      "type": "SCALAR"
    }
  ],
  "asset": {
    "extras": {
      "author": "YimingShen (https://sketchfab.com/YimingShen)",
      "license": "CC-BY-4.0 (http://creativecommons.org/licenses/by/4.0/)",
      "source": "https://sketchfab.com/models/74be0edb747646b0b3a3a5a3b7555f8c",
      "title": "Shiitakes"
    },
    "generator": "Sketchfab-3.22.13",
    "version": "2.0"
  },
  "bufferViews": [
    {
      "buffer": 0,
      "byteLength": 1314264,
      "byteOffset": 0,
      "name": "floatBufferViews",
      "target": 34963
    },
    {
      "buffer": 0,
      "byteLength": 448944,
      "byteOffset": 1314264,
      "byteStride": 8,
      "name": "floatBufferViews",
      "target": 34962
    },
    {
      "buffer": 0,
      "byteLength": 1346832,
      "byteOffset": 1763208,
      "byteStride": 12,
      "name": "floatBufferViews",
      "target": 34962
    },
    {
      "buffer": 0,
      "byteLength": 897888,
      "byteOffset": 3110040,
      "byteStride": 16,
      "name": "floatBufferViews",
      "target": 34962
    }
  ],
  "buffers": [
    {
      "byteLength": 4007928,
      "uri": "sitake.bin"
    }
  ],
  "extensionsRequired": [
    "KHR_materials_pbrSpecularGlossiness"
  ],
  "extensionsUsed": [
    "KHR_materials_pbrSpecularGlossiness"
  ],
  "images": [
    {
      "uri": "iiiiiiii1_diffuse.jpeg"
    }
  ],
  "materials": [
    {
      "doubleSided": true,
      "emissiveFactor": [
        0,
        0,
        0
      ],
      "extensions": {
        "KHR_materials_pbrSpecularGlossiness": {
          "diffuseFactor": [
            1,
            1,
            1,
            1
          ],
          "diffuseTexture": {
            "index": 0,
            "texCoord": 0
          },
          "glossinessFactor": 0,
          "specularFactor": [
            0,
            0,
            0
          ]
        }
      },
      "name": "iiiiiiii1"
    }
  ],
  "meshes": [
    {
      "name": "iiii:Mesh_iiii:iiii1_0",
      "primitives": [
        {
          "attributes": {
            "NORMAL": 1,
            "POSITION": 0,
            "TANGENT": 2,
            "TEXCOORD_0": 3
          },
          "indices": 4,
          "material": 0,
          "mode": 4
        }
      ]
    }
  ],
  "nodes": [
    {
      "children": [
        1
      ],
      "name": "RootNode (gltf orientation matrix)",
      "rotation": [
        -0.70710678118654746,
        -0,
        -0,
        0.70710678118654757
      ]
    },
    {
      "children": [
        2
      ],
      "matrix": [
        1,
        0,
        0,
        0,
        0,
        0,
        -1,
        0,
        0,
        1,
        0,
        0,
        0,
        -0.81767207384109497,
        0.24165640771389008,
        1
      ],
      "name": "RootNode (model correction matrix)"
    },
    {
      "children": [
        3
      ],
      "matrix": [
        1,
        0,
        0,
        0,
        0,
        0,
        1,
        0,
        0,
        -1,
        0,
        0,
        0,
        0,
        0,
        1
      ],
      "name": "9588d361132948a8a08aa970834b0d66.fbx"
    },
    {
      "children": [
        4
      ],
      "name": "RootNode"
    },
    {
      "children": [
        5
      ],
      "matrix": [
        11.735073089599609,
        0,
        0,
        0,
        0,
        11.735073089599609,
        0,
        0,
        0,
        0,
        11.735073089599609,
        0,
        -5.0750970840454102,
        -5.6859655380249023,
        61.503456115722656,
        1
      ],
      "name": "iiii:Mesh"
    },
    {
      "mesh": 0,
      "name": "iiii:Mesh_iiii:iiii1_0"
    }
  ],
  "samplers": [
    {
      "magFilter": 9729,
      "minFilter": 9987,
      "wrapS": 10497,
      "wrapT": 10497
    }
  ],
  "scene": 0,
  "scenes": [
    {
      "name": "OSG_Scene",
      "nodes": [
        0
      ]
    }
  ],
  "textures": [
    {
      "sampler": 0,
      "source": 0
    }
  ]
}

