{
  "accessors": [
    {
      "bufferView": 2,
      "componentType": 5126,
      "count": 65532,
      "max": [
        45.90403747558594,
        44.684967041015625,
        46.086570739746094
      ],
      "min": [
        -45.976593017578125,
        -45.46879577636719,
        -46.086570739746094
      ],
      "type": "VEC3"
    },
    {
      "bufferView": 2,
      "byteOffset": 786384,
      "componentType": 5126,
      "count": 65532,
      "max": [
        0.9999960064888,
        0.9999864101409912,
        0.9999840259552002
      ],
      "min": [
        -0.9999960064888,
        -0.9999210238456726,
        -0.9999739527702332
      ],
      "type": "VEC3"
    },
    {
      "bufferView": 1,
      "componentType": 5126,
      "count": 65532,
      "max": [
        0.9971519708633423,
        0.9926609992980957
      ],
      "min": [
        0.0028440000023692846,
        0.0028490000404417515
      ],
      "type": "VEC2"
    },
    {
      "bufferView": 0,
      "componentType": 5125,
      "count": 142173,
      "type": "SCALAR"
    },
    {
      "bufferView": 2,
      "byteOffset": 1572768,
      "componentType": 5126,
      "count": 8237,
      "max": [
        37.20042037963867,
        39.866329193115234,
        -14.30041217803955
      ],
      "min": [
        -33.15970993041992,
        -35.73482894897461,
        -39.60390853881836
      ],
      "type": "VEC3"
    },
    {
      "bufferView": 2,
      "byteOffset": 1671612,
      "componentType": 5126,
      "count": 8237,
      "max": [
        0.9996145963668823,
        0.9999864101409912,
        0.9997638463973999
      ],
      "min": [
        -0.9998248815536499,
        -0.9996067881584167,
        -0.9997686147689819
      ],
      "type": "VEC3"
    },
    {
      "bufferView": 1,
      "byteOffset": 524256,
      "componentType": 5126,
      "count": 8237,
      "max": [
        0.9971519708633423,
        0.9926609992980957
      ],
      "min": [
        0.0028440000023692846,
        0.0028510000556707382
      ],
      "type": "VEC2"
    },
    {
      "bufferView": 0,
      "byteOffset": 568692,
      "componentType": 5125,
      "count": 16671,
      "type": "SCALAR"
    },
    {
      "bufferView": 2,
      "byteOffset": 1770456,
      "componentType": 5126,
      "count": 559,
      "max": [
        1.000000238418579,
        1.0,
        1.0
      ],
      "min": [
        -0.9999998211860657,
        -1.0000003576278687,
        -1.0
      ],
      "type": "VEC3"
    },
    {
      "bufferView": 2,
      "byteOffset": 1777164,
      "componentType": 5126,
      "count": 559,
      "max": [
        1.0,
        1.0,
        1.0
      ],
      "min": [
        -1.0,
        -1.0,
        -1.0
      ],
      "type": "VEC3"
    },
    {
      "bufferView": 1,
      "byteOffset": 590152,
      "componentType": 5126,
      "count": 559,
      "max": [
        1.000000238418579,
        1.0
      ],
      "min": [
        0.0,
        0.0
      ],
      "type": "VEC2"
    },
    {
      "bufferView": 0,
      "byteOffset": 635376,
      "componentType": 5125,
      "count": 2880,
      "type": "SCALAR"
    },
    {
      "bufferView": 3,
      "componentType": 5126,
      "count": 401,
      "max": [
        13.333333015441895
      ],
      "min": [
        0.0
      ],
      "type": "SCALAR"
    },
    {
      "bufferView": 4,
      "componentType": 5126,
      "count": 401,
      "max": [
        100.0,
        100.0,
        100.0
      ],
      "min": [
        90.0,
        90.0,
        90.0
      ],
      "type": "VEC3"
    },
    {
      "bufferView": 3,
      "byteOffset": 1604,
      "componentType": 5126,
      "count": 233,
      "max": [
        13.333333015441895
      ],
      "min": [
        0.0
      ],
      "type": "SCALAR"
    },
    {
      "bufferView": 5,
      "componentType": 5126,
      "count": 233,
      "max": [
        8.146033536604591e-08,
        0.0,
        0.0,
        1.0
      ],
      "min": [
        8.146033536604591e-08,
        0.0,
        0.0,
        1.0
      ],
      "type": "VEC4"
    }
  ],
  "animations": [
    {
      "channels": [
        {
          "sampler": 0,
          "target": {
            "node": 4,
            "path": "scale"
          }
        },
        {
          "sampler": 1,
          "target": {
            "node": 4,
            "path": "rotation"
          }
        }
      ],
      "name": "Cube.093_Cube.001|Sphere_Sphere.002Action.001",
      "samplers": [
        {
          "input": 12,
          "interpolation": "LINEAR",
          "output": 13
        },
        {
          "input": 14,
          "interpolation": "LINEAR",
          "output": 15
        }
      ]
    }
  ],
  "asset": {
    "extras": {
      "author": "Akshat (https://sketchfab.com/shooter24994)",
      "license": "CC-BY-4.0 (http://creativecommons.org/licenses/by/4.0/)",
      "source": "https://sketchfab.com/3d-models/corona-virus-3d-model-0848e9c142984bef90145e0e04d03be5",
      "title": "Corona Virus 3D Model"
    },
    "generator": "Sketchfab-10.64.0",
    "version": "2.0"
  },
  "bufferViews": [
    {
      "buffer": 0,
      "byteLength": 646896,
      "name": "floatBufferViews",
      "target": 34963
    },
    {
      "buffer": 0,
      "byteLength": 594624,
      "byteOffset": 646896,
      "byteStride": 8,
      "name": "floatBufferViews",
      "target": 34962
    },
    {
      "buffer": 0,
      "byteLength": 1783872,
      "byteOffset": 1241520,
      "byteStride": 12,
      "name": "floatBufferViews",
      "target": 34962
    },
    {
      "buffer": 0,
      "byteLength": 2536,
      "byteOffset": 3025392,
      "name": "floatBufferViews"
    },
    {
      "buffer": 0,
      "byteLength": 4812,
      "byteOffset": 3027928,
      "byteStride": 12,
      "name": "floatBufferViews"
    },
    {
      "buffer": 0,
      "byteLength": 3728,
      "byteOffset": 3032740,
      "byteStride": 16,
      "name": "floatBufferViews"
    }
  ],
  "buffers": [
    {
      "byteLength": 3036468,
      "uri": "korona.bin"
    }
  ],
  "images": [
    {
      "uri": "Parts_baseColor.png"
    },
    {
      "uri": "SphereLow_baseColor.png"
    }
  ],
  "materials": [
    {
      "doubleSided": true,
      "name": "Parts",
      "pbrMetallicRoughness": {
        "baseColorTexture": {
          "index": 0
        },
        "metallicFactor": 0.5,
        "roughnessFactor": 0.30000000000000004
      }
    },
    {
      "doubleSided": true,
      "name": "SphereLow",
      "pbrMetallicRoughness": {
        "baseColorTexture": {
          "index": 1
        },
        "metallicFactor": 0.5,
        "roughnessFactor": 0.33555107649465854
      }
    }
  ],
  "meshes": [
    {
      "name": "Cube.093_Cube.001_Parts_0",
      "primitives": [
        {
          "attributes": {
            "NORMAL": 1,
            "POSITION": 0,
            "TEXCOORD_0": 2
          },
          "indices": 3,
          "material": 0,
          "mode": 4
        }
      ]
    },
    {
      "name": "Cube.093_Cube.001_Parts_0",
      "primitives": [
        {
          "attributes": {
            "NORMAL": 5,
            "POSITION": 4,
            "TEXCOORD_0": 6
          },
          "indices": 7,
          "material": 0,
          "mode": 4
        }
      ]
    },
    {
      "name": "Sphere_SphereLow_0",
      "primitives": [
        {
          "attributes": {
            "NORMAL": 9,
            "POSITION": 8,
            "TEXCOORD_0": 10
          },
          "indices": 11,
          "material": 1,
          "mode": 4
        }
      ]
    }
  ],
  "nodes": [
    {
      "children": [
        1
      ],
      "matrix": [
        0.0002526802709326148,
        0.0,
        0.0,
        0.0,
        0.0,
        5.610629093158233e-20,
        -0.0002526802709326148,
        0.0,
        0.0,
        0.0002526802709326148,
        5.610629093158233e-20,
        0.0,
        0.0,
        0.0,
        0.0,
        1.0
      ],
      "name": "Sketchfab_model"
    },
    {
      "children": [
        2
      ],
      "matrix": [
        1.0,
        0.0,
        0.0,
        0.0,
        0.0,
        0.0,
        1.0,
        0.0,
        0.0,
        -1.0,
        0.0,
        0.0,
        0.0,
        0.0,
        0.0,
        1.0
      ],
      "name": "2d5990e323bc4d2f8bd27474c2ddb15e.fbx"
    },
    {
      "children": [
        3
      ],
      "name": "Object_2"
    },
    {
      "children": [
        4,
        7
      ],
      "name": "RootNode"
    },
    {
      "children": [
        5,
        6
      ],
      "name": "Cube.093_Cube.001",
      "rotation": [
        8.146034957690063e-08,
        0.0,
        0.0,
        1.0
      ],
      "scale": [
        92.30189514160156,
        92.30189514160156,
        92.30189514160156
      ]
    },
    {
      "mesh": 0,
      "name": "Cube.093_Cube.001_Parts_0"
    },
    {
      "mesh": 1,
      "name": "Cube.093_Cube.001_Parts_0"
    },
    {
      "children": [
        8
      ],
      "name": "Sphere",
      "rotation": [
        -0.7071068286895752,
        0.0,
        0.0,
        0.7071067094802856
      ],
      "scale": [
        3333.16162109375,
        3333.16162109375,
        3333.16162109375
      ]
    },
    {
      "mesh": 2,
      "name": "Sphere_SphereLow_0"
    }
  ],
  "samplers": [
    {
      "magFilter": 9729,
      "minFilter": 9987,
      "wrapS": 10497,
      "wrapT": 10497
    }
  ],
  "scene": 0,
  "scenes": [
    {
      "name": "Sketchfab_Scene",
      "nodes": [
        0
      ]
    }
  ],
  "textures": [
    {
      "sampler": 0,
      "source": 0
    },
    {
      "sampler": 0,
      "source": 1
    }
  ]
}
