{
  "accessors": [
    {
      "bufferView": 1,
      "componentType": 5126,
      "count": 2587,
      "max": [
        0.48554378747940063,
        -0.49221315979957581,
        0.98484915494918823
      ],
      "min": [
        -0.06699807196855545,
        -1.5256130695343018,
        -1.261466383934021
      ],
      "type": "VEC3"
    },
    {
      "bufferView": 1,
      "byteOffset": 31044,
      "componentType": 5126,
      "count": 2587,
      "max": [
        0.9997718334197998,
        0.99875736236572266,
        0.99949812889099121
      ],
      "min": [
        -0.99947428703308105,
        -0.99844229221343994,
        -0.99875986576080322
      ],
      "type": "VEC3"
    },
    {
      "bufferView": 2,
      "componentType": 5126,
      "count": 2587,
      "max": [
        1,
        1,
        1,
        1
      ],
      "min": [
        0.29019609093666077,
        0.039215687662363052,
        0.047058824449777603,
        1
      ],
      "type": "VEC4"
    },
    {
      "bufferView": 0,
      "componentType": 5125,
      "count": 13464,
      "max": [
        2586
      ],
      "min": [
        0
      ],
      "type": "SCALAR"
    },
    {
      "bufferView": 1,
      "byteOffset": 62088,
      "componentType": 5126,
      "count": 4056,
      "max": [
        0.55289912223815918,
        -0.26862978935241699,
        1.5707670450210571
      ],
      "min": [
        -0.035303410142660141,
        -1.6509974002838135,
        -0.12483780086040497
      ],
      "type": "VEC3"
    },
    {
      "bufferView": 1,
      "byteOffset": 110760,
      "componentType": 5126,
      "count": 4056,
      "max": [
        0.99989384412765503,
        0.99812394380569458,
        0.99794518947601318
      ],
      "min": [
        -0.9999658465385437,
        -0.9933021068572998,
        -0.99818897247314453
      ],
      "type": "VEC3"
    },
    {
      "bufferView": 2,
      "byteOffset": 41392,
      "componentType": 5126,
      "count": 4056,
      "max": [
        1,
        1,
        1,
        1
      ],
      "min": [
        0.29019609093666077,
        0.023529412224888802,
        0.039215687662363052,
        1
      ],
      "type": "VEC4"
    },
    {
      "bufferView": 0,
      "byteOffset": 53856,
      "componentType": 5125,
      "count": 14172,
      "max": [
        4055
      ],
      "min": [
        0
      ],
      "type": "SCALAR"
    },
    {
      "bufferView": 1,
      "byteOffset": 159432,
      "componentType": 5126,
      "count": 1280,
      "max": [
        0.56791317462921143,
        -1.62328040599823,
        0.058125361800193787
      ],
      "min": [
        0.38576987385749817,
        -2.549607515335083,
        -0.54761350154876709
      ],
      "type": "VEC3"
    },
    {
      "bufferView": 1,
      "byteOffset": 174792,
      "componentType": 5126,
      "count": 1280,
      "max": [
        0.99986737966537476,
        0.78189647197723389,
        0.99333876371383667
      ],
      "min": [
        -0.99976563453674316,
        -0.98863363265991211,
        -0.99702543020248413
      ],
      "type": "VEC3"
    },
    {
      "bufferView": 2,
      "byteOffset": 106288,
      "componentType": 5126,
      "count": 1280,
      "max": [
        0.40392157435417175,
        0.26666668057441711,
        0.29411765933036804,
        1
      ],
      "min": [
        0.29803922772407532,
        0.054901961237192154,
        0.070588238537311554,
        1
      ],
      "type": "VEC4"
    },
    {
      "bufferView": 0,
      "byteOffset": 110544,
      "componentType": 5125,
      "count": 7464,
      "max": [
        1279
      ],
      "min": [
        0
      ],
      "type": "SCALAR"
    },
    {
      "bufferView": 1,
      "byteOffset": 190152,
      "componentType": 5126,
      "count": 1507,
      "max": [
        0.25446531176567078,
        -0.49982929229736328,
        0.26690682768821716
      ],
      "min": [
        0.097492799162864685,
        -1.2358335256576538,
        0.087324731051921844
      ],
      "type": "VEC3"
    },
    {
      "bufferView": 1,
      "byteOffset": 208236,
      "componentType": 5126,
      "count": 1507,
      "max": [
        0.99921441078186035,
        0.99665373563766479,
        0.99988877773284912
      ],
      "min": [
        -0.99981904029846191,
        -0.66110879182815552,
        -0.99983114004135132
      ],
      "type": "VEC3"
    },
    {
      "bufferView": 2,
      "byteOffset": 126768,
      "componentType": 5126,
      "count": 1507,
      "max": [
        0.84705883264541626,
        0.086274512112140656,
        0.20784313976764679,
        1
      ],
      "min": [
        0.30588236451148987,
        0.023529412224888802,
        0.039215687662363052,
        1
      ],
      "type": "VEC4"
    },
    {
      "bufferView": 0,
      "byteOffset": 140400,
      "componentType": 5125,
      "count": 8832,
      "max": [
        1506
      ],
      "min": [
        0
      ],
      "type": "SCALAR"
    },
    {
      "bufferView": 1,
      "byteOffset": 226320,
      "componentType": 5126,
      "count": 1688,
      "max": [
        0.17720259726047516,
        -0.48807558417320251,
        0.33215984702110291
      ],
      "min": [
        0.053778499364852905,
        -1.1972465515136719,
        0.1760748028755188
      ],
      "type": "VEC3"
    },
    {
      "bufferView": 1,
      "byteOffset": 246576,
      "componentType": 5126,
      "count": 1688,
      "max": [
        0.99993491172790527,
        0.99974209070205688,
        0.99978411197662354
      ],
      "min": [
        -0.99967169761657715,
        -0.87914115190505981,
        -0.99917435646057129
      ],
      "type": "VEC3"
    },
    {
      "bufferView": 2,
      "byteOffset": 150880,
      "componentType": 5126,
      "count": 1688,
      "max": [
        0.86274510622024536,
        0.078431375324726105,
        0.21176470816135406,
        1
      ],
      "min": [
        0.29019609093666077,
        0.023529412224888802,
        0.039215687662363052,
        1
      ],
      "type": "VEC4"
    },
    {
      "bufferView": 0,
      "byteOffset": 175728,
      "componentType": 5125,
      "count": 9696,
      "max": [
        1687
      ],
      "min": [
        0
      ],
      "type": "SCALAR"
    },
    {
      "bufferView": 1,
      "byteOffset": 266832,
      "componentType": 5126,
      "count": 1818,
      "max": [
        0.33139225840568542,
        -1.1839072704315186,
        0.25746741890907288
      ],
      "min": [
        0.13724017143249512,
        -1.6797183752059937,
        0.027212070301175117
      ],
      "type": "VEC3"
    },
    {
      "bufferView": 1,
      "byteOffset": 288648,
      "componentType": 5126,
      "count": 1818,
      "max": [
        0.99357706308364868,
        0.97660243511199951,
        0.99974316358566284
      ],
      "min": [
        -0.99941724538803101,
        -0.90622621774673462,
        -0.99975496530532837
      ],
      "type": "VEC3"
    },
    {
      "bufferView": 2,
      "byteOffset": 177888,
      "componentType": 5126,
      "count": 1818,
      "max": [
        0.56078433990478516,
        0.18823529779911041,
        0.20784313976764679,
        1
      ],
      "min": [
        0.30588236451148987,
        0.039215687662363052,
        0.039215687662363052,
        1
      ],
      "type": "VEC4"
    },
    {
      "bufferView": 0,
      "byteOffset": 214512,
      "componentType": 5125,
      "count": 9984,
      "max": [
        1817
      ],
      "min": [
        0
      ],
      "type": "SCALAR"
    },
    {
      "bufferView": 1,
      "byteOffset": 310464,
      "componentType": 5126,
      "count": 1701,
      "max": [
        0.26224619150161743,
        -0.83608782291412354,
        0.072832480072975159
      ],
      "min": [
        -0.050551928579807281,
        -1.4648197889328003,
        -1.2414294481277466
      ],
      "type": "VEC3"
    },
    {
      "bufferView": 1,
      "byteOffset": 330876,
      "componentType": 5126,
      "count": 1701,
      "max": [
        0.99711853265762329,
        0.99961239099502563,
        0.99334597587585449
      ],
      "min": [
        -0.99959176778793335,
        -0.99969995021820068,
        -0.99868112802505493
      ],
      "type": "VEC3"
    },
    {
      "bufferView": 2,
      "byteOffset": 206976,
      "componentType": 5126,
      "count": 1701,
      "max": [
        0.64313727617263794,
        0.08235294371843338,
        0.14901961386203766,
        1
      ],
      "min": [
        0.29019609093666077,
        0.023529412224888802,
        0.039215687662363052,
        1
      ],
      "type": "VEC4"
    },
    {
      "bufferView": 0,
      "byteOffset": 254448,
      "componentType": 5125,
      "count": 10080,
      "max": [
        1700
      ],
      "min": [
        0
      ],
      "type": "SCALAR"
    },
    {
      "bufferView": 1,
      "byteOffset": 351288,
      "componentType": 5126,
      "count": 2539,
      "max": [
        0.15708655118942261,
        -0.29853975772857666,
        0.31448209285736084
      ],
      "min": [
        -0.15964551270008087,
        -0.98170316219329834,
        -2.6930038928985596
      ],
      "type": "VEC3"
    },
    {
      "bufferView": 1,
      "byteOffset": 381756,
      "componentType": 5126,
      "count": 2539,
      "max": [
        0.99992203712463379,
        0.99965262413024902,
        0.99597668647766113
      ],
      "min": [
        -0.99996137619018555,
        -0.99965435266494751,
        -0.96219319105148315
      ],
      "type": "VEC3"
    },
    {
      "bufferView": 2,
      "byteOffset": 234192,
      "componentType": 5126,
      "count": 2539,
      "max": [
        0.61960786581039429,
        0.47450980544090271,
        0.38823530077934265,
        1
      ],
      "min": [
        0.32941177487373352,
        0.086274512112140656,
        0.066666670143604279,
        1
      ],
      "type": "VEC4"
    },
    {
      "bufferView": 0,
      "byteOffset": 294768,
      "componentType": 5125,
      "count": 15168,
      "max": [
        2538
      ],
      "min": [
        0
      ],
      "type": "SCALAR"
    },
    {
      "bufferView": 1,
      "byteOffset": 412224,
      "componentType": 5126,
      "count": 4346,
      "max": [
        0.42121878266334534,
        -1.6339974403381348,
        0.15529179573059082
      ],
      "min": [
        0.26984280347824097,
        -2.4631726741790771,
        -0.5168839693069458
      ],
      "type": "VEC3"
    },
    {
      "bufferView": 1,
      "byteOffset": 464376,
      "componentType": 5126,
      "count": 4346,
      "max": [
        0.99996769428253174,
        0.85562813282012939,
        0.90601092576980591
      ],
      "min": [
        -0.99992555379867554,
        -0.99855655431747437,
        -0.99379628896713257
      ],
      "type": "VEC3"
    },
    {
      "bufferView": 2,
      "byteOffset": 274816,
      "componentType": 5126,
      "count": 4346,
      "max": [
        1,
        1,
        1,
        1
      ],
      "min": [
        0.33725491166114807,
        0.054901961237192154,
        0.062745101749897003,
        1
      ],
      "type": "VEC4"
    },
    {
      "bufferView": 0,
      "byteOffset": 355440,
      "componentType": 5125,
      "count": 25440,
      "max": [
        4345
      ],
      "min": [
        0
      ],
      "type": "SCALAR"
    },
    {
      "bufferView": 1,
      "byteOffset": 516528,
      "componentType": 5126,
      "count": 5623,
      "max": [
        0.50327092409133911,
        -0.055366188287734985,
        1.8166170120239258
      ],
      "min": [
        -0.33345788717269897,
        -1.4091155529022217,
        0.52465254068374634
      ],
      "type": "VEC3"
    },
    {
      "bufferView": 1,
      "byteOffset": 584004,
      "componentType": 5126,
      "count": 5623,
      "max": [
        0.9997333288192749,
        0.99997830390930176,
        0.99962198734283447
      ],
      "min": [
        -0.99992430210113525,
        -0.99899154901504517,
        -0.99870741367340088
      ],
      "type": "VEC3"
    },
    {
      "bufferView": 2,
      "byteOffset": 344352,
      "componentType": 5126,
      "count": 5623,
      "max": [
        0.54509806632995605,
        0.37647059559822083,
        0.27843138575553894,
        1
      ],
      "min": [
        0.25490197539329529,
        0.074509806931018829,
        0.054901961237192154,
        1
      ],
      "type": "VEC4"
    },
    {
      "bufferView": 0,
      "byteOffset": 457200,
      "componentType": 5125,
      "count": 32880,
      "max": [
        5622
      ],
      "min": [
        0
      ],
      "type": "SCALAR"
    },
    {
      "bufferView": 1,
      "byteOffset": 651480,
      "componentType": 5126,
      "count": 65532,
      "max": [
        0.68798208236694336,
        1.2126349210739136,
        1.67686927318573
      ],
      "min": [
        -0.52018493413925171,
        -1.0834014415740967,
        -1.3420525789260864
      ],
      "type": "VEC3"
    },
    {
      "bufferView": 1,
      "byteOffset": 1437864,
      "componentType": 5126,
      "count": 65532,
      "max": [
        0.99999994039535522,
        0.99998831748962402,
        0.99999797344207764
      ],
      "min": [
        -0.95066410303115845,
        -0.99999308586120605,
        -0.9999811053276062
      ],
      "type": "VEC3"
    },
    {
      "bufferView": 2,
      "byteOffset": 434320,
      "componentType": 5126,
      "count": 65532,
      "max": [
        0.56470590829849243,
        0.25882354378700256,
        0.20784313976764679,
        1
      ],
      "min": [
        0.29803922772407532,
        0.039215687662363052,
        0.039215687662363052,
        1
      ],
      "type": "VEC4"
    },
    {
      "bufferView": 0,
      "byteOffset": 588720,
      "componentType": 5125,
      "count": 389037,
      "max": [
        65531
      ],
      "min": [
        0
      ],
      "type": "SCALAR"
    },
    {
      "bufferView": 1,
      "byteOffset": 2224248,
      "componentType": 5126,
      "count": 34321,
      "max": [
        0.68675708770751953,
        1.1777530908584595,
        1.5863394737243652
      ],
      "min": [
        -0.68798220157623291,
        -0.99821197986602783,
        -1.3156869411468506
      ],
      "type": "VEC3"
    },
    {
      "bufferView": 1,
      "byteOffset": 2636100,
      "componentType": 5126,
      "count": 34321,
      "max": [
        0.99894076585769653,
        0.92690372467041016,
        0.84320265054702759
      ],
      "min": [
        -0.99999946355819702,
        -0.90102881193161011,
        -0.98281294107437134
      ],
      "type": "VEC3"
    },
    {
      "bufferView": 2,
      "byteOffset": 1482832,
      "componentType": 5126,
      "count": 34321,
      "max": [
        0.54509806632995605,
        0.23529411852359772,
        0.19607843458652496,
        1
      ],
      "min": [
        0.29803922772407532,
        0.047058824449777603,
        0.039215687662363052,
        1
      ],
      "type": "VEC4"
    },
    {
      "bufferView": 0,
      "byteOffset": 2144868,
      "componentType": 5125,
      "count": 200787,
      "max": [
        34320
      ],
      "min": [
        0
      ],
      "type": "SCALAR"
    }
  ],
  "asset": {
    "extras": {
      "author": "lissiecowley (https://sketchfab.com/lissiecowley)",
      "license": "CC-BY-NC-4.0 (http://creativecommons.org/licenses/by-nc/4.0/)",
      "source": "https://sketchfab.com/3d-models/kidney-3aef2741ea754fb486451292b87e159a",
      "title": "Kidney"
    },
    "generator": "Sketchfab-4.81.0",
    "version": "2.0"
  },
  "bufferViews": [
    {
      "buffer": 0,
      "byteLength": 2948016,
      "byteOffset": 0,
      "name": "floatBufferViews",
      "target": 34963
    },
    {
      "buffer": 0,
      "byteLength": 3047952,
      "byteOffset": 2948016,
      "byteStride": 12,
      "name": "floatBufferViews",
      "target": 34962
    },
    {
      "buffer": 0,
      "byteLength": 2031968,
      "byteOffset": 5995968,
      "byteStride": 16,
      "name": "floatBufferViews",
      "target": 34962
    }
  ],
  "buffers": [
    {
      "byteLength": 8027936,
      "uri": "bubreg.bin"
    }
  ],
  "materials": [
    {
      "doubleSided": true,
      "emissiveFactor": [
        0,
        0,
        0
      ],
      "name": "material_0",
      "pbrMetallicRoughness": {
        "baseColorFactor": [
          1,
          1,
          1,
          1
        ],
        "metallicFactor": 0,
        "roughnessFactor": 0.20000000000000001
      }
    }
  ],
  "meshes": [
    {
      "primitives": [
        {
          "attributes": {
            "COLOR_0": 2,
            "NORMAL": 1,
            "POSITION": 0
          },
          "indices": 3,
          "material": 0,
          "mode": 4
        }
      ]
    },
    {
      "primitives": [
        {
          "attributes": {
            "COLOR_0": 6,
            "NORMAL": 5,
            "POSITION": 4
          },
          "indices": 7,
          "material": 0,
          "mode": 4
        }
      ]
    },
    {
      "primitives": [
        {
          "attributes": {
            "COLOR_0": 10,
            "NORMAL": 9,
            "POSITION": 8
          },
          "indices": 11,
          "material": 0,
          "mode": 4
        }
      ]
    },
    {
      "primitives": [
        {
          "attributes": {
            "COLOR_0": 14,
            "NORMAL": 13,
            "POSITION": 12
          },
          "indices": 15,
          "material": 0,
          "mode": 4
        }
      ]
    },
    {
      "primitives": [
        {
          "attributes": {
            "COLOR_0": 18,
            "NORMAL": 17,
            "POSITION": 16
          },
          "indices": 19,
          "material": 0,
          "mode": 4
        }
      ]
    },
    {
      "primitives": [
        {
          "attributes": {
            "COLOR_0": 22,
            "NORMAL": 21,
            "POSITION": 20
          },
          "indices": 23,
          "material": 0,
          "mode": 4
        }
      ]
    },
    {
      "primitives": [
        {
          "attributes": {
            "COLOR_0": 26,
            "NORMAL": 25,
            "POSITION": 24
          },
          "indices": 27,
          "material": 0,
          "mode": 4
        }
      ]
    },
    {
      "primitives": [
        {
          "attributes": {
            "COLOR_0": 30,
            "NORMAL": 29,
            "POSITION": 28
          },
          "indices": 31,
          "material": 0,
          "mode": 4
        }
      ]
    },
    {
      "primitives": [
        {
          "attributes": {
            "COLOR_0": 34,
            "NORMAL": 33,
            "POSITION": 32
          },
          "indices": 35,
          "material": 0,
          "mode": 4
        }
      ]
    },
    {
      "primitives": [
        {
          "attributes": {
            "COLOR_0": 38,
            "NORMAL": 37,
            "POSITION": 36
          },
          "indices": 39,
          "material": 0,
          "mode": 4
        }
      ]
    },
    {
      "primitives": [
        {
          "attributes": {
            "COLOR_0": 42,
            "NORMAL": 41,
            "POSITION": 40
          },
          "indices": 43,
          "material": 0,
          "mode": 4
        }
      ]
    },
    {
      "primitives": [
        {
          "attributes": {
            "COLOR_0": 46,
            "NORMAL": 45,
            "POSITION": 44
          },
          "indices": 47,
          "material": 0,
          "mode": 4
        }
      ]
    }
  ],
  "nodes": [
    {
      "children": [
        1
      ],
      "name": "RootNode (gltf orientation matrix)",
      "rotation": [
        -0.70710678118654746,
        -0,
        -0,
        0.70710678118654757
      ]
    },
    {
      "children": [
        2
      ],
      "matrix": [
        0.50461435317993164,
        0.85737347602844238,
        -0.10136608779430389,
        0,
        -0.85988140106201172,
        0.48860752582550049,
        -0.14787387847900391,
        0,
        -0.077254906296730042,
        0.16178210079669952,
        0.98379784822463989,
        0,
        -0.60867214202880859,
        -0.27096715569496155,
        -0.1059514507651329,
        1
      ],
      "name": "RootNode (model correction matrix)"
    },
    {
      "children": [
        3,
        4,
        5,
        6,
        7,
        8,
        9,
        10,
        11,
        12,
        13,
        14
      ],
      "name": "Kidney for sketchfab.OBJ.cleaner.materialmerger.gles"
    },
    {
      "mesh": 0,
      "name": ""
    },
    {
      "mesh": 1,
      "name": ""
    },
    {
      "mesh": 2,
      "name": ""
    },
    {
      "mesh": 3,
      "name": ""
    },
    {
      "mesh": 4,
      "name": ""
    },
    {
      "mesh": 5,
      "name": ""
    },
    {
      "mesh": 6,
      "name": ""
    },
    {
      "mesh": 7,
      "name": ""
    },
    {
      "mesh": 8,
      "name": ""
    },
    {
      "mesh": 9,
      "name": ""
    },
    {
      "mesh": 10,
      "name": ""
    },
    {
      "mesh": 11,
      "name": ""
    }
  ],
  "scene": 0,
  "scenes": [
    {
      "name": "OSG_Scene",
      "nodes": [
        0
      ]
    }
  ]
}

