{
  "accessors": [
    {
      "bufferView": 2,
      "componentType": 5126,
      "count": 10587,
      "max": [
        7.784969806671143,
        8.640982627868652,
        19.347902297973633
      ],
      "min": [
        -7.784969806671143,
        -5.453614711761475,
        -24.670269012451172
      ],
      "type": "VEC3"
    },
    {
      "bufferView": 2,
      "byteOffset": 127044,
      "componentType": 5126,
      "count": 10587,
      "max": [
        0.9999117851257324,
        0.9999857544898987,
        0.9997513294219971
      ],
      "min": [
        -0.9999117851257324,
        -0.9999999403953552,
        -0.9998732805252075
      ],
      "type": "VEC3"
    },
    {
      "bufferView": 3,
      "componentType": 5126,
      "count": 10587,
      "max": [
        1.0,
        0.9999494552612305,
        0.9995993971824646,
        1.0
      ],
      "min": [
        -0.999945342540741,
        -0.9783660769462585,
        -0.9999907612800598,
        1.0
      ],
      "type": "VEC4"
    },
    {
      "bufferView": 1,
      "componentType": 5126,
      "count": 10587,
      "max": [
        0.9877510070800781,
        0.9876333475112915
      ],
      "min": [
        0.02686724066734314,
        0.013698756694793701
      ],
      "type": "VEC2"
    },
    {
      "bufferView": 0,
      "componentType": 5125,
      "count": 61296,
      "type": "SCALAR"
    }
  ],
  "asset": {
    "extras": {
      "author": "CARI'MAM (https://sketchfab.com/CARIMAM)",
      "license": "CC-BY-NC-SA-4.0 (http://creativecommons.org/licenses/by-nc-sa/4.0/)",
      "source": "https://sketchfab.com/3d-models/steno-dolphin-fea516f274854bcab8f29fe3f03d4705",
      "title": "Steno dolphin"
    },
    "generator": "Sketchfab-11.79.0",
    "version": "2.0"
  },
  "bufferViews": [
    {
      "buffer": 0,
      "byteLength": 245184,
      "name": "floatBufferViews",
      "target": 34963
    },
    {
      "buffer": 0,
      "byteLength": 84696,
      "byteOffset": 245184,
      "byteStride": 8,
      "name": "floatBufferViews",
      "target": 34962
    },
    {
      "buffer": 0,
      "byteLength": 254088,
      "byteOffset": 329880,
      "byteStride": 12,
      "name": "floatBufferViews",
      "target": 34962
    },
    {
      "buffer": 0,
      "byteLength": 169392,
      "byteOffset": 583968,
      "byteStride": 16,
      "name": "floatBufferViews",
      "target": 34962
    }
  ],
  "buffers": [
    {
      "byteLength": 753360,
      "uri": "delfin.bin"
    }
  ],
  "images": [
    {
      "uri": "lambert1_baseColor.png"
    },
    {
      "uri": "lambert1_metallicRoughness.png"
    },
    {
      "uri": "lambert1_normal.png"
    }
  ],
  "materials": [
    {
      "doubleSided": true,
      "name": "lambert1",
      "normalTexture": {
        "index": 2,
        "scale": 0.18392094094287395
      },
      "pbrMetallicRoughness": {
        "baseColorTexture": {
          "index": 0
        },
        "metallicFactor": 0.5230807040334987,
        "metallicRoughnessTexture": {
          "index": 1
        },
        "roughnessFactor": 0.403746713316427
      }
    }
  ],
  "meshes": [
    {
      "name": "polySurface1_lambert1_0",
      "primitives": [
        {
          "attributes": {
            "NORMAL": 1,
            "POSITION": 0,
            "TANGENT": 2,
            "TEXCOORD_0": 3
          },
          "indices": 4,
          "material": 0,
          "mode": 4
        }
      ]
    }
  ],
  "nodes": [
    {
      "children": [
        1
      ],
      "matrix": [
        7.220752239227295,
        0.0,
        0.0,
        0.0,
        0.0,
        1.6033290782207599e-15,
        -7.220752239227295,
        0.0,
        0.0,
        7.220752239227295,
        1.6033290782207599e-15,
        0.0,
        0.0,
        0.0,
        0.0,
        1.0
      ],
      "name": "Sketchfab_model"
    },
    {
      "children": [
        2
      ],
      "matrix": [
        0.009999999776482582,
        0.0,
        0.0,
        0.0,
        0.0,
        0.0,
        0.009999999776482582,
        0.0,
        0.0,
        -0.009999999776482582,
        0.0,
        0.0,
        0.0,
        0.0,
        0.0,
        1.0
      ],
      "name": "Steno bredanensis_LODa.fbx"
    },
    {
      "children": [
        3
      ],
      "name": "RootNode"
    },
    {
      "children": [
        4
      ],
      "name": "polySurface1"
    },
    {
      "mesh": 0,
      "name": "polySurface1_lambert1_0"
    }
  ],
  "samplers": [
    {
      "magFilter": 9729,
      "minFilter": 9987,
      "wrapS": 10497,
      "wrapT": 10497
    }
  ],
  "scene": 0,
  "scenes": [
    {
      "name": "Sketchfab_Scene",
      "nodes": [
        0
      ]
    }
  ],
  "textures": [
    {
      "sampler": 0,
      "source": 0
    },
    {
      "sampler": 0,
      "source": 1
    },
    {
      "sampler": 0,
      "source": 2
    }
  ]
}
