{
  "accessors": [
    {
      "bufferView": 2,
      "componentType": 5126,
      "count": 58945,
      "max": [
        1.4980740547180176,
        8.1560020446777344,
        -0.55364298820495605
      ],
      "min": [
        0.33118501305580139,
        7.0730037689208984,
        -2.243351936340332
      ],
      "type": "VEC3"
    },
    {
      "bufferView": 2,
      "byteOffset": 707340,
      "componentType": 5126,
      "count": 58945,
      "max": [
        0.99997437000274658,
        0.99997562170028687,
        0.99999737739562988
      ],
      "min": [
        -0.99998390674591064,
        -0.99999475479125977,
        -0.99997657537460327
      ],
      "type": "VEC3"
    },
    {
      "bufferView": 3,
      "componentType": 5126,
      "count": 58945,
      "max": [
        0.9999966025352478,
        0.99999666213989258,
        0.99999284744262695,
        1
      ],
      "min": [
        -0.99997687339782715,
        -0.99995976686477661,
        -0.99999332427978516,
        -1
      ],
      "type": "VEC4"
    },
    {
      "bufferView": 1,
      "componentType": 5126,
      "count": 58945,
      "max": [
        0.99746602773666382,
        1.0003089904785156
      ],
      "min": [
        -0.00023799999326001853,
        0.0029909999575465918
      ],
      "type": "VEC2"
    },
    {
      "bufferView": 0,
      "componentType": 5125,
      "count": 299997,
      "max": [
        58944
      ],
      "min": [
        0
      ],
      "type": "SCALAR"
    }
  ],
  "asset": {
    "extras": {
      "author": "Ant (https://sketchfab.com/MrRat)",
      "license": "CC-BY-NC-ND-4.0 (http://creativecommons.org/licenses/by-nc-nd/4.0/)",
      "source": "https://sketchfab.com/3d-models/brown-birch-bolete-893d995dbca74a6280016c25c0f043e4",
      "title": "Brown Birch Bolete"
    },
    "generator": "Sketchfab-8.77.2",
    "version": "2.0"
  },
  "bufferViews": [
    {
      "buffer": 0,
      "byteLength": 1199988,
      "byteOffset": 0,
      "name": "floatBufferViews",
      "target": 34963
    },
    {
      "buffer": 0,
      "byteLength": 471560,
      "byteOffset": 1199988,
      "byteStride": 8,
      "name": "floatBufferViews",
      "target": 34962
    },
    {
      "buffer": 0,
      "byteLength": 1414680,
      "byteOffset": 1671548,
      "byteStride": 12,
      "name": "floatBufferViews",
      "target": 34962
    },
    {
      "buffer": 0,
      "byteLength": 943120,
      "byteOffset": 3086228,
      "byteStride": 16,
      "name": "floatBufferViews",
      "target": 34962
    }
  ],
  "buffers": [
    {
      "byteLength": 4029348,
      "uri": "brezovded.bin"
    }
  ],
  "images": [
    {
      "uri": "Scene_-_Root_baseColor.png"
    },
    {
      "uri": "Scene_-_Root_metallicRoughness.png"
    },
    {
      "uri": "Scene_-_Root_normal.png"
    }
  ],
  "materials": [
    {
      "doubleSided": true,
      "emissiveFactor": [
        0,
        0,
        0
      ],
      "name": "Scene_-_Root",
      "normalTexture": {
        "index": 2,
        "scale": 1,
        "texCoord": 0
      },
      "occlusionTexture": {
        "index": 1,
        "strength": 1,
        "texCoord": 0
      },
      "pbrMetallicRoughness": {
        "baseColorFactor": [
          1,
          1,
          1,
          1
        ],
        "baseColorTexture": {
          "index": 0,
          "texCoord": 0
        },
        "metallicFactor": 0,
        "metallicRoughnessTexture": {
          "index": 1,
          "texCoord": 0
        },
        "roughnessFactor": 1
      }
    }
  ],
  "meshes": [
    {
      "primitives": [
        {
          "attributes": {
            "NORMAL": 1,
            "POSITION": 0,
            "TANGENT": 2,
            "TEXCOORD_0": 3
          },
          "indices": 4,
          "material": 0,
          "mode": 4
        }
      ]
    }
  ],
  "nodes": [
    {
      "children": [
        1
      ],
      "name": "RootNode (gltf orientation matrix)",
      "rotation": [
        -0.70710678118654746,
        -0,
        -0,
        0.70710678118654757
      ]
    },
    {
      "children": [
        2
      ],
      "name": "RootNode (model correction matrix)"
    },
    {
      "children": [
        3
      ],
      "name": "BrownBirch Bolete02_100000.OBJ.cleaner.materialmerger.gles"
    },
    {
      "mesh": 0,
      "name": ""
    }
  ],
  "samplers": [
    {
      "magFilter": 9729,
      "minFilter": 9987,
      "wrapS": 10497,
      "wrapT": 10497
    }
  ],
  "scene": 0,
  "scenes": [
    {
      "name": "OSG_Scene",
      "nodes": [
        0
      ]
    }
  ],
  "textures": [
    {
      "sampler": 0,
      "source": 0
    },
    {
      "sampler": 0,
      "source": 1
    },
    {
      "sampler": 0,
      "source": 2
    }
  ]
}

