{
  "accessors": [
    {
      "bufferView": 2,
      "componentType": 5126,
      "count": 65533,
      "max": [
        8.242045402526855,
        5.513544082641602,
        -1.7854210138320923
      ],
      "min": [
        -1.956704020500183,
        -3.125540018081665,
        -9.179880142211914
      ],
      "type": "VEC3"
    },
    {
      "bufferView": 2,
      "byteOffset": 786396,
      "componentType": 5126,
      "count": 65533,
      "max": [
        0.9998539686203003,
        0.9997481107711792,
        0.9999774694442749
      ],
      "min": [
        -0.9998996257781982,
        -0.9997305870056152,
        -0.9999828338623047
      ],
      "type": "VEC3"
    },
    {
      "bufferView": 1,
      "componentType": 5126,
      "count": 65533,
      "max": [
        1.0,
        1.0
      ],
      "min": [
        0.0,
        0.0
      ],
      "type": "VEC2"
    },
    {
      "bufferView": 0,
      "componentType": 5125,
      "count": 86481,
      "type": "SCALAR"
    },
    {
      "bufferView": 2,
      "byteOffset": 1572792,
      "componentType": 5126,
      "count": 62800,
      "max": [
        6.643448829650879,
        5.490830898284912,
        -1.9314149618148804
      ],
      "min": [
        -1.9569580554962158,
        -3.12453293800354,
        -9.21509075164795
      ],
      "type": "VEC3"
    },
    {
      "bufferView": 2,
      "byteOffset": 2326392,
      "componentType": 5126,
      "count": 62800,
      "max": [
        0.999930739402771,
        0.999954342842102,
        0.9998816251754761
      ],
      "min": [
        -0.9999908208847046,
        -0.9999569654464722,
        -0.9999786615371704
      ],
      "type": "VEC3"
    },
    {
      "bufferView": 1,
      "byteOffset": 524264,
      "componentType": 5126,
      "count": 62800,
      "max": [
        1.0,
        1.0
      ],
      "min": [
        0.0,
        0.0
      ],
      "type": "VEC2"
    },
    {
      "bufferView": 0,
      "byteOffset": 345924,
      "componentType": 5125,
      "count": 64179,
      "type": "SCALAR"
    },
    {
      "bufferView": 2,
      "byteOffset": 3079992,
      "componentType": 5126,
      "count": 25272,
      "max": [
        8.349167823791504,
        5.7155070304870605,
        -1.0331929922103882
      ],
      "min": [
        -2.302304983139038,
        -3.2083609104156494,
        -9.545722007751465
      ],
      "type": "VEC3"
    },
    {
      "bufferView": 2,
      "byteOffset": 3383256,
      "componentType": 5126,
      "count": 25272,
      "max": [
        0.9999591112136841,
        0.9997731447219849,
        0.999295711517334
      ],
      "min": [
        -0.9999772310256958,
        -0.9994115829467773,
        -0.9994887113571167
      ],
      "type": "VEC3"
    },
    {
      "bufferView": 1,
      "byteOffset": 1026664,
      "componentType": 5126,
      "count": 25272,
      "max": [
        0.9995009899139404,
        0.9994999766349792
      ],
      "min": [
        0.0005000000237487257,
        0.0005000000237487257
      ],
      "type": "VEC2"
    },
    {
      "bufferView": 0,
      "byteOffset": 602640,
      "componentType": 5125,
      "count": 56862,
      "type": "SCALAR"
    },
    {
      "bufferView": 2,
      "byteOffset": 3686520,
      "componentType": 5126,
      "count": 12764,
      "max": [
        8.126574516296387,
        5.4418864250183105,
        0.005233458708971739
      ],
      "min": [
        -1.6840620040893555,
        -2.8034777641296387,
        -9.07925796508789
      ],
      "type": "VEC3"
    },
    {
      "bufferView": 2,
      "byteOffset": 3839688,
      "componentType": 5126,
      "count": 12764,
      "max": [
        0.9947403073310852,
        0.9865902066230774,
        0.983826220035553
      ],
      "min": [
        -0.9953100085258484,
        -0.9858397245407104,
        -0.9834964275360107
      ],
      "type": "VEC3"
    },
    {
      "bufferView": 1,
      "byteOffset": 1228840,
      "componentType": 5126,
      "count": 12764,
      "max": [
        1.0000001192092896,
        1.0000001192092896
      ],
      "min": [
        0.0,
        0.0
      ],
      "type": "VEC2"
    },
    {
      "bufferView": 0,
      "byteOffset": 830088,
      "componentType": 5125,
      "count": 64614,
      "type": "SCALAR"
    },
    {
      "bufferView": 2,
      "byteOffset": 3992856,
      "componentType": 5126,
      "count": 32319,
      "max": [
        8.18183708190918,
        5.568024158477783,
        -1.0904958248138428
      ],
      "min": [
        -2.0937986373901367,
        -3.0812642574310303,
        -9.395459175109863
      ],
      "type": "VEC3"
    },
    {
      "bufferView": 2,
      "byteOffset": 4380684,
      "componentType": 5126,
      "count": 32319,
      "max": [
        0.9999161958694458,
        0.9981040954589844,
        0.9994744062423706
      ],
      "min": [
        -0.9999487400054932,
        -0.9985988736152649,
        -0.9998846054077148
      ],
      "type": "VEC3"
    },
    {
      "bufferView": 1,
      "byteOffset": 1330952,
      "componentType": 5126,
      "count": 32319,
      "max": [
        1.0000001192092896,
        1.0000001192092896
      ],
      "min": [
        0.0,
        0.0
      ],
      "type": "VEC2"
    },
    {
      "bufferView": 0,
      "byteOffset": 1088544,
      "componentType": 5125,
      "count": 157464,
      "type": "SCALAR"
    }
  ],
  "asset": {
    "extras": {
      "author": "SCADL & Co (https://sketchfab.com/scadl)",
      "license": "CC-BY-4.0 (http://creativecommons.org/licenses/by/4.0/)",
      "source": "https://sketchfab.com/3d-models/mimose-4491ba89fea04516a332621c3c46d525",
      "title": "Mimose"
    },
    "generator": "Sketchfab-11.8.0",
    "version": "2.0"
  },
  "bufferViews": [
    {
      "buffer": 0,
      "byteLength": 1718400,
      "name": "floatBufferViews",
      "target": 34963
    },
    {
      "buffer": 0,
      "byteLength": 1589504,
      "byteOffset": 1718400,
      "byteStride": 8,
      "name": "floatBufferViews",
      "target": 34962
    },
    {
      "buffer": 0,
      "byteLength": 4768512,
      "byteOffset": 3307904,
      "byteStride": 12,
      "name": "floatBufferViews",
      "target": 34962
    }
  ],
  "buffers": [
    {
      "byteLength": 8076416,
      "uri": "mimoza.bin"
    }
  ],
  "images": [
    {
      "uri": "Material__39.002_baseColor.png"
    },
    {
      "uri": "Material__40.002_baseColor.png"
    }
  ],
  "materials": [
    {
      "alphaMode": "BLEND",
      "doubleSided": true,
      "name": "Material__39.002",
      "pbrMetallicRoughness": {
        "baseColorTexture": {
          "index": 0
        },
        "metallicFactor": 0.0,
        "roughnessFactor": 0.894591
      }
    },
    {
      "alphaMode": "BLEND",
      "doubleSided": true,
      "name": "Material__40.002",
      "pbrMetallicRoughness": {
        "baseColorTexture": {
          "index": 1
        },
        "metallicFactor": 0.0,
        "roughnessFactor": 0.894591
      }
    },
    {
      "doubleSided": true,
      "name": "Material__25.002",
      "pbrMetallicRoughness": {
        "baseColorFactor": [
          0.376262,
          0.473532,
          0.0512695,
          1.0
        ],
        "metallicFactor": 0.0,
        "roughnessFactor": 0.894591
      }
    },
    {
      "doubleSided": true,
      "name": "Material__36.002",
      "pbrMetallicRoughness": {
        "baseColorFactor": [
          0.13013600000000003,
          0.24228099999999994,
          0.023153399999999994,
          1.0
        ],
        "metallicFactor": 0.0,
        "roughnessFactor": 0.894591
      }
    }
  ],
  "meshes": [
    {
      "name": "Object_0",
      "primitives": [
        {
          "attributes": {
            "NORMAL": 1,
            "POSITION": 0,
            "TEXCOORD_0": 2
          },
          "indices": 3,
          "material": 0,
          "mode": 4
        }
      ]
    },
    {
      "name": "Object_1",
      "primitives": [
        {
          "attributes": {
            "NORMAL": 5,
            "POSITION": 4,
            "TEXCOORD_0": 6
          },
          "indices": 7,
          "material": 0,
          "mode": 4
        }
      ]
    },
    {
      "name": "Object_2",
      "primitives": [
        {
          "attributes": {
            "NORMAL": 9,
            "POSITION": 8,
            "TEXCOORD_0": 10
          },
          "indices": 11,
          "material": 1,
          "mode": 4
        }
      ]
    },
    {
      "name": "Object_3",
      "primitives": [
        {
          "attributes": {
            "NORMAL": 13,
            "POSITION": 12,
            "TEXCOORD_0": 14
          },
          "indices": 15,
          "material": 2,
          "mode": 4
        }
      ]
    },
    {
      "name": "Object_4",
      "primitives": [
        {
          "attributes": {
            "NORMAL": 17,
            "POSITION": 16,
            "TEXCOORD_0": 18
          },
          "indices": 19,
          "material": 3,
          "mode": 4
        }
      ]
    }
  ],
  "nodes": [
    {
      "children": [
        1
      ],
      "matrix": [
        1.0,
        0.0,
        0.0,
        0.0,
        0.0,
        2.220446049250313e-16,
        -1.0,
        0.0,
        0.0,
        1.0,
        2.220446049250313e-16,
        0.0,
        0.0,
        0.0,
        0.0,
        1.0
      ],
      "name": "Sketchfab_model"
    },
    {
      "children": [
        2
      ],
      "name": "root"
    },
    {
      "children": [
        3,
        7
      ],
      "matrix": [
        1.0,
        0.0,
        0.0,
        0.0,
        0.0,
        2.220446049250313e-16,
        1.0,
        0.0,
        0.0,
        -1.0,
        2.220446049250313e-16,
        0.0,
        0.0,
        0.0,
        0.0,
        1.0
      ],
      "name": "GLTF_SceneRootNode"
    },
    {
      "children": [
        4,
        5,
        6
      ],
      "matrix": [
        0.24318212813673049,
        -3.1073411899118497e-10,
        -0.05798665842149206,
        0.0,
        0.05798665842149117,
        -4.247370871679479e-08,
        0.243182128136727,
        0.0,
        -1.0153893694603289e-08,
        -0.24999999999999642,
        -4.1243313764205425e-08,
        0.0,
        -0.05309091508388519,
        0.056210920214653015,
        0.0,
        1.0
      ],
      "name": "mimose.flower_1"
    },
    {
      "mesh": 0,
      "name": "Object_4"
    },
    {
      "mesh": 1,
      "name": "Object_5"
    },
    {
      "mesh": 2,
      "name": "Object_6"
    },
    {
      "children": [
        8,
        9
      ],
      "matrix": [
        0.24318212813673049,
        -3.1073411899118497e-10,
        -0.05798665842149206,
        0.0,
        0.05798665842149117,
        -4.247370871679479e-08,
        0.243182128136727,
        0.0,
        -1.0153893694603289e-08,
        -0.24999999999999642,
        -4.1243313764205425e-08,
        0.0,
        -0.05309091508388519,
        0.056210920214653015,
        0.0,
        1.0
      ],
      "name": "mimose.brunch_2"
    },
    {
      "mesh": 3,
      "name": "Object_8"
    },
    {
      "mesh": 4,
      "name": "Object_9"
    }
  ],
  "samplers": [
    {
      "magFilter": 9729,
      "minFilter": 9987,
      "wrapS": 10497,
      "wrapT": 10497
    }
  ],
  "scene": 0,
  "scenes": [
    {
      "name": "Sketchfab_Scene",
      "nodes": [
        0
      ]
    }
  ],
  "textures": [
    {
      "sampler": 0,
      "source": 0
    },
    {
      "sampler": 0,
      "source": 1
    }
  ]
}
