{
  "accessors": [
    {
      "bufferView": 2,
      "componentType": 5126,
      "count": 65532,
      "max": [
        4.354063034057617,
        5.218084812164307,
        1.3748719692230225
      ],
      "min": [
        -4.172983169555664,
        -6.136324882507324,
        0.011754999868571758
      ],
      "type": "VEC3"
    },
    {
      "bufferView": 2,
      "byteOffset": 786384,
      "componentType": 5126,
      "count": 65532,
      "max": [
        0.9999991655349731,
        0.9999994039535522,
        0.9999996423721313
      ],
      "min": [
        -0.9999964237213135,
        -0.9999960660934448,
        -1.0
      ],
      "type": "VEC3"
    },
    {
      "bufferView": 3,
      "componentType": 5126,
      "count": 65532,
      "max": [
        0.9999998807907104,
        0.9999858736991882,
        0.9999787211418152,
        1.0
      ],
      "min": [
        -1.0,
        -0.9999998211860657,
        -0.9999954104423523,
        -1.0
      ],
      "type": "VEC4"
    },
    {
      "bufferView": 1,
      "componentType": 5126,
      "count": 65532,
      "max": [
        0.999364972114563,
        0.9999930262565613
      ],
      "min": [
        1.2000000424450263e-05,
        9.999999747378752e-06
      ],
      "type": "VEC2"
    },
    {
      "bufferView": 0,
      "componentType": 5125,
      "count": 355983,
      "type": "SCALAR"
    },
    {
      "bufferView": 2,
      "byteOffset": 1572768,
      "componentType": 5126,
      "count": 65532,
      "max": [
        4.201694011688232,
        1.978255033493042,
        1.5202410221099854
      ],
      "min": [
        -4.048655033111572,
        -6.1359171867370605,
        0.039388999342918396
      ],
      "type": "VEC3"
    },
    {
      "bufferView": 2,
      "byteOffset": 2359152,
      "componentType": 5126,
      "count": 65532,
      "max": [
        0.9999415874481201,
        0.9999964237213135,
        1.0
      ],
      "min": [
        -0.9999995231628418,
        -0.9999992847442627,
        -1.0
      ],
      "type": "VEC3"
    },
    {
      "bufferView": 3,
      "byteOffset": 1048512,
      "componentType": 5126,
      "count": 65532,
      "max": [
        0.9999999403953552,
        0.999970555305481,
        0.9999961853027344,
        1.0
      ],
      "min": [
        -0.9999988675117493,
        -0.9999999403953552,
        -0.9999896883964539,
        -1.0
      ],
      "type": "VEC4"
    },
    {
      "bufferView": 1,
      "byteOffset": 524256,
      "componentType": 5126,
      "count": 65532,
      "max": [
        0.9969300031661987,
        0.9999639987945557
      ],
      "min": [
        0.0003859999997075647,
        1.5999999959603883e-05
      ],
      "type": "VEC2"
    },
    {
      "bufferView": 0,
      "byteOffset": 1423932,
      "componentType": 5125,
      "count": 361887,
      "type": "SCALAR"
    },
    {
      "bufferView": 2,
      "byteOffset": 3145536,
      "componentType": 5126,
      "count": 42306,
      "max": [
        4.3454718589782715,
        4.965875148773193,
        1.3682960271835327
      ],
      "min": [
        -4.1649651527404785,
        -6.169881820678711,
        -0.004641999956220388
      ],
      "type": "VEC3"
    },
    {
      "bufferView": 2,
      "byteOffset": 3653208,
      "componentType": 5126,
      "count": 42306,
      "max": [
        0.9999979734420776,
        0.9999980926513672,
        1.0
      ],
      "min": [
        -0.9999992847442627,
        -0.9999827146530151,
        -1.0
      ],
      "type": "VEC3"
    },
    {
      "bufferView": 3,
      "byteOffset": 2097024,
      "componentType": 5126,
      "count": 42306,
      "max": [
        0.9999990463256836,
        0.9999987483024597,
        0.9999834299087524,
        1.0
      ],
      "min": [
        -0.9999997615814209,
        -0.9999993443489075,
        -0.9999973773956299,
        -1.0
      ],
      "type": "VEC4"
    },
    {
      "bufferView": 1,
      "byteOffset": 1048512,
      "componentType": 5126,
      "count": 42306,
      "max": [
        0.9993789792060852,
        0.9999799728393555
      ],
      "min": [
        0.0005000000237487257,
        0.004443000070750713
      ],
      "type": "VEC2"
    },
    {
      "bufferView": 0,
      "byteOffset": 2871480,
      "componentType": 5125,
      "count": 218574,
      "type": "SCALAR"
    },
    {
      "bufferView": 2,
      "byteOffset": 4160880,
      "componentType": 5126,
      "count": 50,
      "max": [
        1.738914966583252,
        -5.848626136779785,
        0.2143000066280365
      ],
      "min": [
        0.8530399799346924,
        -6.106444835662842,
        0.17430800199508667
      ],
      "type": "VEC3"
    },
    {
      "bufferView": 2,
      "byteOffset": 4161480,
      "componentType": 5126,
      "count": 50,
      "max": [
        0.01970008946955204,
        0.0017000077059492469,
        -0.9998045563697815
      ],
      "min": [
        0.01970008946955204,
        0.0017000077059492469,
        -0.9998045563697815
      ],
      "type": "VEC3"
    },
    {
      "bufferView": 1,
      "byteOffset": 1386960,
      "componentType": 5126,
      "count": 50,
      "max": [
        0.0,
        0.0
      ],
      "min": [
        0.0,
        0.0
      ],
      "type": "VEC2"
    },
    {
      "bufferView": 0,
      "byteOffset": 3745776,
      "componentType": 5125,
      "count": 144,
      "type": "SCALAR"
    }
  ],
  "asset": {
    "extras": {
      "author": "Lassi Kaukonen (https://sketchfab.com/thesidekick)",
      "license": "CC-BY-4.0 (http://creativecommons.org/licenses/by/4.0/)",
      "source": "https://sketchfab.com/3d-models/asus-z170-p-motherboard-b998596cfc4945a0bc7b016005c39321",
      "title": "Asus Z170-P Motherboard"
    },
    "generator": "Sketchfab-12.6.0",
    "version": "2.0"
  },
  "bufferViews": [
    {
      "buffer": 0,
      "byteLength": 3746352,
      "name": "floatBufferViews",
      "target": 34963
    },
    {
      "buffer": 0,
      "byteLength": 1387360,
      "byteOffset": 3746352,
      "byteStride": 8,
      "name": "floatBufferViews",
      "target": 34962
    },
    {
      "buffer": 0,
      "byteLength": 4162080,
      "byteOffset": 5133712,
      "byteStride": 12,
      "name": "floatBufferViews",
      "target": 34962
    },
    {
      "buffer": 0,
      "byteLength": 2773920,
      "byteOffset": 9295792,
      "byteStride": 16,
      "name": "floatBufferViews",
      "target": 34962
    }
  ],
  "buffers": [
    {
      "byteLength": 12069712,
      "uri": "asus.bin"
    }
  ],
  "images": [
    {
      "uri": "Asus_Z170-P_Mobo_baseColor.jpeg"
    },
    {
      "uri": "Asus_Z170-P_Mobo_metallicRoughness.png"
    },
    {
      "uri": "Asus_Z170-P_Mobo_normal.png"
    }
  ],
  "materials": [
    {
      "doubleSided": true,
      "name": "Asus_Z170-P_Mobo",
      "normalTexture": {
        "index": 2
      },
      "occlusionTexture": {
        "index": 1
      },
      "pbrMetallicRoughness": {
        "baseColorTexture": {
          "index": 0
        },
        "metallicRoughnessTexture": {
          "index": 1
        },
        "roughnessFactor": 0.7556882786800517
      }
    },
    {
      "doubleSided": true,
      "name": "Hole",
      "pbrMetallicRoughness": {
        "baseColorFactor": [
          0.00023428673819324945,
          9.306651728981345e-05,
          5.671557390505962e-06,
          1.0
        ],
        "metallicFactor": 0.0
      }
    }
  ],
  "meshes": [
    {
      "name": "Object_0",
      "primitives": [
        {
          "attributes": {
            "NORMAL": 1,
            "POSITION": 0,
            "TANGENT": 2,
            "TEXCOORD_0": 3
          },
          "indices": 4,
          "material": 0,
          "mode": 4
        }
      ]
    },
    {
      "name": "Object_1",
      "primitives": [
        {
          "attributes": {
            "NORMAL": 6,
            "POSITION": 5,
            "TANGENT": 7,
            "TEXCOORD_0": 8
          },
          "indices": 9,
          "material": 0,
          "mode": 4
        }
      ]
    },
    {
      "name": "Object_2",
      "primitives": [
        {
          "attributes": {
            "NORMAL": 11,
            "POSITION": 10,
            "TANGENT": 12,
            "TEXCOORD_0": 13
          },
          "indices": 14,
          "material": 0,
          "mode": 4
        }
      ]
    },
    {
      "name": "Object_3",
      "primitives": [
        {
          "attributes": {
            "NORMAL": 16,
            "POSITION": 15,
            "TEXCOORD_0": 17
          },
          "indices": 18,
          "material": 1,
          "mode": 4
        }
      ]
    }
  ],
  "nodes": [
    {
      "children": [
        1
      ],
      "matrix": [
        1.0,
        0.0,
        0.0,
        0.0,
        0.0,
        2.220446049250313e-16,
        -1.0,
        0.0,
        0.0,
        1.0,
        2.220446049250313e-16,
        0.0,
        0.0,
        0.0,
        0.0,
        1.0
      ],
      "name": "Sketchfab_model"
    },
    {
      "children": [
        2,
        3,
        4,
        5
      ],
      "name": "Asus_Z170-P_Mobo_SF.obj.cleaner.materialmerger.gles"
    },
    {
      "mesh": 0,
      "name": "Object_2"
    },
    {
      "mesh": 1,
      "name": "Object_3"
    },
    {
      "mesh": 2,
      "name": "Object_4"
    },
    {
      "mesh": 3,
      "name": "Object_5"
    }
  ],
  "samplers": [
    {
      "magFilter": 9729,
      "minFilter": 9987,
      "wrapS": 10497,
      "wrapT": 10497
    }
  ],
  "scene": 0,
  "scenes": [
    {
      "name": "Sketchfab_Scene",
      "nodes": [
        0
      ]
    }
  ],
  "textures": [
    {
      "sampler": 0,
      "source": 0
    },
    {
      "sampler": 0,
      "source": 1
    },
    {
      "sampler": 0,
      "source": 2
    }
  ]
}
