{
  "accessors": [
    {
      "bufferView": 2,
      "componentType": 5126,
      "count": 4232,
      "max": [
        1.2497340440750122,
        1.1438640356063843,
        -0.35495799779891968
      ],
      "min": [
        -2.9141409397125244,
        -1.0785119533538818,
        -0.3899179995059967
      ],
      "type": "VEC3"
    },
    {
      "bufferView": 2,
      "byteOffset": 50784,
      "componentType": 5126,
      "count": 4232,
      "max": [
        1,
        0.0025999913923442364,
        1
      ],
      "min": [
        -9.9999997473787516e-05,
        -0.00019999999494757503,
        -1
      ],
      "type": "VEC3"
    },
    {
      "bufferView": 1,
      "componentType": 5126,
      "count": 4232,
      "max": [
        0.62682199478149414,
        0.35651600360870361
      ],
      "min": [
        0.62621700763702393,
        0.35590499639511108
      ],
      "type": "VEC2"
    },
    {
      "bufferView": 0,
      "componentType": 5125,
      "count": 12321,
      "max": [
        4231
      ],
      "min": [
        0
      ],
      "type": "SCALAR"
    },
    {
      "bufferView": 2,
      "byteOffset": 101568,
      "componentType": 5126,
      "count": 18513,
      "max": [
        3.2357211112976074,
        3.594933032989502,
        0.38666900992393494
      ],
      "min": [
        -3.8532159328460693,
        -3.8750460147857666,
        0.13609400391578674
      ],
      "type": "VEC3"
    },
    {
      "bufferView": 2,
      "byteOffset": 323724,
      "componentType": 5126,
      "count": 18513,
      "max": [
        0,
        0.049897719174623489,
        1
      ],
      "min": [
        0,
        -0.027900299057364464,
        -1
      ],
      "type": "VEC3"
    },
    {
      "bufferView": 1,
      "byteOffset": 33856,
      "componentType": 5126,
      "count": 18513,
      "max": [
        0.87660002708435059,
        0.37347498536109924
      ],
      "min": [
        0.8765220046043396,
        0.37339699268341064
      ],
      "type": "VEC2"
    },
    {
      "bufferView": 0,
      "byteOffset": 49284,
      "componentType": 5125,
      "count": 49974,
      "max": [
        18512
      ],
      "min": [
        0
      ],
      "type": "SCALAR"
    },
    {
      "bufferView": 2,
      "byteOffset": 545880,
      "componentType": 5126,
      "count": 5403,
      "max": [
        1.2497340440750122,
        3.0258829593658447,
        0.20747999846935272
      ],
      "min": [
        -3.6286261081695557,
        -2.9644498825073242,
        -0.3899179995059967
      ],
      "type": "VEC3"
    },
    {
      "bufferView": 2,
      "byteOffset": 610716,
      "componentType": 5126,
      "count": 5403,
      "max": [
        1,
        1,
        1
      ],
      "min": [
        -1,
        -1,
        -1
      ],
      "type": "VEC3"
    },
    {
      "bufferView": 1,
      "byteOffset": 181960,
      "componentType": 5126,
      "count": 5403,
      "max": [
        0.62690800428390503,
        0.35659500956535339
      ],
      "min": [
        0.15129899978637695,
        0.11067400127649307
      ],
      "type": "VEC2"
    },
    {
      "bufferView": 0,
      "byteOffset": 249180,
      "componentType": 5125,
      "count": 13326,
      "max": [
        5402
      ],
      "min": [
        0
      ],
      "type": "SCALAR"
    },
    {
      "bufferView": 2,
      "byteOffset": 675552,
      "componentType": 5126,
      "count": 17769,
      "max": [
        3.2357211112976074,
        3.594933032989502,
        0.38666900992393494
      ],
      "min": [
        -3.8532159328460693,
        -3.8750460147857666,
        0.13609400391578674
      ],
      "type": "VEC3"
    },
    {
      "bufferView": 2,
      "byteOffset": 888780,
      "componentType": 5126,
      "count": 17769,
      "max": [
        1,
        1,
        0
      ],
      "min": [
        -1,
        -1,
        0
      ],
      "type": "VEC3"
    },
    {
      "bufferView": 1,
      "byteOffset": 225184,
      "componentType": 5126,
      "count": 17769,
      "max": [
        0.87660300731658936,
        0.3734779953956604
      ],
      "min": [
        0.8765220046043396,
        0.37339699268341064
      ],
      "type": "VEC2"
    },
    {
      "bufferView": 0,
      "byteOffset": 302484,
      "componentType": 5125,
      "count": 50592,
      "max": [
        17768
      ],
      "min": [
        0
      ],
      "type": "SCALAR"
    },
    {
      "bufferView": 2,
      "byteOffset": 1102008,
      "componentType": 5126,
      "count": 882,
      "max": [
        4.1970810890197754,
        2.5093739032745361,
        0.37767699360847473
      ],
      "min": [
        -4.1970810890197754,
        -2.5093750953674316,
        0.12348899990320206
      ],
      "type": "VEC3"
    },
    {
      "bufferView": 2,
      "byteOffset": 1112592,
      "componentType": 5126,
      "count": 882,
      "max": [
        1,
        1,
        1
      ],
      "min": [
        -1,
        -1,
        -1
      ],
      "type": "VEC3"
    },
    {
      "bufferView": 1,
      "byteOffset": 367336,
      "componentType": 5126,
      "count": 882,
      "max": [
        0.12790299952030182,
        0.087278001010417938
      ],
      "min": [
        0.12522199749946594,
        0.084596998989582062
      ],
      "type": "VEC2"
    },
    {
      "bufferView": 0,
      "byteOffset": 504852,
      "componentType": 5125,
      "count": 1662,
      "max": [
        881
      ],
      "min": [
        0
      ],
      "type": "SCALAR"
    },
    {
      "bufferView": 2,
      "byteOffset": 1123176,
      "componentType": 5126,
      "count": 65532,
      "max": [
        4.855712890625,
        4.4912219047546387,
        0.17689900100231171
      ],
      "min": [
        -4.8527750968933105,
        -4.4403858184814453,
        -0.78154700994491577
      ],
      "type": "VEC3"
    },
    {
      "bufferView": 2,
      "byteOffset": 1909560,
      "componentType": 5126,
      "count": 65532,
      "max": [
        1,
        1,
        0.99946063756942749
      ],
      "min": [
        -1,
        -1,
        -1
      ],
      "type": "VEC3"
    },
    {
      "bufferView": 1,
      "byteOffset": 374392,
      "componentType": 5126,
      "count": 65532,
      "max": [
        0.68760198354721069,
        0.37659698724746704
      ],
      "min": [
        0.12496499717235565,
        0.099830001592636108
      ],
      "type": "VEC2"
    },
    {
      "bufferView": 0,
      "byteOffset": 511500,
      "componentType": 5125,
      "count": 102852,
      "max": [
        65531
      ],
      "min": [
        0
      ],
      "type": "SCALAR"
    },
    {
      "bufferView": 2,
      "byteOffset": 2695944,
      "componentType": 5126,
      "count": 65533,
      "max": [
        4.6705517768859863,
        3.9287810325622559,
        0.020248999819159508
      ],
      "min": [
        -4.6673288345336914,
        2.9989650249481201,
        -0.78154700994491577
      ],
      "type": "VEC3"
    },
    {
      "bufferView": 2,
      "byteOffset": 3482340,
      "componentType": 5126,
      "count": 65533,
      "max": [
        0.99519628286361694,
        0.99518656730651855,
        0
      ],
      "min": [
        -0.99518656730651855,
        -0.99518656730651855,
        -0.98656833171844482
      ],
      "type": "VEC3"
    },
    {
      "bufferView": 1,
      "byteOffset": 898648,
      "componentType": 5126,
      "count": 65533,
      "max": [
        0.12503500282764435,
        0.37659698724746704
      ],
      "min": [
        0.12496499717235565,
        0.37652701139450073
      ],
      "type": "VEC2"
    },
    {
      "bufferView": 0,
      "byteOffset": 922908,
      "componentType": 5125,
      "count": 102711,
      "max": [
        65532
      ],
      "min": [
        0
      ],
      "type": "SCALAR"
    },
    {
      "bufferView": 2,
      "byteOffset": 4268736,
      "componentType": 5126,
      "count": 65534,
      "max": [
        4.6705517768859863,
        3.1976449489593506,
        0.020248999819159508
      ],
      "min": [
        -4.6673297882080078,
        1.1711239814758301,
        -0.78154700994491577
      ],
      "type": "VEC3"
    },
    {
      "bufferView": 2,
      "byteOffset": 5055144,
      "componentType": 5126,
      "count": 65534,
      "max": [
        0.99519628286361694,
        0.99518656730651855,
        0
      ],
      "min": [
        -0.99518656730651855,
        -0.99518656730651855,
        -0.98657232522964478
      ],
      "type": "VEC3"
    },
    {
      "bufferView": 1,
      "byteOffset": 1422912,
      "componentType": 5126,
      "count": 65534,
      "max": [
        0.12503500282764435,
        0.37659698724746704
      ],
      "min": [
        0.12496499717235565,
        0.37652701139450073
      ],
      "type": "VEC2"
    },
    {
      "bufferView": 0,
      "byteOffset": 1333752,
      "componentType": 5125,
      "count": 102828,
      "max": [
        65533
      ],
      "min": [
        0
      ],
      "type": "SCALAR"
    },
    {
      "bufferView": 2,
      "byteOffset": 5841552,
      "componentType": 5126,
      "count": 65532,
      "max": [
        4.6705508232116699,
        1.3288099765777588,
        0.020250000059604645
      ],
      "min": [
        -4.6673297882080078,
        -2.8501250743865967,
        -0.78154700994491577
      ],
      "type": "VEC3"
    },
    {
      "bufferView": 2,
      "byteOffset": 6627936,
      "componentType": 5126,
      "count": 65532,
      "max": [
        0.99519628286361694,
        0.99518656730651855,
        0
      ],
      "min": [
        -0.99518656730651855,
        -0.99518656730651855,
        -0.98657232522964478
      ],
      "type": "VEC3"
    },
    {
      "bufferView": 1,
      "byteOffset": 1947184,
      "componentType": 5126,
      "count": 65532,
      "max": [
        0.12503500282764435,
        0.37659800052642822
      ],
      "min": [
        0.12496499717235565,
        0.37652701139450073
      ],
      "type": "VEC2"
    },
    {
      "bufferView": 0,
      "byteOffset": 1745064,
      "componentType": 5125,
      "count": 102522,
      "max": [
        65531
      ],
      "min": [
        0
      ],
      "type": "SCALAR"
    },
    {
      "bufferView": 2,
      "byteOffset": 7414320,
      "componentType": 5126,
      "count": 65532,
      "max": [
        4.6705508232116699,
        -2.6514449119567871,
        0.020250000059604645
      ],
      "min": [
        -4.6673297882080078,
        -3.5812609195709229,
        -0.78154599666595459
      ],
      "type": "VEC3"
    },
    {
      "bufferView": 2,
      "byteOffset": 8200704,
      "componentType": 5126,
      "count": 65532,
      "max": [
        0.99519628286361694,
        0.99519628286361694,
        0
      ],
      "min": [
        -0.99518656730651855,
        -0.99518656730651855,
        -0.98656833171844482
      ],
      "type": "VEC3"
    },
    {
      "bufferView": 1,
      "byteOffset": 2471440,
      "componentType": 5126,
      "count": 65532,
      "max": [
        0.12503500282764435,
        0.37659800052642822
      ],
      "min": [
        0.12496499717235565,
        0.37652701139450073
      ],
      "type": "VEC2"
    },
    {
      "bufferView": 0,
      "byteOffset": 2155152,
      "componentType": 5125,
      "count": 102672,
      "max": [
        65531
      ],
      "min": [
        0
      ],
      "type": "SCALAR"
    },
    {
      "bufferView": 2,
      "byteOffset": 8987088,
      "componentType": 5126,
      "count": 65532,
      "max": [
        4.6705508232116699,
        -3.3825809955596924,
        0.020250000059604645
      ],
      "min": [
        -4.6673297882080078,
        -4.3123979568481445,
        -0.78154599666595459
      ],
      "type": "VEC3"
    },
    {
      "bufferView": 2,
      "byteOffset": 9773472,
      "componentType": 5126,
      "count": 65532,
      "max": [
        0.99519628286361694,
        0.99519628286361694,
        0
      ],
      "min": [
        -0.99518656730651855,
        -0.99519628286361694,
        -0.98657232522964478
      ],
      "type": "VEC3"
    },
    {
      "bufferView": 1,
      "byteOffset": 2995696,
      "componentType": 5126,
      "count": 65532,
      "max": [
        0.12503500282764435,
        0.37659800052642822
      ],
      "min": [
        0.12496499717235565,
        0.37652701139450073
      ],
      "type": "VEC2"
    },
    {
      "bufferView": 0,
      "byteOffset": 2565840,
      "componentType": 5125,
      "count": 102600,
      "max": [
        65531
      ],
      "min": [
        0
      ],
      "type": "SCALAR"
    },
    {
      "bufferView": 2,
      "byteOffset": 10559856,
      "componentType": 5126,
      "count": 65534,
      "max": [
        4.2639889717102051,
        4.1223340034484863,
        0.020250000059604645
      ],
      "min": [
        -4.6673297882080078,
        -4.3123979568481445,
        -0.78154700994491577
      ],
      "type": "VEC3"
    },
    {
      "bufferView": 2,
      "byteOffset": 11346264,
      "componentType": 5126,
      "count": 65534,
      "max": [
        0.99519628286361694,
        0.99518656730651855,
        0
      ],
      "min": [
        -0.99518656730651855,
        -0.99519628286361694,
        -0.98657232522964478
      ],
      "type": "VEC3"
    },
    {
      "bufferView": 1,
      "byteOffset": 3519952,
      "componentType": 5126,
      "count": 65534,
      "max": [
        0.12503500282764435,
        0.37659800052642822
      ],
      "min": [
        0.12496499717235565,
        0.37652701139450073
      ],
      "type": "VEC2"
    },
    {
      "bufferView": 0,
      "byteOffset": 2976240,
      "componentType": 5125,
      "count": 102576,
      "max": [
        65533
      ],
      "min": [
        0
      ],
      "type": "SCALAR"
    },
    {
      "bufferView": 2,
      "byteOffset": 12132672,
      "componentType": 5126,
      "count": 65532,
      "max": [
        4.855712890625,
        4.4912219047546387,
        0.17689900100231171
      ],
      "min": [
        -4.8527750968933105,
        -4.4391188621520996,
        -0.78154700994491577
      ],
      "type": "VEC3"
    },
    {
      "bufferView": 2,
      "byteOffset": 12919056,
      "componentType": 5126,
      "count": 65532,
      "max": [
        0.99518656730651855,
        0.99519628286361694,
        1
      ],
      "min": [
        -0.99518656730651855,
        -0.99519628286361694,
        -1
      ],
      "type": "VEC3"
    },
    {
      "bufferView": 1,
      "byteOffset": 4044224,
      "componentType": 5126,
      "count": 65532,
      "max": [
        0.86882799863815308,
        0.37659800052642822
      ],
      "min": [
        0.12496499717235565,
        0.099830001592636108
      ],
      "type": "VEC2"
    },
    {
      "bufferView": 0,
      "byteOffset": 3386544,
      "componentType": 5125,
      "count": 104928,
      "max": [
        65531
      ],
      "min": [
        0
      ],
      "type": "SCALAR"
    },
    {
      "bufferView": 2,
      "byteOffset": 13705440,
      "componentType": 5126,
      "count": 23090,
      "max": [
        4.6705508232116699,
        4.1223340034484863,
        0.020250000059604645
      ],
      "min": [
        -4.6673297882080078,
        -4.3123979568481445,
        -0.78154700994491577
      ],
      "type": "VEC3"
    },
    {
      "bufferView": 2,
      "byteOffset": 13982520,
      "componentType": 5126,
      "count": 23090,
      "max": [
        0,
        0,
        1
      ],
      "min": [
        0,
        0,
        -1
      ],
      "type": "VEC3"
    },
    {
      "bufferView": 1,
      "byteOffset": 4568480,
      "componentType": 5126,
      "count": 23090,
      "max": [
        0.38129299879074097,
        0.37659800052642822
      ],
      "min": [
        0.12496499717235565,
        0.099830001592636108
      ],
      "type": "VEC2"
    },
    {
      "bufferView": 0,
      "byteOffset": 3806256,
      "componentType": 5125,
      "count": 64944,
      "max": [
        23089
      ],
      "min": [
        0
      ],
      "type": "SCALAR"
    }
  ],
  "asset": {
    "extras": {
      "author": "УкурышMan (https://sketchfab.com/foxplay382)",
      "license": "CC-BY-4.0 (http://creativecommons.org/licenses/by/4.0/)",
      "source": "https://sketchfab.com/3d-models/intel-pentium-pro-socket8-3d66f9cf786e4e55a2f688fdf9d31840",
      "title": "INTEL Pentium Pro Socket8"
    },
    "generator": "Sketchfab-9.30.0",
    "version": "2.0"
  },
  "bufferViews": [
    {
      "buffer": 0,
      "byteLength": 4066032,
      "byteOffset": 0,
      "name": "floatBufferViews",
      "target": 34963
    },
    {
      "buffer": 0,
      "byteLength": 4753200,
      "byteOffset": 4066032,
      "byteStride": 8,
      "name": "floatBufferViews",
      "target": 34962
    },
    {
      "buffer": 0,
      "byteLength": 14259600,
      "byteOffset": 8819232,
      "byteStride": 12,
      "name": "floatBufferViews",
      "target": 34962
    }
  ],
  "buffers": [
    {
      "byteLength": 23078832,
      "uri": "pentium_pro.bin"
    }
  ],
  "images": [
    {
      "uri": "None_baseColor.png"
    }
  ],
  "materials": [
    {
      "doubleSided": true,
      "name": "None",
      "pbrMetallicRoughness": {
        "baseColorFactor": [
          1,
          1,
          1,
          1
        ],
        "baseColorTexture": {
          "index": 0,
          "texCoord": 0
        },
        "metallicFactor": 0,
        "roughnessFactor": 0.59999999999999998
      }
    }
  ],
  "meshes": [
    {
      "primitives": [
        {
          "attributes": {
            "NORMAL": 1,
            "POSITION": 0,
            "TEXCOORD_0": 2
          },
          "indices": 3,
          "material": 0,
          "mode": 4
        }
      ]
    },
    {
      "primitives": [
        {
          "attributes": {
            "NORMAL": 5,
            "POSITION": 4,
            "TEXCOORD_0": 6
          },
          "indices": 7,
          "material": 0,
          "mode": 4
        }
      ]
    },
    {
      "primitives": [
        {
          "attributes": {
            "NORMAL": 9,
            "POSITION": 8,
            "TEXCOORD_0": 10
          },
          "indices": 11,
          "material": 0,
          "mode": 4
        }
      ]
    },
    {
      "primitives": [
        {
          "attributes": {
            "NORMAL": 13,
            "POSITION": 12,
            "TEXCOORD_0": 14
          },
          "indices": 15,
          "material": 0,
          "mode": 4
        }
      ]
    },
    {
      "primitives": [
        {
          "attributes": {
            "NORMAL": 17,
            "POSITION": 16,
            "TEXCOORD_0": 18
          },
          "indices": 19,
          "material": 0,
          "mode": 4
        }
      ]
    },
    {
      "primitives": [
        {
          "attributes": {
            "NORMAL": 21,
            "POSITION": 20,
            "TEXCOORD_0": 22
          },
          "indices": 23,
          "material": 0,
          "mode": 4
        }
      ]
    },
    {
      "primitives": [
        {
          "attributes": {
            "NORMAL": 25,
            "POSITION": 24,
            "TEXCOORD_0": 26
          },
          "indices": 27,
          "material": 0,
          "mode": 4
        }
      ]
    },
    {
      "primitives": [
        {
          "attributes": {
            "NORMAL": 29,
            "POSITION": 28,
            "TEXCOORD_0": 30
          },
          "indices": 31,
          "material": 0,
          "mode": 4
        }
      ]
    },
    {
      "primitives": [
        {
          "attributes": {
            "NORMAL": 33,
            "POSITION": 32,
            "TEXCOORD_0": 34
          },
          "indices": 35,
          "material": 0,
          "mode": 4
        }
      ]
    },
    {
      "primitives": [
        {
          "attributes": {
            "NORMAL": 37,
            "POSITION": 36,
            "TEXCOORD_0": 38
          },
          "indices": 39,
          "material": 0,
          "mode": 4
        }
      ]
    },
    {
      "primitives": [
        {
          "attributes": {
            "NORMAL": 41,
            "POSITION": 40,
            "TEXCOORD_0": 42
          },
          "indices": 43,
          "material": 0,
          "mode": 4
        }
      ]
    },
    {
      "primitives": [
        {
          "attributes": {
            "NORMAL": 45,
            "POSITION": 44,
            "TEXCOORD_0": 46
          },
          "indices": 47,
          "material": 0,
          "mode": 4
        }
      ]
    },
    {
      "primitives": [
        {
          "attributes": {
            "NORMAL": 49,
            "POSITION": 48,
            "TEXCOORD_0": 50
          },
          "indices": 51,
          "material": 0,
          "mode": 4
        }
      ]
    },
    {
      "primitives": [
        {
          "attributes": {
            "NORMAL": 53,
            "POSITION": 52,
            "TEXCOORD_0": 54
          },
          "indices": 55,
          "material": 0,
          "mode": 4
        }
      ]
    }
  ],
  "nodes": [
    {
      "children": [
        1
      ],
      "name": "RootNode (gltf orientation matrix)",
      "rotation": [
        -0.70710678118654746,
        -0,
        -0,
        0.70710678118654757
      ]
    },
    {
      "children": [
        2
      ],
      "name": "RootNode (model correction matrix)"
    },
    {
      "children": [
        3,
        4,
        5,
        6,
        7,
        8,
        9,
        10,
        11,
        12,
        13,
        14,
        15,
        16
      ],
      "name": "Socket8.obj.cleaner.materialmerger.gles"
    },
    {
      "mesh": 0,
      "name": ""
    },
    {
      "mesh": 1,
      "name": ""
    },
    {
      "mesh": 2,
      "name": ""
    },
    {
      "mesh": 3,
      "name": ""
    },
    {
      "mesh": 4,
      "name": ""
    },
    {
      "mesh": 5,
      "name": ""
    },
    {
      "mesh": 6,
      "name": ""
    },
    {
      "mesh": 7,
      "name": ""
    },
    {
      "mesh": 8,
      "name": ""
    },
    {
      "mesh": 9,
      "name": ""
    },
    {
      "mesh": 10,
      "name": ""
    },
    {
      "mesh": 11,
      "name": ""
    },
    {
      "mesh": 12,
      "name": ""
    },
    {
      "mesh": 13,
      "name": ""
    }
  ],
  "samplers": [
    {
      "magFilter": 9729,
      "minFilter": 9987,
      "wrapS": 10497,
      "wrapT": 10497
    }
  ],
  "scene": 0,
  "scenes": [
    {
      "name": "OSG_Scene",
      "nodes": [
        0
      ]
    }
  ],
  "textures": [
    {
      "sampler": 0,
      "source": 0
    }
  ]
}

