{
  "accessors": [
    {
      "bufferView": 1,
      "componentType": 5126,
      "count": 65532,
      "max": [
        140.62387084960938,
        140.35426330566406,
        160.15350341796875
      ],
      "min": [
        -143.75735473632812,
        -198.07772827148438,
        -89.353370666503906
      ],
      "type": "VEC3"
    },
    {
      "bufferView": 1,
      "byteOffset": 786384,
      "componentType": 5126,
      "count": 65532,
      "max": [
        0.99998998641967773,
        0.99997067451477051,
        0.99985802173614502
      ],
      "min": [
        -0.99998438358306885,
        -0.99993413686752319,
        -0.99989444017410278
      ],
      "type": "VEC3"
    },
    {
      "bufferView": 2,
      "componentType": 5126,
      "count": 65532,
      "max": [
        1,
        1,
        1,
        1
      ],
      "min": [
        0.12549020349979401,
        0.0039215688593685627,
        0.0039215688593685627,
        1
      ],
      "type": "VEC4"
    },
    {
      "bufferView": 0,
      "componentType": 5125,
      "count": 340869,
      "max": [
        65531
      ],
      "min": [
        0
      ],
      "type": "SCALAR"
    },
    {
      "bufferView": 1,
      "byteOffset": 1572768,
      "componentType": 5126,
      "count": 65532,
      "max": [
        141.37973022460938,
        192.02400207519531,
        163.0899658203125
      ],
      "min": [
        -141.0819091796875,
        -184.74652099609375,
        -160.16142272949219
      ],
      "type": "VEC3"
    },
    {
      "bufferView": 1,
      "byteOffset": 2359152,
      "componentType": 5126,
      "count": 65532,
      "max": [
        1,
        0.99999761581420898,
        0.99993222951889038
      ],
      "min": [
        -1,
        -0.99999785423278809,
        -0.99999862909317017
      ],
      "type": "VEC3"
    },
    {
      "bufferView": 2,
      "byteOffset": 1048512,
      "componentType": 5126,
      "count": 65532,
      "max": [
        0.99215686321258545,
        0.9843137264251709,
        0.95686274766921997,
        1
      ],
      "min": [
        0.20392157137393951,
        0,
        0,
        1
      ],
      "type": "VEC4"
    },
    {
      "bufferView": 0,
      "byteOffset": 1363476,
      "componentType": 5125,
      "count": 307671,
      "max": [
        65531
      ],
      "min": [
        0
      ],
      "type": "SCALAR"
    },
    {
      "bufferView": 1,
      "byteOffset": 3145536,
      "componentType": 5126,
      "count": 23451,
      "max": [
        70.523773193359375,
        18.838104248046875,
        165.21853637695312
      ],
      "min": [
        -97.844833374023438,
        -176.15751647949219,
        8.8669195175170898
      ],
      "type": "VEC3"
    },
    {
      "bufferView": 1,
      "byteOffset": 3426948,
      "componentType": 5126,
      "count": 23451,
      "max": [
        1,
        0.99997639656066895,
        1
      ],
      "min": [
        -1,
        -1,
        -0.99988186359405518
      ],
      "type": "VEC3"
    },
    {
      "bufferView": 2,
      "byteOffset": 2097024,
      "componentType": 5126,
      "count": 23451,
      "max": [
        0.87450981140136719,
        0.7921568751335144,
        0.73333334922790527,
        1
      ],
      "min": [
        0.22352941334247589,
        0,
        0.0039215688593685627,
        1
      ],
      "type": "VEC4"
    },
    {
      "bufferView": 0,
      "byteOffset": 2594160,
      "componentType": 5125,
      "count": 95211,
      "max": [
        23450
      ],
      "min": [
        0
      ],
      "type": "SCALAR"
    }
  ],
  "asset": {
    "extras": {
      "author": "E-learning University Medical Center Groningen (https://sketchfab.com/eLearningUMCG)",
      "license": "CC-BY-NC-SA-4.0 (http://creativecommons.org/licenses/by-nc-sa/4.0/)",
      "source": "https://sketchfab.com/models/e8e8c6685e82474d8393693fd0646dc7",
      "title": "Cardiac Anatomy: external view"
    },
    "generator": "Sketchfab-3.20.5",
    "version": "2.0"
  },
  "bufferViews": [
    {
      "buffer": 0,
      "byteLength": 2975004,
      "byteOffset": 0,
      "name": "floatBufferViews",
      "target": 34963
    },
    {
      "buffer": 0,
      "byteLength": 3708360,
      "byteOffset": 2975004,
      "byteStride": 12,
      "name": "floatBufferViews",
      "target": 34962
    },
    {
      "buffer": 0,
      "byteLength": 2472240,
      "byteOffset": 6683364,
      "byteStride": 16,
      "name": "floatBufferViews",
      "target": 34962
    }
  ],
  "buffers": [
    {
      "byteLength": 9155604,
      "uri": "srce.bin"
    }
  ],
  "materials": [
    {
      "doubleSided": true,
      "emissiveFactor": [
        0,
        0,
        0
      ],
      "name": "MM634_BP51951_FMA4706_Coronary_sinus835",
      "pbrMetallicRoughness": {
        "baseColorFactor": [
          0.5,
          0.5,
          0.5,
          1
        ],
        "metallicFactor": 0,
        "roughnessFactor": 1
      }
    }
  ],
  "meshes": [
    {
      "name": "MM634_BP51951_FMA4706_Coronary_sinus835_MM634_BP51951_FMA4706_Coronary_sinus835_0",
      "primitives": [
        {
          "attributes": {
            "COLOR_0": 2,
            "NORMAL": 1,
            "POSITION": 0
          },
          "indices": 3,
          "material": 0,
          "mode": 4
        }
      ]
    },
    {
      "name": "MM634_BP51951_FMA4706_Coronary_sinus835_MM634_BP51951_FMA4706_Coronary_sinus835_0",
      "primitives": [
        {
          "attributes": {
            "COLOR_0": 6,
            "NORMAL": 5,
            "POSITION": 4
          },
          "indices": 7,
          "material": 0,
          "mode": 4
        }
      ]
    },
    {
      "name": "MM634_BP51951_FMA4706_Coronary_sinus835_MM634_BP51951_FMA4706_Coronary_sinus835_0",
      "primitives": [
        {
          "attributes": {
            "COLOR_0": 10,
            "NORMAL": 9,
            "POSITION": 8
          },
          "indices": 11,
          "material": 0,
          "mode": 4
        }
      ]
    }
  ],
  "nodes": [
    {
      "children": [
        1
      ],
      "name": "RootNode (gltf orientation matrix)",
      "rotation": [
        -0.70710678118654746,
        -0,
        -0,
        0.70710678118654757
      ]
    },
    {
      "children": [
        2
      ],
      "matrix": [
        1,
        0,
        0,
        0,
        0,
        1,
        0,
        0,
        0,
        0,
        1,
        0,
        15.128150939941406,
        -2.374363899230957,
        -227.507568359375,
        1
      ],
      "name": "RootNode (model correction matrix)"
    },
    {
      "children": [
        3
      ],
      "matrix": [
        1,
        0,
        0,
        0,
        0,
        0,
        1,
        0,
        0,
        -1,
        0,
        0,
        0,
        0,
        0,
        1
      ],
      "name": "6509efaa6ff0404790bc2091491b6b28.fbx"
    },
    {
      "children": [
        4
      ],
      "name": "RootNode"
    },
    {
      "children": [
        5,
        6,
        7
      ],
      "name": "MM634_BP51951_FMA4706_Coronary_sinus835"
    },
    {
      "mesh": 0,
      "name": "MM634_BP51951_FMA4706_Coronary_sinus835_MM634_BP51951_FMA4706_Coronary_sinus835_0"
    },
    {
      "mesh": 1,
      "name": "MM634_BP51951_FMA4706_Coronary_sinus835_MM634_BP51951_FMA4706_Coronary_sinus835_0"
    },
    {
      "mesh": 2,
      "name": "MM634_BP51951_FMA4706_Coronary_sinus835_MM634_BP51951_FMA4706_Coronary_sinus835_0"
    }
  ],
  "scene": 0,
  "scenes": [
    {
      "name": "OSG_Scene",
      "nodes": [
        0
      ]
    }
  ]
}

