{
  "accessors": [
    {
      "bufferView": 2,
      "componentType": 5126,
      "count": 114,
      "max": [
        0.87963640689849854,
        0.82584631443023682,
        0.90281099081039429
      ],
      "min": [
        -0.87424558401107788,
        -0.50083476305007935,
        -0.50685709714889526
      ],
      "type": "VEC3"
    },
    {
      "bufferView": 2,
      "byteOffset": 1368,
      "componentType": 5126,
      "count": 114,
      "max": [
        0.91982370615005493,
        0.99733567237854004,
        0.99565839767456055
      ],
      "min": [
        -0.85941648483276367,
        -0.52725571393966675,
        -0.68387383222579956
      ],
      "type": "VEC3"
    },
    {
      "bufferView": 3,
      "componentType": 5126,
      "count": 114,
      "max": [
        1,
        0.88127481937408447,
        0.93193262815475464,
        1
      ],
      "min": [
        -0.96124106645584106,
        -0.88543170690536499,
        -0.88346296548843384,
        1
      ],
      "type": "VEC4"
    },
    {
      "bufferView": 1,
      "componentType": 5126,
      "count": 114,
      "max": [
        1.0069602727890015,
        1
      ],
      "min": [
        -0.0018152594566345215,
        0
      ],
      "type": "VEC2"
    },
    {
      "bufferView": 0,
      "componentType": 5125,
      "count": 330,
      "max": [
        113
      ],
      "min": [
        0
      ],
      "type": "SCALAR"
    }
  ],
  "asset": {
    "extras": {
      "author": "adam127 (https://sketchfab.com/adam127)",
      "license": "CC-BY-4.0 (http://creativecommons.org/licenses/by/4.0/)",
      "source": "https://sketchfab.com/3d-models/ferns-lowpoly-model-34fffcb1f90d4bb2a3bd362f38abbe80",
      "title": "Ferns lowpoly model"
    },
    "generator": "Sketchfab-5.91.0",
    "version": "2.0"
  },
  "bufferViews": [
    {
      "buffer": 0,
      "byteLength": 1320,
      "byteOffset": 0,
      "name": "floatBufferViews",
      "target": 34963
    },
    {
      "buffer": 0,
      "byteLength": 912,
      "byteOffset": 1320,
      "byteStride": 8,
      "name": "floatBufferViews",
      "target": 34962
    },
    {
      "buffer": 0,
      "byteLength": 2736,
      "byteOffset": 2232,
      "byteStride": 12,
      "name": "floatBufferViews",
      "target": 34962
    },
    {
      "buffer": 0,
      "byteLength": 1824,
      "byteOffset": 4968,
      "byteStride": 16,
      "name": "floatBufferViews",
      "target": 34962
    }
  ],
  "buffers": [
    {
      "byteLength": 6792,
      "uri": "paprat.bin"
    }
  ],
  "extensionsRequired": [
    "KHR_materials_pbrSpecularGlossiness"
  ],
  "extensionsUsed": [
    "KHR_materials_pbrSpecularGlossiness"
  ],
  "images": [
    {
      "uri": "ferns_1_diffuse.png"
    },
    {
      "uri": "ferns_1_normal.png"
    }
  ],
  "materials": [
    {
      "alphaMode": "BLEND",
      "doubleSided": true,
      "extensions": {
        "KHR_materials_pbrSpecularGlossiness": {
          "diffuseFactor": [
            1,
            1,
            1,
            1
          ],
          "diffuseTexture": {
            "index": 0,
            "texCoord": 0
          },
          "glossinessFactor": 0.17854420731707318,
          "specularFactor": [
            0,
            0,
            0
          ]
        }
      },
      "name": "ferns_1",
      "normalTexture": {
        "index": 1,
        "scale": 1,
        "texCoord": 0
      }
    }
  ],
  "meshes": [
    {
      "name": "ferns 1_ferns 1_0",
      "primitives": [
        {
          "attributes": {
            "NORMAL": 1,
            "POSITION": 0,
            "TANGENT": 2,
            "TEXCOORD_0": 3
          },
          "indices": 4,
          "material": 0,
          "mode": 4
        }
      ]
    }
  ],
  "nodes": [
    {
      "children": [
        1
      ],
      "name": "RootNode (gltf orientation matrix)",
      "rotation": [
        -0.70710678118654746,
        -0,
        -0,
        0.70710678118654757
      ]
    },
    {
      "children": [
        2
      ],
      "name": "RootNode (model correction matrix)"
    },
    {
      "children": [
        3
      ],
      "matrix": [
        1,
        0,
        0,
        0,
        0,
        0,
        1,
        0,
        0,
        -1,
        0,
        0,
        0,
        0,
        0,
        1
      ],
      "name": "cc55d41ecb4847679ff16bffdbbd19dc.fbx"
    },
    {
      "children": [
        4,
        6
      ],
      "name": "RootNode"
    },
    {
      "children": [
        5
      ],
      "matrix": [
        25.117217735257622,
        5.8187084933641463e-06,
        373.90775345580812,
        0,
        239.87708075646128,
        287.46701610696203,
        -16.113724532478464,
        0,
        -286.82061036951166,
        240.41769067718457,
        19.26714344943775,
        0,
        6.1295270919799805,
        0,
        21.495237350463867,
        1
      ],
      "name": "ferns 1"
    },
    {
      "mesh": 0,
      "name": "ferns 1_ferns 1_0"
    },
    {
      "children": [
        7
      ],
      "matrix": [
        -57.983941349023091,
        -61.034253008318387,
        -53.969273715231992,
        0,
        -45.084258096689844,
        79.212338033755543,
        -41.143835201608283,
        0,
        67.862156003947518,
        0.47482938264492847,
        -73.447275780339666,
        0,
        649.123779296875,
        772.03533935546875,
        609.43707275390625,
        1
      ],
      "name": "Camera"
    },
    {
      "name": ""
    }
  ],
  "samplers": [
    {
      "magFilter": 9729,
      "minFilter": 9987,
      "wrapS": 10497,
      "wrapT": 10497
    }
  ],
  "scene": 0,
  "scenes": [
    {
      "name": "OSG_Scene",
      "nodes": [
        0
      ]
    }
  ],
  "textures": [
    {
      "sampler": 0,
      "source": 0
    },
    {
      "sampler": 0,
      "source": 1
    }
  ]
}

