{
  "accessors": [
    {
      "bufferView": 2,
      "componentType": 5126,
      "count": 2,
      "max": [0.75025200843811035, 0.62061798572540283, 0.39814099669456482],
      "min": [0.74688702821731567, 0.61982500553131104, 0.39100700616836548],
      "type": "VEC3"
    },
    {
      "bufferView": 1,
      "componentType": 5126,
      "count": 2,
      "max": [0, 0],
      "min": [0, 0],
      "type": "VEC2"
    },
    {
      "bufferView": 0,
      "componentType": 5125,
      "count": 2,
      "max": [1],
      "min": [0],
      "type": "SCALAR"
    },
    {
      "bufferView": 2,
      "byteOffset": 24,
      "componentType": 5126,
      "count": 65532,
      "max": [4.2020859718322754, 3.9860351085662842, 7.3334112167358398],
      "min": [-2.5194859504699707, -2.0723540782928467, -0.058720000088214874],
      "type": "VEC3"
    },
    {
      "bufferView": 2,
      "byteOffset": 786408,
      "componentType": 5126,
      "count": 65532,
      "max": [0.99989128112792969, 0.99992477893829346, 0.99999630451202393],
      "min": [-0.99993228912353516, -0.99998891353607178, -0.99990034103393555],
      "type": "VEC3"
    },
    {
      "bufferView": 3,
      "componentType": 5126,
      "count": 65532,
      "max": [0.99998140335083008, 0.99998921155929565, 0.99994248151779175, 1],
      "min": [
        -0.99995464086532593, -0.99998056888580322, -0.99998581409454346, -1
      ],
      "type": "VEC4"
    },
    {
      "bufferView": 1,
      "byteOffset": 16,
      "componentType": 5126,
      "count": 65532,
      "max": [0.99999600648880005, 0.9999920129776001],
      "min": [8.2999998994637281e-5, 5.7000001106644049e-5],
      "type": "VEC2"
    },
    {
      "bufferView": 0,
      "byteOffset": 8,
      "componentType": 5125,
      "count": 180444,
      "max": [65531],
      "min": [0],
      "type": "SCALAR"
    },
    {
      "bufferView": 2,
      "byteOffset": 1572792,
      "componentType": 5126,
      "count": 40121,
      "max": [4.2021598815917969, 3.9860908985137939, 7.3334078788757324],
      "min": [-2.5217609405517578, -2.0601179599761963, -0.058720000088214874],
      "type": "VEC3"
    },
    {
      "bufferView": 2,
      "byteOffset": 2054244,
      "componentType": 5126,
      "count": 40121,
      "max": [0.9999314546585083, 0.99999511241912842, 0.99998533725738525],
      "min": [-0.99987095594406128, -0.99999237060546875, -0.99996387958526611],
      "type": "VEC3"
    },
    {
      "bufferView": 3,
      "byteOffset": 1048512,
      "componentType": 5126,
      "count": 40121,
      "max": [0.99995905160903931, 0.99997961521148682, 0.99998581409454346, 1],
      "min": [
        -0.99998992681503296, -0.99998056888580322, -0.99991518259048462, -1
      ],
      "type": "VEC4"
    },
    {
      "bufferView": 1,
      "byteOffset": 524272,
      "componentType": 5126,
      "count": 40121,
      "max": [0.99999898672103882, 0.99999701976776123],
      "min": [0.00025000001187436283, 8.3999999333173037e-5],
      "type": "VEC2"
    },
    {
      "bufferView": 0,
      "byteOffset": 721784,
      "componentType": 5125,
      "count": 105480,
      "max": [40120],
      "min": [0],
      "type": "SCALAR"
    }
  ],
  "asset": {
    "extras": {
      "author": "thesidekick (https://sketchfab.com/thesidekick)",
      "license": "CC-BY-4.0 (http://creativecommons.org/licenses/by/4.0/)",
      "source": "https://sketchfab.com/3d-models/anthurium-e6a92c1ddb8941e9b8aa92dc1f0f3c18",
      "title": "Anthurium"
    },
    "generator": "Sketchfab-7.88.0",
    "version": "2.0"
  },
  "bufferViews": [
    {
      "buffer": 0,
      "byteLength": 1143704,
      "byteOffset": 0,
      "name": "floatBufferViews",
      "target": 34963
    },
    {
      "buffer": 0,
      "byteLength": 845240,
      "byteOffset": 1143704,
      "byteStride": 8,
      "name": "floatBufferViews",
      "target": 34962
    },
    {
      "buffer": 0,
      "byteLength": 2535696,
      "byteOffset": 1988944,
      "byteStride": 12,
      "name": "floatBufferViews",
      "target": 34962
    },
    {
      "buffer": 0,
      "byteLength": 1690448,
      "byteOffset": 4524640,
      "byteStride": 16,
      "name": "floatBufferViews",
      "target": 34962
    }
  ],
  "buffers": [
    {
      "byteLength": 6215088,
      "uri": "anturijum.bin"
    }
  ],
  "images": [
    {
      "uri": "Anthurium_final_baseColor.jpg"
    },
    {
      "uri": "Anthurium_final_metallicRoughness.png"
    },
    {
      "uri": "Anthurium_final_normal.png"
    }
  ],
  "materials": [
    {
      "doubleSided": true,
      "emissiveFactor": [
        0.44128787878787878, 0.44128787878787878, 0.44128787878787878
      ],
      "emissiveTexture": {
        "index": 0,
        "texCoord": 0
      },
      "name": "Anthurium_final",
      "normalTexture": {
        "index": 2,
        "scale": 0.58958333333333335,
        "texCoord": 0
      },
      "occlusionTexture": {
        "index": 1,
        "strength": 1,
        "texCoord": 0
      },
      "pbrMetallicRoughness": {
        "baseColorFactor": [1, 1, 1, 1],
        "baseColorTexture": {
          "index": 0,
          "texCoord": 0
        },
        "metallicFactor": 0,
        "metallicRoughnessTexture": {
          "index": 1,
          "texCoord": 0
        },
        "roughnessFactor": 0.65625
      }
    }
  ],
  "meshes": [
    {
      "primitives": [
        {
          "attributes": {
            "POSITION": 0,
            "TEXCOORD_0": 1
          },
          "indices": 2,
          "material": 0,
          "mode": 1
        }
      ]
    },
    {
      "primitives": [
        {
          "attributes": {
            "NORMAL": 4,
            "POSITION": 3,
            "TANGENT": 5,
            "TEXCOORD_0": 6
          },
          "indices": 7,
          "material": 0,
          "mode": 4
        }
      ]
    },
    {
      "primitives": [
        {
          "attributes": {
            "NORMAL": 9,
            "POSITION": 8,
            "TANGENT": 10,
            "TEXCOORD_0": 11
          },
          "indices": 12,
          "material": 0,
          "mode": 4
        }
      ]
    }
  ],
  "nodes": [
    {
      "children": [1],
      "name": "RootNode (gltf orientation matrix)",
      "rotation": [-0.70710678118654746, -0, -0, 0.70710678118654757]
    },
    {
      "children": [2],
      "name": "RootNode (model correction matrix)"
    },
    {
      "children": [3, 4, 5],
      "name": "Anthurium_final_SF.obj.cleaner.materialmerger.gles"
    },
    {
      "mesh": 0,
      "name": ""
    },
    {
      "mesh": 1,
      "name": ""
    },
    {
      "mesh": 2,
      "name": ""
    }
  ],
  "samplers": [
    {
      "magFilter": 9729,
      "minFilter": 9987,
      "wrapS": 10497,
      "wrapT": 10497
    }
  ],
  "scene": 0,
  "scenes": [
    {
      "name": "OSG_Scene",
      "nodes": [0]
    }
  ],
  "textures": [
    {
      "sampler": 0,
      "source": 0
    },
    {
      "sampler": 0,
      "source": 1
    },
    {
      "sampler": 0,
      "source": 2
    }
  ]
}
