{
  "accessors": [
    {
      "bufferView": 2,
      "componentType": 5126,
      "count": 21214,
      "max": [0.14689147472381592, 0.086213827133178711, 0.089114800095558167],
      "min": [0, 0, 0],
      "type": "VEC3"
    },
    {
      "bufferView": 2,
      "byteOffset": 254568,
      "componentType": 5126,
      "count": 21214,
      "max": [0.9973263144493103, 0.99991053342819214, 0.99999743700027466],
      "min": [-0.99975156784057617, -0.99992114305496216, -0.99964475631713867],
      "type": "VEC3"
    },
    {
      "bufferView": 3,
      "componentType": 5126,
      "count": 21214,
      "max": [
        0.99866998195648193, 0.99893027544021606, 0.99983048439025879, -1
      ],
      "min": [
        -0.93702596426010132, -0.99507224559783936, -0.99402743577957153, -1
      ],
      "type": "VEC4"
    },
    {
      "bufferView": 1,
      "componentType": 5126,
      "count": 21214,
      "max": [0.99842166900634766, 0.99842166900634766],
      "min": [0.0015783271519467235, 0.0074713826179504395],
      "type": "VEC2"
    },
    {
      "bufferView": 0,
      "componentType": 5125,
      "count": 115464,
      "max": [21213],
      "min": [0],
      "type": "SCALAR"
    }
  ],
  "asset": {
    "extras": {
      "author": "ScienceLifeNY (https://sketchfab.com/ScienceLifeNY)",
      "license": "CC-BY-4.0 (http://creativecommons.org/licenses/by/4.0/)",
      "source": "https://sketchfab.com/models/365058448acc40cbb235301c7d723d09",
      "title": "Cirrhosis from Hep C liver"
    },
    "generator": "Sketchfab-3.18.7",
    "version": "2.0"
  },
  "bufferViews": [
    {
      "buffer": 0,
      "byteLength": 461856,
      "byteOffset": 0,
      "name": "floatBufferViews",
      "target": 34963
    },
    {
      "buffer": 0,
      "byteLength": 169712,
      "byteOffset": 461856,
      "byteStride": 8,
      "name": "floatBufferViews",
      "target": 34962
    },
    {
      "buffer": 0,
      "byteLength": 509136,
      "byteOffset": 631568,
      "byteStride": 12,
      "name": "floatBufferViews",
      "target": 34962
    },
    {
      "buffer": 0,
      "byteLength": 339424,
      "byteOffset": 1140704,
      "byteStride": 16,
      "name": "floatBufferViews",
      "target": 34962
    }
  ],
  "buffers": [
    {
      "byteLength": 1480128,
      "uri": "ciroznajetra.bin"
    }
  ],
  "extensionsUsed": ["KHR_materials_unlit"],
  "images": [
    {
      "uri": "material_0_baseColor.jpg"
    }
  ],
  "materials": [
    {
      "doubleSided": true,
      "emissiveFactor": [0, 0, 0],
      "extensions": {
        "KHR_materials_unlit": {}
      },
      "name": "material_0",
      "pbrMetallicRoughness": {
        "baseColorFactor": [1, 1, 1, 1],
        "baseColorTexture": {
          "index": 0,
          "texCoord": 0
        },
        "metallicFactor": 0,
        "roughnessFactor": 1
      }
    }
  ],
  "meshes": [
    {
      "primitives": [
        {
          "attributes": {
            "NORMAL": 1,
            "POSITION": 0,
            "TANGENT": 2,
            "TEXCOORD_0": 3
          },
          "indices": 4,
          "material": 0,
          "mode": 4
        }
      ]
    }
  ],
  "nodes": [
    {
      "children": [1],
      "name": "RootNode (gltf orientation matrix)",
      "rotation": [-0.70710678118654746, -0, -0, 0.70710678118654757]
    },
    {
      "children": [2],
      "name": "RootNode (model correction matrix)"
    },
    {
      "children": [3],
      "matrix": [
        1, 0, 0, 0, 0, 1, 0, 0, 0, 0, 1, 0, -0.077159106731414795,
        -0.040520071983337402, -0.048578500747680664, 1
      ],
      "name": "model_mesh.obj.cleaner.gles"
    },
    {
      "children": [4],
      "name": ""
    },
    {
      "mesh": 0,
      "name": ""
    }
  ],
  "samplers": [
    {
      "magFilter": 9729,
      "minFilter": 9987,
      "wrapS": 10497,
      "wrapT": 10497
    }
  ],
  "scene": 0,
  "scenes": [
    {
      "name": "OSG_Scene",
      "nodes": [0]
    }
  ],
  "textures": [
    {
      "sampler": 0,
      "source": 0
    }
  ]
}
