{
  "accessors": [
    {
      "bufferView": 1,
      "componentType": 5126,
      "count": 2952,
      "max": [
        6.4198498725891113,
        1.7235599756240845,
        1.6547800302505493
      ],
      "min": [
        -4.7865400314331055,
        -1.7934399843215942,
        -1.8367799520492554
      ],
      "type": "VEC3"
    },
    {
      "bufferView": 1,
      "byteOffset": 35424,
      "componentType": 5126,
      "count": 2952,
      "max": [
        0.99998253583908081,
        0.99997228384017944,
        1
      ],
      "min": [
        -1,
        -0.99997228384017944,
        -1
      ],
      "type": "VEC3"
    },
    {
      "bufferView": 0,
      "componentType": 5125,
      "count": 17700,
      "max": [
        2951
      ],
      "min": [
        0
      ],
      "type": "SCALAR"
    },
    {
      "bufferView": 1,
      "byteOffset": 70848,
      "componentType": 5126,
      "count": 11904,
      "max": [
        1.3202199935913086,
        0.85281002521514893,
        1.1600600481033325
      ],
      "min": [
        -0.22448000311851501,
        -0.91298002004623413,
        -2.0100901126861572
      ],
      "type": "VEC3"
    },
    {
      "bufferView": 1,
      "byteOffset": 213696,
      "componentType": 5126,
      "count": 11904,
      "max": [
        0.99991917610168457,
        0.99986463785171509,
        0.93842428922653198
      ],
      "min": [
        -0.99998956918716431,
        -0.99993407726287842,
        -0.97235190868377686
      ],
      "type": "VEC3"
    },
    {
      "bufferView": 0,
      "byteOffset": 70800,
      "componentType": 5125,
      "count": 36864,
      "max": [
        11903
      ],
      "min": [
        0
      ],
      "type": "SCALAR"
    },
    {
      "bufferView": 1,
      "byteOffset": 356544,
      "componentType": 5126,
      "count": 240,
      "max": [
        1.4040199518203735,
        0.97807002067565918,
        0.79189002513885498
      ],
      "min": [
        -1.7027499675750732,
        -0.97531002759933472,
        -0.21317000687122345
      ],
      "type": "VEC3"
    },
    {
      "bufferView": 1,
      "byteOffset": 359424,
      "componentType": 5126,
      "count": 240,
      "max": [
        0.98149216175079346,
        0.86653691530227661,
        0.98947399854660034
      ],
      "min": [
        -0.98245483636856079,
        -0.86654561758041382,
        -0.98121017217636108
      ],
      "type": "VEC3"
    },
    {
      "bufferView": 0,
      "byteOffset": 218256,
      "componentType": 5125,
      "count": 1440,
      "max": [
        239
      ],
      "min": [
        0
      ],
      "type": "SCALAR"
    },
    {
      "bufferView": 1,
      "byteOffset": 362304,
      "componentType": 5126,
      "count": 240,
      "max": [
        1.4040199518203735,
        0.97982001304626465,
        1.0306700468063354
      ],
      "min": [
        -1.7104699611663818,
        -0.97531002759933472,
        -0.24942000210285187
      ],
      "type": "VEC3"
    },
    {
      "bufferView": 1,
      "byteOffset": 365184,
      "componentType": 5126,
      "count": 240,
      "max": [
        0.98120194673538208,
        0.87709468603134155,
        0.99963784217834473
      ],
      "min": [
        -0.98204261064529419,
        -0.86967253684997559,
        -0.99281728267669678
      ],
      "type": "VEC3"
    },
    {
      "bufferView": 0,
      "byteOffset": 224016,
      "componentType": 5125,
      "count": 1440,
      "max": [
        239
      ],
      "min": [
        0
      ],
      "type": "SCALAR"
    },
    {
      "bufferView": 1,
      "byteOffset": 368064,
      "componentType": 5126,
      "count": 464,
      "max": [
        1,
        1.92153000831604,
        4.7626900672912598
      ],
      "min": [
        -56.201171875,
        -32.298698425292969,
        -5.5741901397705078
      ],
      "type": "VEC3"
    },
    {
      "bufferView": 1,
      "byteOffset": 373632,
      "componentType": 5126,
      "count": 464,
      "max": [
        1,
        1,
        1
      ],
      "min": [
        -1,
        -1,
        -1
      ],
      "type": "VEC3"
    },
    {
      "bufferView": 0,
      "byteOffset": 229776,
      "componentType": 5125,
      "count": 2688,
      "max": [
        463
      ],
      "min": [
        0
      ],
      "type": "SCALAR"
    }
  ],
  "asset": {
    "extras": {
      "author": "anggelomos (https://sketchfab.com/angelomos)",
      "license": "CC-BY-4.0 (http://creativecommons.org/licenses/by/4.0/)",
      "source": "https://sketchfab.com/3d-models/procariote-cell-3340db5368844569a33adb5920d004c4",
      "title": "Procariote Cell"
    },
    "generator": "Sketchfab-8.7.0",
    "version": "2.0"
  },
  "bufferViews": [
    {
      "buffer": 0,
      "byteLength": 240528,
      "byteOffset": 0,
      "name": "floatBufferViews",
      "target": 34963
    },
    {
      "buffer": 0,
      "byteLength": 379200,
      "byteOffset": 240528,
      "byteStride": 12,
      "name": "floatBufferViews",
      "target": 34962
    }
  ],
  "buffers": [
    {
      "byteLength": 619728,
      "uri": "celija.bin"
    }
  ],
  "extensionsRequired": [
    "KHR_materials_pbrSpecularGlossiness"
  ],
  "extensionsUsed": [
    "KHR_materials_pbrSpecularGlossiness"
  ],
  "materials": [
    {
      "doubleSided": true,
      "emissiveFactor": [
        0,
        0,
        0
      ],
      "extensions": {
        "KHR_materials_pbrSpecularGlossiness": {
          "diffuseFactor": [
            0.017260104251111366,
            0.071498477348603623,
            0.0071967132998344754,
            1
          ],
          "glossinessFactor": 1,
          "specularFactor": [
            0,
            0,
            0
          ]
        }
      },
      "name": "Particles"
    },
    {
      "doubleSided": true,
      "emissiveFactor": [
        0,
        0,
        0
      ],
      "extensions": {
        "KHR_materials_pbrSpecularGlossiness": {
          "diffuseFactor": [
            0.1003969531774646,
            0.60532838499682162,
            0.054425878087077571,
            1
          ],
          "glossinessFactor": 1,
          "specularFactor": [
            0,
            0,
            0
          ]
        }
      },
      "name": "Inner_Layer"
    },
    {
      "doubleSided": true,
      "emissiveFactor": [
        0,
        0,
        0
      ],
      "extensions": {
        "KHR_materials_pbrSpecularGlossiness": {
          "diffuseFactor": [
            0.077111804005311563,
            0.28551803248767532,
            0.031409321491873046,
            1
          ],
          "glossinessFactor": 1,
          "specularFactor": [
            0,
            0,
            0
          ]
        }
      },
      "name": "Outter_Layer"
    },
    {
      "doubleSided": true,
      "emissiveFactor": [
        0,
        0,
        0
      ],
      "extensions": {
        "KHR_materials_pbrSpecularGlossiness": {
          "diffuseFactor": [
            0.52597470952018421,
            0.0076117375111982438,
            0.0076117375111982438,
            1
          ],
          "glossinessFactor": 1,
          "specularFactor": [
            0,
            0,
            0
          ]
        }
      },
      "name": "Center"
    },
    {
      "doubleSided": true,
      "emissiveFactor": [
        0,
        0,
        0
      ],
      "extensions": {
        "KHR_materials_pbrSpecularGlossiness": {
          "diffuseFactor": [
            0.38420488622961524,
            0.67513953954370676,
            0.22306558284033587,
            1
          ],
          "glossinessFactor": 1,
          "specularFactor": [
            0,
            0,
            0
          ]
        }
      },
      "name": "main"
    }
  ],
  "meshes": [
    {
      "name": "main_0",
      "primitives": [
        {
          "attributes": {
            "NORMAL": 1,
            "POSITION": 0
          },
          "indices": 2,
          "material": 4,
          "mode": 4
        }
      ]
    },
    {
      "name": "Center_0",
      "primitives": [
        {
          "attributes": {
            "NORMAL": 4,
            "POSITION": 3
          },
          "indices": 5,
          "material": 3,
          "mode": 4
        }
      ]
    },
    {
      "name": "Outter_Inner_Layer_0",
      "primitives": [
        {
          "attributes": {
            "NORMAL": 7,
            "POSITION": 6
          },
          "indices": 8,
          "material": 2,
          "mode": 4
        }
      ]
    },
    {
      "name": "Inner_Inner_Layer_0",
      "primitives": [
        {
          "attributes": {
            "NORMAL": 10,
            "POSITION": 9
          },
          "indices": 11,
          "material": 1,
          "mode": 4
        }
      ]
    },
    {
      "name": "Particles_0",
      "primitives": [
        {
          "attributes": {
            "NORMAL": 13,
            "POSITION": 12
          },
          "indices": 14,
          "material": 0,
          "mode": 4
        }
      ]
    }
  ],
  "nodes": [
    {
      "children": [
        1
      ],
      "name": "RootNode (gltf orientation matrix)",
      "rotation": [
        -0.70710678118654746,
        -0,
        -0,
        0.70710678118654757
      ]
    },
    {
      "children": [
        2
      ],
      "name": "RootNode (model correction matrix)"
    },
    {
      "children": [
        3,
        5,
        7,
        9,
        11
      ],
      "name": "Root"
    },
    {
      "children": [
        4
      ],
      "name": "main"
    },
    {
      "mesh": 0,
      "name": "main_0"
    },
    {
      "children": [
        6
      ],
      "matrix": [
        0,
        0.55076000000000003,
        0.90412000000000003,
        0,
        0,
        1.01416,
        -0.61779000000000017,
        0,
        -1.2147199999999998,
        0,
        -0,
        0,
        -2.2714499999999997,
        -0.14879000000000003,
        -0.54347000000000001,
        1
      ],
      "name": "Center"
    },
    {
      "mesh": 1,
      "name": "Center_0"
    },
    {
      "children": [
        8
      ],
      "matrix": [
        0.95910000000000006,
        0,
        0,
        0,
        0,
        0.95910000000000006,
        0,
        0,
        0,
        0,
        0.95910000000000006,
        0,
        -2.2841000000000005,
        -0.0013800000000000004,
        0.14319000000000001,
        1
      ],
      "name": "Outter_Inner_Layer"
    },
    {
      "mesh": 2,
      "name": "Outter_Inner_Layer_0"
    },
    {
      "children": [
        10
      ],
      "matrix": [
        0.89720000000000011,
        0,
        0,
        0,
        0,
        0.91818,
        0,
        0,
        0,
        0,
        0.63967000000000018,
        0,
        -2.2171500000000002,
        -0.0013800000000000004,
        0.12459000000000002,
        1
      ],
      "name": "Inner_Inner_Layer"
    },
    {
      "mesh": 3,
      "name": "Inner_Inner_Layer_0"
    },
    {
      "children": [
        12
      ],
      "matrix": [
        0.040080000000000005,
        0,
        0,
        0,
        0,
        0.040080000000000005,
        0,
        0,
        0,
        0,
        0.040080000000000005,
        0,
        -1.0293599999999998,
        0.59717000000000009,
        0.21108000000000002,
        1
      ],
      "name": "Particles"
    },
    {
      "mesh": 4,
      "name": "Particles_0"
    }
  ],
  "scene": 0,
  "scenes": [
    {
      "name": "OSG_Scene",
      "nodes": [
        0
      ]
    }
  ]
}

