{
  "accessors": [
    {
      "bufferView": 1,
      "componentType": 5126,
      "count": 125,
      "max": [
        1,
        0.44999998807907104,
        2
      ],
      "min": [
        -1,
        -1,
        0
      ],
      "type": "VEC3"
    },
    {
      "bufferView": 1,
      "byteOffset": 1500,
      "componentType": 5126,
      "count": 125,
      "max": [
        1,
        1,
        1
      ],
      "min": [
        -1,
        -0.99998915195465088,
        -1
      ],
      "type": "VEC3"
    },
    {
      "bufferView": 0,
      "componentType": 5125,
      "count": 291,
      "max": [
        124
      ],
      "min": [
        0
      ],
      "type": "SCALAR"
    },
    {
      "bufferView": 1,
      "byteOffset": 3000,
      "componentType": 5126,
      "count": 204,
      "max": [
        0.70999997854232788,
        0.13124999403953552,
        0
      ],
      "min": [
        -0.70999997854232788,
        -0.0062500000931322575,
        -6
      ],
      "type": "VEC3"
    },
    {
      "bufferView": 1,
      "byteOffset": 5448,
      "componentType": 5126,
      "count": 204,
      "max": [
        1,
        1,
        1
      ],
      "min": [
        -1,
        -1,
        -1
      ],
      "type": "VEC3"
    },
    {
      "bufferView": 0,
      "byteOffset": 1164,
      "componentType": 5125,
      "count": 378,
      "max": [
        203
      ],
      "min": [
        0
      ],
      "type": "SCALAR"
    }
  ],
  "asset": {
    "extras": {
      "author": "Jiří Kuba (https://sketchfab.com/kuba.jirka)",
      "license": "CC-BY-4.0 (http://creativecommons.org/licenses/by/4.0/)",
      "source": "https://sketchfab.com/models/48788434c3d64468b29fb1cde13650e8",
      "title": "Lowpoly transistor"
    },
    "generator": "Sketchfab-3.18.7",
    "version": "2.0"
  },
  "bufferViews": [
    {
      "buffer": 0,
      "byteLength": 2676,
      "byteOffset": 0,
      "name": "floatBufferViews",
      "target": 34963
    },
    {
      "buffer": 0,
      "byteLength": 7896,
      "byteOffset": 2676,
      "byteStride": 12,
      "name": "floatBufferViews",
      "target": 34962
    }
  ],
  "buffers": [
    {
      "byteLength": 10572,
      "uri": "tranzistor.bin"
    }
  ],
  "materials": [
    {
      "doubleSided": true,
      "emissiveFactor": [
        0,
        0,
        0
      ],
      "name": "TransistorMaterial",
      "pbrMetallicRoughness": {
        "baseColorFactor": [
          0.0077856166602229254,
          0.0077856166602229254,
          0.0077856166602229254,
          1
        ],
        "metallicFactor": 0,
        "roughnessFactor": 0.40000000000000002
      }
    },
    {
      "doubleSided": true,
      "emissiveFactor": [
        0,
        0,
        0
      ],
      "name": "IronMaterial",
      "pbrMetallicRoughness": {
        "baseColorFactor": [
          0.31081256270000002,
          0.31081256270000002,
          0.31081256270000002,
          1
        ],
        "metallicFactor": 0.64805640239999995,
        "roughnessFactor": 0.40000000000000002
      }
    }
  ],
  "meshes": [
    {
      "name": "Transistor_0",
      "primitives": [
        {
          "attributes": {
            "NORMAL": 1,
            "POSITION": 0
          },
          "indices": 2,
          "material": 0,
          "mode": 4
        }
      ]
    },
    {
      "name": "Transistor_1",
      "primitives": [
        {
          "attributes": {
            "NORMAL": 4,
            "POSITION": 3
          },
          "indices": 5,
          "material": 1,
          "mode": 4
        }
      ]
    }
  ],
  "nodes": [
    {
      "children": [
        1
      ],
      "name": "RootNode (gltf orientation matrix)",
      "rotation": [
        -0.70710678118654746,
        -0,
        -0,
        0.70710678118654757
      ]
    },
    {
      "children": [
        2
      ],
      "name": "RootNode (model correction matrix)"
    },
    {
      "children": [
        3
      ],
      "name": "Root"
    },
    {
      "children": [
        4,
        5
      ],
      "name": "Transistor"
    },
    {
      "mesh": 0,
      "name": "Transistor_0"
    },
    {
      "mesh": 1,
      "name": "Transistor_1"
    }
  ],
  "scene": 0,
  "scenes": [
    {
      "name": "OSG_Scene",
      "nodes": [
        0
      ]
    }
  ]
}

