{
  "accessors": [
    {
      "bufferView": 2,
      "componentType": 5126,
      "count": 65532,
      "max": [
        247.674072265625,
        383.01223754882812,
        226.49986267089844
      ],
      "min": [
        -267.93307495117188,
        -616.98779296875,
        -271.2728271484375
      ],
      "type": "VEC3"
    },
    {
      "bufferView": 2,
      "byteOffset": 786384,
      "componentType": 5126,
      "count": 65532,
      "max": [
        0.99999231100082397,
        0.9998888373374939,
        0.99999862909317017
      ],
      "min": [
        -0.99997574090957642,
        -0.99999815225601196,
        -0.99999082088470459
      ],
      "type": "VEC3"
    },
    {
      "bufferView": 3,
      "componentType": 5126,
      "count": 65532,
      "max": [
        0.99999642372131348,
        0.99999946355819702,
        0.99993431568145752,
        1
      ],
      "min": [
        -0.9998658299446106,
        -0.97688847780227661,
        -0.99996495246887207,
        -1
      ],
      "type": "VEC4"
    },
    {
      "bufferView": 1,
      "componentType": 5126,
      "count": 65532,
      "max": [
        0.97304296493530273,
        0.99972003698348999
      ],
      "min": [
        0.0003324327408336103,
        0.00072699785232543945
      ],
      "type": "VEC2"
    },
    {
      "bufferView": 0,
      "componentType": 5125,
      "count": 295311,
      "max": [
        65531
      ],
      "min": [
        0
      ],
      "type": "SCALAR"
    },
    {
      "bufferView": 2,
      "byteOffset": 1572768,
      "componentType": 5126,
      "count": 65532,
      "max": [
        243.82978820800781,
        381.72738647460938,
        226.38946533203125
      ],
      "min": [
        -271.10971069335938,
        -616.663818359375,
        -270.61953735351562
      ],
      "type": "VEC3"
    },
    {
      "bufferView": 2,
      "byteOffset": 2359152,
      "componentType": 5126,
      "count": 65532,
      "max": [
        0.99995803833007812,
        0.9989960789680481,
        0.99997895956039429
      ],
      "min": [
        -0.99999386072158813,
        -0.99999052286148071,
        -0.99997419118881226
      ],
      "type": "VEC3"
    },
    {
      "bufferView": 3,
      "byteOffset": 1048512,
      "componentType": 5126,
      "count": 65532,
      "max": [
        0.99997740983963013,
        0.99999755620956421,
        0.99991220235824585,
        1
      ],
      "min": [
        -0.99996721744537354,
        -0.9731292724609375,
        -0.99980950355529785,
        -1
      ],
      "type": "VEC4"
    },
    {
      "bufferView": 1,
      "byteOffset": 524256,
      "componentType": 5126,
      "count": 65532,
      "max": [
        0.99844092130661011,
        0.99718141555786133
      ],
      "min": [
        0.00041945168050006032,
        0.0056771039962768555
      ],
      "type": "VEC2"
    },
    {
      "bufferView": 0,
      "byteOffset": 1181244,
      "componentType": 5125,
      "count": 286647,
      "max": [
        65531
      ],
      "min": [
        0
      ],
      "type": "SCALAR"
    },
    {
      "bufferView": 2,
      "byteOffset": 3145536,
      "componentType": 5126,
      "count": 65533,
      "max": [
        247.674072265625,
        382.94488525390625,
        222.33271789550781
      ],
      "min": [
        -273.03463745117188,
        -616.98779296875,
        -264.05532836914062
      ],
      "type": "VEC3"
    },
    {
      "bufferView": 2,
      "byteOffset": 3931932,
      "componentType": 5126,
      "count": 65533,
      "max": [
        0.99999433755874634,
        0.99999427795410156,
        0.99995672702789307
      ],
      "min": [
        -0.99997472763061523,
        -0.99996870756149292,
        -0.9999384880065918
      ],
      "type": "VEC3"
    },
    {
      "bufferView": 3,
      "byteOffset": 2097024,
      "componentType": 5126,
      "count": 65533,
      "max": [
        0.99999672174453735,
        0.99999946355819702,
        0.99999940395355225,
        1
      ],
      "min": [
        -0.99999469518661499,
        -0.99199753999710083,
        -0.99999594688415527,
        -1
      ],
      "type": "VEC4"
    },
    {
      "bufferView": 1,
      "byteOffset": 1048512,
      "componentType": 5126,
      "count": 65533,
      "max": [
        0.99558597803115845,
        0.99970912933349609
      ],
      "min": [
        0.00031087928800843656,
        0.00095868110656738281
      ],
      "type": "VEC2"
    },
    {
      "bufferView": 0,
      "byteOffset": 2327832,
      "componentType": 5125,
      "count": 279963,
      "max": [
        65532
      ],
      "min": [
        0
      ],
      "type": "SCALAR"
    },
    {
      "bufferView": 2,
      "byteOffset": 4718328,
      "componentType": 5126,
      "count": 65532,
      "max": [
        246.16015625,
        381.03326416015625,
        224.09214782714844
      ],
      "min": [
        -270.72634887695312,
        -616.9837646484375,
        -271.41299438476562
      ],
      "type": "VEC3"
    },
    {
      "bufferView": 2,
      "byteOffset": 5504712,
      "componentType": 5126,
      "count": 65532,
      "max": [
        0.99998289346694946,
        0.99988347291946411,
        0.99999147653579712
      ],
      "min": [
        -0.99999791383743286,
        -0.99999326467514038,
        -0.99999088048934937
      ],
      "type": "VEC3"
    },
    {
      "bufferView": 3,
      "byteOffset": 3145552,
      "componentType": 5126,
      "count": 65532,
      "max": [
        0.99996638298034668,
        0.99999839067459106,
        0.99999326467514038,
        1
      ],
      "min": [
        -0.99999469518661499,
        -0.99747705459594727,
        -0.99997907876968384,
        -1
      ],
      "type": "VEC4"
    },
    {
      "bufferView": 1,
      "byteOffset": 1572776,
      "componentType": 5126,
      "count": 65532,
      "max": [
        0.99561715126037598,
        0.9997183084487915
      ],
      "min": [
        0.000279532017884776,
        0.00085145235061645508
      ],
      "type": "VEC2"
    },
    {
      "bufferView": 0,
      "byteOffset": 3447684,
      "componentType": 5125,
      "count": 256872,
      "max": [
        65531
      ],
      "min": [
        0
      ],
      "type": "SCALAR"
    },
    {
      "bufferView": 2,
      "byteOffset": 6291096,
      "componentType": 5126,
      "count": 65532,
      "max": [
        247.33940124511719,
        382.81411743164062,
        226.64337158203125
      ],
      "min": [
        -272.1844482421875,
        -616.695556640625,
        -274.16766357421875
      ],
      "type": "VEC3"
    },
    {
      "bufferView": 2,
      "byteOffset": 7077480,
      "componentType": 5126,
      "count": 65532,
      "max": [
        0.99998289346694946,
        0.99953252077102661,
        0.99996298551559448
      ],
      "min": [
        -0.99991744756698608,
        -0.99999707937240601,
        -0.99999082088470459
      ],
      "type": "VEC3"
    },
    {
      "bufferView": 3,
      "byteOffset": 4194064,
      "componentType": 5126,
      "count": 65532,
      "max": [
        0.99999642372131348,
        1,
        0.99992853403091431,
        1
      ],
      "min": [
        -0.99992048740386963,
        -0.99992638826370239,
        -0.99999254941940308,
        -1
      ],
      "type": "VEC4"
    },
    {
      "bufferView": 1,
      "byteOffset": 2097032,
      "componentType": 5126,
      "count": 65532,
      "max": [
        0.99843513965606689,
        0.99971926212310791
      ],
      "min": [
        0.00029728154186159372,
        0.0011339187622070312
      ],
      "type": "VEC2"
    },
    {
      "bufferView": 0,
      "byteOffset": 4475172,
      "componentType": 5125,
      "count": 212868,
      "max": [
        65531
      ],
      "min": [
        0
      ],
      "type": "SCALAR"
    },
    {
      "bufferView": 2,
      "byteOffset": 7863864,
      "componentType": 5126,
      "count": 65533,
      "max": [
        247.33940124511719,
        382.81411743164062,
        226.62945556640625
      ],
      "min": [
        -273.03463745117188,
        -616.64727783203125,
        -274.517333984375
      ],
      "type": "VEC3"
    },
    {
      "bufferView": 2,
      "byteOffset": 8650260,
      "componentType": 5126,
      "count": 65533,
      "max": [
        0.99999433755874634,
        0.99999427795410156,
        0.99994480609893799
      ],
      "min": [
        -0.99998408555984497,
        -0.99992251396179199,
        -0.99997419118881226
      ],
      "type": "VEC3"
    },
    {
      "bufferView": 3,
      "byteOffset": 5242576,
      "componentType": 5126,
      "count": 65533,
      "max": [
        0.99990314245223999,
        0.99999964237213135,
        0.99989324808120728,
        1
      ],
      "min": [
        -0.99996846914291382,
        -0.99982231855392456,
        -0.99999594688415527,
        -1
      ],
      "type": "VEC4"
    },
    {
      "bufferView": 1,
      "byteOffset": 2621288,
      "componentType": 5126,
      "count": 65533,
      "max": [
        0.99842339754104614,
        0.99971991777420044
      ],
      "min": [
        0.00027926525217480958,
        0.00085216760635375977
      ],
      "type": "VEC2"
    },
    {
      "bufferView": 0,
      "byteOffset": 5326644,
      "componentType": 5125,
      "count": 142482,
      "max": [
        65532
      ],
      "min": [
        0
      ],
      "type": "SCALAR"
    },
    {
      "bufferView": 2,
      "byteOffset": 9436656,
      "componentType": 5126,
      "count": 19909,
      "max": [
        246.16015625,
        382.54913330078125,
        226.15536499023438
      ],
      "min": [
        -272.1844482421875,
        -616.677734375,
        -274.18325805664062
      ],
      "type": "VEC3"
    },
    {
      "bufferView": 2,
      "byteOffset": 9675564,
      "componentType": 5126,
      "count": 19909,
      "max": [
        0.99998098611831665,
        0.99978774785995483,
        0.99983251094818115
      ],
      "min": [
        -0.99993133544921875,
        -0.99992918968200684,
        -0.99999082088470459
      ],
      "type": "VEC3"
    },
    {
      "bufferView": 3,
      "byteOffset": 6291104,
      "componentType": 5126,
      "count": 19909,
      "max": [
        0.99999678134918213,
        0.99999839067459106,
        0.99977201223373413,
        1
      ],
      "min": [
        -0.99992829561233521,
        -0.99960291385650635,
        -0.99966186285018921,
        -1
      ],
      "type": "VEC4"
    },
    {
      "bufferView": 1,
      "byteOffset": 3145552,
      "componentType": 5126,
      "count": 19909,
      "max": [
        0.99559938907623291,
        0.99964267015457153
      ],
      "min": [
        0.00031755733652971685,
        0.0010761022567749023
      ],
      "type": "VEC2"
    },
    {
      "bufferView": 0,
      "byteOffset": 5896572,
      "componentType": 5125,
      "count": 25920,
      "max": [
        19908
      ],
      "min": [
        0
      ],
      "type": "SCALAR"
    }
  ],
  "asset": {
    "extras": {
      "author": "samuelnorth (https://sketchfab.com/samnorth)",
      "license": "CC-BY-4.0 (http://creativecommons.org/licenses/by/4.0/)",
      "source": "https://sketchfab.com/3d-models/shaggy-parasol-mushroom-chlorophyllum-rhacodes-251e85668daf45ccb6f14d51c584920b",
      "title": "Shaggy Parasol Mushroom (Chlorophyllum rhacodes)"
    },
    "generator": "Sketchfab-6.42.0",
    "version": "2.0"
  },
  "bufferViews": [
    {
      "buffer": 0,
      "byteLength": 6000252,
      "byteOffset": 0,
      "name": "floatBufferViews",
      "target": 34963
    },
    {
      "buffer": 0,
      "byteLength": 3304824,
      "byteOffset": 6000252,
      "byteStride": 8,
      "name": "floatBufferViews",
      "target": 34962
    },
    {
      "buffer": 0,
      "byteLength": 9914472,
      "byteOffset": 9305076,
      "byteStride": 12,
      "name": "floatBufferViews",
      "target": 34962
    },
    {
      "buffer": 0,
      "byteLength": 6609648,
      "byteOffset": 19219548,
      "byteStride": 16,
      "name": "floatBufferViews",
      "target": 34962
    }
  ],
  "buffers": [
    {
      "byteLength": 25829196,
      "uri": "suncanica.bin"
    }
  ],
  "extensionsUsed": [
    "KHR_materials_unlit"
  ],
  "images": [
    {
      "uri": "Material0_baseColor.jpeg"
    }
  ],
  "materials": [
    {
      "doubleSided": true,
      "emissiveFactor": [
        0,
        0,
        0
      ],
      "extensions": {
        "KHR_materials_unlit": {}
      },
      "name": "Material0",
      "pbrMetallicRoughness": {
        "baseColorFactor": [
          1,
          1,
          1,
          1
        ],
        "baseColorTexture": {
          "index": 0,
          "texCoord": 0
        },
        "metallicFactor": 0,
        "roughnessFactor": 1
      }
    }
  ],
  "meshes": [
    {
      "name": "Stereo textured mesh_Material0_0",
      "primitives": [
        {
          "attributes": {
            "NORMAL": 1,
            "POSITION": 0,
            "TANGENT": 2,
            "TEXCOORD_0": 3
          },
          "indices": 4,
          "material": 0,
          "mode": 4
        }
      ]
    },
    {
      "name": "Stereo textured mesh_Material0_0",
      "primitives": [
        {
          "attributes": {
            "NORMAL": 6,
            "POSITION": 5,
            "TANGENT": 7,
            "TEXCOORD_0": 8
          },
          "indices": 9,
          "material": 0,
          "mode": 4
        }
      ]
    },
    {
      "name": "Stereo textured mesh_Material0_0",
      "primitives": [
        {
          "attributes": {
            "NORMAL": 11,
            "POSITION": 10,
            "TANGENT": 12,
            "TEXCOORD_0": 13
          },
          "indices": 14,
          "material": 0,
          "mode": 4
        }
      ]
    },
    {
      "name": "Stereo textured mesh_Material0_0",
      "primitives": [
        {
          "attributes": {
            "NORMAL": 16,
            "POSITION": 15,
            "TANGENT": 17,
            "TEXCOORD_0": 18
          },
          "indices": 19,
          "material": 0,
          "mode": 4
        }
      ]
    },
    {
      "name": "Stereo textured mesh_Material0_0",
      "primitives": [
        {
          "attributes": {
            "NORMAL": 21,
            "POSITION": 20,
            "TANGENT": 22,
            "TEXCOORD_0": 23
          },
          "indices": 24,
          "material": 0,
          "mode": 4
        }
      ]
    },
    {
      "name": "Stereo textured mesh_Material0_0",
      "primitives": [
        {
          "attributes": {
            "NORMAL": 26,
            "POSITION": 25,
            "TANGENT": 27,
            "TEXCOORD_0": 28
          },
          "indices": 29,
          "material": 0,
          "mode": 4
        }
      ]
    },
    {
      "name": "Stereo textured mesh_Material0_0",
      "primitives": [
        {
          "attributes": {
            "NORMAL": 31,
            "POSITION": 30,
            "TANGENT": 32,
            "TEXCOORD_0": 33
          },
          "indices": 34,
          "material": 0,
          "mode": 4
        }
      ]
    }
  ],
  "nodes": [
    {
      "children": [
        1
      ],
      "name": "RootNode (gltf orientation matrix)",
      "rotation": [
        -0.70710678118654746,
        -0,
        -0,
        0.70710678118654757
      ]
    },
    {
      "children": [
        2
      ],
      "name": "RootNode (model correction matrix)"
    },
    {
      "children": [
        3
      ],
      "matrix": [
        1,
        0,
        0,
        0,
        0,
        0,
        1,
        0,
        0,
        -1,
        0,
        0,
        0,
        0,
        0,
        1
      ],
      "name": "sketchfabTemp.obj.fbx"
    },
    {
      "children": [
        4
      ],
      "name": "RootNode"
    },
    {
      "children": [
        5,
        6,
        7,
        8,
        9,
        10,
        11
      ],
      "name": "Stereo textured mesh"
    },
    {
      "mesh": 0,
      "name": "Stereo textured mesh_Material0_0"
    },
    {
      "mesh": 1,
      "name": "Stereo textured mesh_Material0_0"
    },
    {
      "mesh": 2,
      "name": "Stereo textured mesh_Material0_0"
    },
    {
      "mesh": 3,
      "name": "Stereo textured mesh_Material0_0"
    },
    {
      "mesh": 4,
      "name": "Stereo textured mesh_Material0_0"
    },
    {
      "mesh": 5,
      "name": "Stereo textured mesh_Material0_0"
    },
    {
      "mesh": 6,
      "name": "Stereo textured mesh_Material0_0"
    }
  ],
  "samplers": [
    {
      "magFilter": 9729,
      "minFilter": 9987,
      "wrapS": 10497,
      "wrapT": 10497
    }
  ],
  "scene": 0,
  "scenes": [
    {
      "name": "OSG_Scene",
      "nodes": [
        0
      ]
    }
  ],
  "textures": [
    {
      "sampler": 0,
      "source": 0
    }
  ]
}

