{
  "accessors": [
    {
      "bufferView": 2,
      "componentType": 5126,
      "count": 10068,
      "max": [
        1.5020530223846436,
        1.4517459869384766,
        5.1558361053466797
      ],
      "min": [
        -1.2202789783477783,
        -1.2138839960098267,
        -0.052296999841928482
      ],
      "type": "VEC3"
    },
    {
      "bufferView": 2,
      "byteOffset": 120816,
      "componentType": 5126,
      "count": 10068,
      "max": [
        0.99888592958450317,
        1,
        0.99994158744812012
      ],
      "min": [
        -0.99985826015472412,
        -1,
        -0.99989926815032959
      ],
      "type": "VEC3"
    },
    {
      "bufferView": 1,
      "componentType": 5126,
      "count": 10068,
      "max": [
        1.0168850421905518,
        1
      ],
      "min": [
        0,
        0
      ],
      "type": "VEC2"
    },
    {
      "bufferView": 0,
      "componentType": 5125,
      "count": 15852,
      "max": [
        10067
      ],
      "min": [
        0
      ],
      "type": "SCALAR"
    },
    {
      "bufferView": 2,
      "byteOffset": 241632,
      "componentType": 5126,
      "count": 8188,
      "max": [
        1.5869139432907104,
        1.5421520471572876,
        5.231544017791748
      ],
      "min": [
        -0.98281800746917725,
        -0.94124901294708252,
        2.4743390083312988
      ],
      "type": "VEC3"
    },
    {
      "bufferView": 2,
      "byteOffset": 339888,
      "componentType": 5126,
      "count": 8188,
      "max": [
        0.99832642078399658,
        0.99384450912475586,
        0.99999606609344482
      ],
      "min": [
        -0.99166774749755859,
        -0.99654585123062134,
        -0.27790236473083496
      ],
      "type": "VEC3"
    },
    {
      "bufferView": 1,
      "byteOffset": 80544,
      "componentType": 5126,
      "count": 8188,
      "max": [
        1,
        1
      ],
      "min": [
        0,
        0.0099999997764825821
      ],
      "type": "VEC2"
    },
    {
      "bufferView": 0,
      "byteOffset": 63408,
      "componentType": 5125,
      "count": 15390,
      "max": [
        8187
      ],
      "min": [
        0
      ],
      "type": "SCALAR"
    }
  ],
  "asset": {
    "extras": {
      "author": "Attila Dézsi (https://sketchfab.com/attila.dezsi)",
      "license": "CC-BY-SA-4.0 (http://creativecommons.org/licenses/by-sa/4.0/)",
      "source": "https://sketchfab.com/3d-models/wiesen-piepau-crepis-biennis-d531ad0ae44f4f9a917ebd349682b41f",
      "title": "Wiesen- Piepau (Crepis biennis)"
    },
    "generator": "Sketchfab-8.59.0",
    "version": "2.0"
  },
  "bufferViews": [
    {
      "buffer": 0,
      "byteLength": 124968,
      "byteOffset": 0,
      "name": "floatBufferViews",
      "target": 34963
    },
    {
      "buffer": 0,
      "byteLength": 146048,
      "byteOffset": 124968,
      "byteStride": 8,
      "name": "floatBufferViews",
      "target": 34962
    },
    {
      "buffer": 0,
      "byteLength": 438144,
      "byteOffset": 271016,
      "byteStride": 12,
      "name": "floatBufferViews",
      "target": 34962
    }
  ],
  "buffers": [
    {
      "byteLength": 709160,
      "uri": "dimak.bin"
    }
  ],
  "materials": [
    {
      "doubleSided": true,
      "emissiveFactor": [
        0,
        0,
        0
      ],
      "name": "Veg_Wiesen-Piepau",
      "pbrMetallicRoughness": {
        "baseColorFactor": [
          0.033105000000000002,
          0.17788799999999999,
          0.001518,
          1
        ],
        "metallicFactor": 0,
        "roughnessFactor": 0.80635083268962915
      }
    },
    {
      "doubleSided": true,
      "emissiveFactor": [
        0,
        0,
        0
      ],
      "name": "Veg_Wiesen-Piepau_Blte",
      "pbrMetallicRoughness": {
        "baseColorFactor": [
          0.84687299999999999,
          0.63075700000000001,
          0.0030349999999999999,
          1
        ],
        "metallicFactor": 0,
        "roughnessFactor": 0.80635083268962915
      }
    }
  ],
  "meshes": [
    {
      "primitives": [
        {
          "attributes": {
            "NORMAL": 1,
            "POSITION": 0,
            "TEXCOORD_0": 2
          },
          "indices": 3,
          "material": 0,
          "mode": 4
        }
      ]
    },
    {
      "primitives": [
        {
          "attributes": {
            "NORMAL": 5,
            "POSITION": 4,
            "TEXCOORD_0": 6
          },
          "indices": 7,
          "material": 1,
          "mode": 4
        }
      ]
    }
  ],
  "nodes": [
    {
      "children": [
        1
      ],
      "name": "RootNode (gltf orientation matrix)",
      "rotation": [
        -0.70710678118654746,
        -0,
        -0,
        0.70710678118654757
      ]
    },
    {
      "children": [
        2
      ],
      "name": "RootNode (model correction matrix)"
    },
    {
      "children": [
        3,
        4
      ],
      "name": "Wiesen-Piepau.obj.cleaner.materialmerger.gles"
    },
    {
      "mesh": 0,
      "name": ""
    },
    {
      "mesh": 1,
      "name": ""
    }
  ],
  "scene": 0,
  "scenes": [
    {
      "name": "OSG_Scene",
      "nodes": [
        0
      ]
    }
  ]
}

