{
  "accessors": [
    {
      "bufferView": 2,
      "componentType": 5126,
      "count": 982,
      "max": [
        50.476070404052734,
        50.262668609619141,
        109.03037261962891
      ],
      "min": [
        -52.219799041748047,
        -50.307098388671875,
        83.041175842285156
      ],
      "type": "VEC3"
    },
    {
      "bufferView": 2,
      "byteOffset": 11784,
      "componentType": 5126,
      "count": 982,
      "max": [
        0.99706965684890747,
        0.99806660413742065,
        0.99994760751724243
      ],
      "min": [
        -0.9950835108757019,
        -0.99994510412216187,
        -0.99996370077133179
      ],
      "type": "VEC3"
    },
    {
      "bufferView": 3,
      "componentType": 5126,
      "count": 982,
      "max": [
        0.99999970197677612,
        0.61526143550872803,
        0.99059402942657471,
        1
      ],
      "min": [
        -0.32378652691841125,
        -0.5146140456199646,
        -0.99842119216918945,
        -1
      ],
      "type": "VEC4"
    },
    {
      "bufferView": 1,
      "componentType": 5126,
      "count": 982,
      "max": [
        0.89759880304336548,
        1
      ],
      "min": [
        0,
        0
      ],
      "type": "VEC2"
    },
    {
      "bufferView": 0,
      "componentType": 5125,
      "count": 5664,
      "max": [
        981
      ],
      "min": [
        0
      ],
      "type": "SCALAR"
    },
    {
      "bufferView": 2,
      "byteOffset": 23568,
      "componentType": 5126,
      "count": 1248,
      "max": [
        11.473020553588867,
        12.074397087097168,
        89.016395568847656
      ],
      "min": [
        -13.764609336853027,
        -12.808980941772461,
        -18.456350326538086
      ],
      "type": "VEC3"
    },
    {
      "bufferView": 2,
      "byteOffset": 38544,
      "componentType": 5126,
      "count": 1248,
      "max": [
        0.99936926364898682,
        0.99986207485198975,
        0.97987467050552368
      ],
      "min": [
        -0.99849551916122437,
        -0.99919420480728149,
        -0.99205958843231201
      ],
      "type": "VEC3"
    },
    {
      "bufferView": 3,
      "byteOffset": 15712,
      "componentType": 5126,
      "count": 1248,
      "max": [
        0.99994438886642456,
        0.99998891353607178,
        0.95937633514404297,
        1
      ],
      "min": [
        -0.99991565942764282,
        -0.9998357892036438,
        -0.8783765435218811,
        1
      ],
      "type": "VEC4"
    },
    {
      "bufferView": 1,
      "byteOffset": 7856,
      "componentType": 5126,
      "count": 1248,
      "max": [
        0.98363023996353149,
        0.9802888035774231
      ],
      "min": [
        7.64362706462407e-09,
        0
      ],
      "type": "VEC2"
    },
    {
      "bufferView": 0,
      "byteOffset": 22656,
      "componentType": 5125,
      "count": 6972,
      "max": [
        1247
      ],
      "min": [
        0
      ],
      "type": "SCALAR"
    },
    {
      "bufferView": 2,
      "byteOffset": 53520,
      "componentType": 5126,
      "count": 563,
      "max": [
        21.926513671875,
        21.837953567504883,
        83.243743896484375
      ],
      "min": [
        -21.856067657470703,
        -20.37782096862793,
        66.939750671386719
      ],
      "type": "VEC3"
    },
    {
      "bufferView": 2,
      "byteOffset": 60276,
      "componentType": 5126,
      "count": 563,
      "max": [
        0.99873614311218262,
        0.93976396322250366,
        0.97895199060440063
      ],
      "min": [
        -0.9706379771232605,
        -0.89548927545547485,
        -0.61332076787948608
      ],
      "type": "VEC3"
    },
    {
      "bufferView": 3,
      "byteOffset": 35680,
      "componentType": 5126,
      "count": 563,
      "max": [
        0.99999159574508667,
        0.78256279230117798,
        0.95325279235839844,
        1
      ],
      "min": [
        -0.46561431884765625,
        -0.65859502553939819,
        -0.95000350475311279,
        -1
      ],
      "type": "VEC4"
    },
    {
      "bufferView": 1,
      "byteOffset": 17840,
      "componentType": 5126,
      "count": 563,
      "max": [
        0.25566396117210388,
        0.83738821744918823
      ],
      "min": [
        1.528725412924814e-08,
        0.59244829416275024
      ],
      "type": "VEC2"
    },
    {
      "bufferView": 0,
      "byteOffset": 50544,
      "componentType": 5125,
      "count": 2991,
      "max": [
        562
      ],
      "min": [
        0
      ],
      "type": "SCALAR"
    }
  ],
  "asset": {
    "extras": {
      "author": "Timothy Hsu (https://sketchfab.com/timothyhsu)",
      "license": "CC-BY-4.0 (http://creativecommons.org/licenses/by/4.0/)",
      "source": "https://sketchfab.com/models/d6c3876f091b4de49a38553a177bab0f",
      "title": "Fly Agaric Mushroom"
    },
    "generator": "Sketchfab-3.22.3",
    "version": "2.0"
  },
  "bufferViews": [
    {
      "buffer": 0,
      "byteLength": 62508,
      "byteOffset": 0,
      "name": "floatBufferViews",
      "target": 34963
    },
    {
      "buffer": 0,
      "byteLength": 22344,
      "byteOffset": 62508,
      "byteStride": 8,
      "name": "floatBufferViews",
      "target": 34962
    },
    {
      "buffer": 0,
      "byteLength": 67032,
      "byteOffset": 84852,
      "byteStride": 12,
      "name": "floatBufferViews",
      "target": 34962
    },
    {
      "buffer": 0,
      "byteLength": 44688,
      "byteOffset": 151884,
      "byteStride": 16,
      "name": "floatBufferViews",
      "target": 34962
    }
  ],
  "buffers": [
    {
      "byteLength": 196572,
      "uri": "muhara.bin"
    }
  ],
  "images": [
    {
      "uri": "default_baseColor.png"
    },
    {
      "uri": "default_normal.png"
    },
    {
      "uri": "default_metallicRoughness.png"
    }
  ],
  "materials": [
    {
      "doubleSided": true,
      "name": "default",
      "normalTexture": {
        "index": 1,
        "scale": 1,
        "texCoord": 0
      },
      "pbrMetallicRoughness": {
        "baseColorFactor": [
          1,
          1,
          1,
          1
        ],
        "baseColorTexture": {
          "index": 0,
          "texCoord": 0
        },
        "metallicFactor": 0,
        "metallicRoughnessTexture": {
          "index": 2,
          "texCoord": 0
        },
        "roughnessFactor": 1
      }
    }
  ],
  "meshes": [
    {
      "name": "hood_low_default_0",
      "primitives": [
        {
          "attributes": {
            "NORMAL": 1,
            "POSITION": 0,
            "TANGENT": 2,
            "TEXCOORD_0": 3
          },
          "indices": 4,
          "material": 0,
          "mode": 4
        }
      ]
    },
    {
      "name": "stem_low_default_0",
      "primitives": [
        {
          "attributes": {
            "NORMAL": 6,
            "POSITION": 5,
            "TANGENT": 7,
            "TEXCOORD_0": 8
          },
          "indices": 9,
          "material": 0,
          "mode": 4
        }
      ]
    },
    {
      "name": "annulus_low_default_0",
      "primitives": [
        {
          "attributes": {
            "NORMAL": 11,
            "POSITION": 10,
            "TANGENT": 12,
            "TEXCOORD_0": 13
          },
          "indices": 14,
          "material": 0,
          "mode": 4
        }
      ]
    }
  ],
  "nodes": [
    {
      "children": [
        1
      ],
      "name": "RootNode (gltf orientation matrix)",
      "rotation": [
        -0.70710678118654746,
        -0,
        -0,
        0.70710678118654757
      ]
    },
    {
      "children": [
        2
      ],
      "name": "RootNode (model correction matrix)"
    },
    {
      "children": [
        3
      ],
      "matrix": [
        1,
        0,
        0,
        0,
        0,
        0,
        1,
        0,
        0,
        -1,
        0,
        0,
        0,
        0,
        0,
        1
      ],
      "name": "38bd2ec503fc4388ae6cb1b54c22bc5c.fbx"
    },
    {
      "children": [
        4,
        6,
        8
      ],
      "name": "RootNode"
    },
    {
      "children": [
        5
      ],
      "matrix": [
        1,
        0,
        0,
        0,
        0,
        2.2204460492503131e-16,
        -1,
        0,
        0,
        1,
        2.2204460492503131e-16,
        0,
        0,
        0,
        0,
        1
      ],
      "name": "hood_low"
    },
    {
      "mesh": 0,
      "name": "hood_low_default_0"
    },
    {
      "children": [
        7
      ],
      "matrix": [
        1,
        0,
        0,
        0,
        0,
        2.2204460492503131e-16,
        -1,
        0,
        0,
        1,
        2.2204460492503131e-16,
        0,
        0,
        0,
        0,
        1
      ],
      "name": "stem_low"
    },
    {
      "mesh": 1,
      "name": "stem_low_default_0"
    },
    {
      "children": [
        9
      ],
      "matrix": [
        1,
        0,
        0,
        0,
        0,
        2.2204460492503131e-16,
        -1,
        0,
        0,
        1,
        2.2204460492503131e-16,
        0,
        0,
        0,
        0,
        1
      ],
      "name": "annulus_low"
    },
    {
      "mesh": 2,
      "name": "annulus_low_default_0"
    }
  ],
  "samplers": [
    {
      "magFilter": 9729,
      "minFilter": 9987,
      "wrapS": 10497,
      "wrapT": 10497
    }
  ],
  "scene": 0,
  "scenes": [
    {
      "name": "OSG_Scene",
      "nodes": [
        0
      ]
    }
  ],
  "textures": [
    {
      "sampler": 0,
      "source": 0
    },
    {
      "sampler": 0,
      "source": 1
    },
    {
      "sampler": 0,
      "source": 2
    }
  ]
}

