{
  "accessors": [
    {
      "bufferView": 2,
      "componentType": 5126,
      "count": 65532,
      "max": [147.45700073242188, 44.257801055908203, 202.15199279785156],
      "min": [-133.82000732421875, -70.996299743652344, -246.22500610351562],
      "type": "VEC3"
    },
    {
      "bufferView": 2,
      "byteOffset": 786384,
      "componentType": 5126,
      "count": 65532,
      "max": [0.99992543458938599, 0.99999856948852539, 0.99955368041992188],
      "min": [-0.99999982118606567, -0.99999195337295532, -0.99967211484909058],
      "type": "VEC3"
    },
    {
      "bufferView": 3,
      "componentType": 5126,
      "count": 65532,
      "max": [0.99999910593032837, 0.98936724662780762, 0.99997228384017944, 1],
      "min": [
        -0.99998760223388672, -0.99258863925933838, -0.99995291233062744, -1
      ],
      "type": "VEC4"
    },
    {
      "bufferView": 1,
      "componentType": 5126,
      "count": 65532,
      "max": [0.9982839822769165, 0.99891597032546997],
      "min": [0.00033199999597854912, 0.00025499999173916876],
      "type": "VEC2"
    },
    {
      "bufferView": 0,
      "componentType": 5125,
      "count": 335688,
      "max": [65531],
      "min": [0],
      "type": "SCALAR"
    },
    {
      "bufferView": 2,
      "byteOffset": 1572768,
      "componentType": 5126,
      "count": 65532,
      "max": [113.62200164794922, 43.822101593017578, 202.30799865722656],
      "min": [-143.322998046875, -61.781299591064453, -211.73300170898438],
      "type": "VEC3"
    },
    {
      "bufferView": 2,
      "byteOffset": 2359152,
      "componentType": 5126,
      "count": 65532,
      "max": [0.99964869022369385, 0.9999968409538269, 0.99999666213989258],
      "min": [-0.99999350309371948, -0.99996316432952881, -0.99996334314346313],
      "type": "VEC3"
    },
    {
      "bufferView": 3,
      "byteOffset": 1048512,
      "componentType": 5126,
      "count": 65532,
      "max": [0.99999278783798218, 0.99521589279174805, 0.99999511241912842, 1],
      "min": [
        -0.99999457597732544, -0.9974285364151001, -0.99998897314071655, -1
      ],
      "type": "VEC4"
    },
    {
      "bufferView": 1,
      "byteOffset": 524256,
      "componentType": 5126,
      "count": 65532,
      "max": [0.98578101396560669, 0.99894499778747559],
      "min": [0.0010319999419152737, 0.00024500000290572643],
      "type": "VEC2"
    },
    {
      "bufferView": 0,
      "byteOffset": 1342752,
      "componentType": 5125,
      "count": 289098,
      "max": [65531],
      "min": [0],
      "type": "SCALAR"
    },
    {
      "bufferView": 2,
      "byteOffset": 3145536,
      "componentType": 5126,
      "count": 10299,
      "max": [145.34800720214844, 41.801399230957031, 192.906005859375],
      "min": [-143.322998046875, -52.608001708984375, -190.91900634765625],
      "type": "VEC3"
    },
    {
      "bufferView": 2,
      "byteOffset": 3269124,
      "componentType": 5126,
      "count": 10299,
      "max": [0.99504292011260986, 0.99995970726013184, 0.99937528371810913],
      "min": [-0.99983686208724976, -0.99996793270111084, -0.97684919834136963],
      "type": "VEC3"
    },
    {
      "bufferView": 3,
      "byteOffset": 2097024,
      "componentType": 5126,
      "count": 10299,
      "max": [0.99997413158416748, 0.96496766805648804, 0.99992966651916504, 1],
      "min": [
        -0.99998658895492554, -0.97597986459732056, -0.99989521503448486, -1
      ],
      "type": "VEC4"
    },
    {
      "bufferView": 1,
      "byteOffset": 1048512,
      "componentType": 5126,
      "count": 10299,
      "max": [0.97346699237823486, 0.99886602163314819],
      "min": [0.0010319999419152737, 0.00033099998836405575],
      "type": "VEC2"
    },
    {
      "bufferView": 0,
      "byteOffset": 2499144,
      "componentType": 5125,
      "count": 36060,
      "max": [10298],
      "min": [0],
      "type": "SCALAR"
    },
    {
      "bufferView": 2,
      "byteOffset": 3392712,
      "componentType": 5126,
      "count": 3,
      "max": [129.48399353027344, 16.947900772094727, -46.292098999023438],
      "min": [128.6300048828125, 16.598800659179688, -47.2947998046875],
      "type": "VEC3"
    },
    {
      "bufferView": 2,
      "byteOffset": 3392748,
      "componentType": 5126,
      "count": 3,
      "max": [-0.28201991319656372, 0.94706863164901733, 0.15338136255741119],
      "min": [-0.28201991319656372, 0.94706863164901733, 0.15338136255741119],
      "type": "VEC3"
    },
    {
      "bufferView": 3,
      "byteOffset": 2261808,
      "componentType": 5126,
      "count": 3,
      "max": [0, 0, 0, 1],
      "min": [0, 0, 0, 1],
      "type": "VEC4"
    },
    {
      "bufferView": 0,
      "byteOffset": 2643384,
      "componentType": 5125,
      "count": 3,
      "max": [2],
      "min": [0],
      "type": "SCALAR"
    },
    {
      "bufferView": 2,
      "byteOffset": 3392784,
      "componentType": 5126,
      "count": 7,
      "max": [32.136299133300781, -11.977800369262695, 182.53999328613281],
      "min": [28.631900787353516, -12.819199562072754, 182.28399658203125],
      "type": "VEC3"
    },
    {
      "bufferView": 2,
      "byteOffset": 3392868,
      "componentType": 5126,
      "count": 7,
      "max": [0.20024663209915161, 0.88800126314163208, 0.80422842502593994],
      "min": [-0.22387811541557312, -0.96770304441452026, -0.11588575690984726],
      "type": "VEC3"
    },
    {
      "bufferView": 3,
      "byteOffset": 2261856,
      "componentType": 5126,
      "count": 7,
      "max": [0, 0, 0, 1],
      "min": [0, 0, 0, 1],
      "type": "VEC4"
    },
    {
      "bufferView": 0,
      "byteOffset": 2643396,
      "componentType": 5125,
      "count": 9,
      "max": [6],
      "min": [0],
      "type": "SCALAR"
    },
    {
      "bufferView": 2,
      "byteOffset": 3392952,
      "componentType": 5126,
      "count": 24,
      "max": [114.95099639892578, 7.3308200836181641, 100.28900146484375],
      "min": [112.48899841308594, 6.7308502197265625, 96.343597412109375],
      "type": "VEC3"
    },
    {
      "bufferView": 2,
      "byteOffset": 3393240,
      "componentType": 5126,
      "count": 24,
      "max": [0.91611742973327637, 0.99993622303009033, 0.37778696417808533],
      "min": [-0.54207557439804077, -0.99549180269241333, -0.25604265928268433],
      "type": "VEC3"
    },
    {
      "bufferView": 3,
      "byteOffset": 2261968,
      "componentType": 5126,
      "count": 24,
      "max": [0, 0, 0, 1],
      "min": [0, 0, 0, 1],
      "type": "VEC4"
    },
    {
      "bufferView": 0,
      "byteOffset": 2643432,
      "componentType": 5125,
      "count": 36,
      "max": [23],
      "min": [0],
      "type": "SCALAR"
    },
    {
      "bufferView": 2,
      "byteOffset": 3393528,
      "componentType": 5126,
      "count": 5,
      "max": [13.650600433349609, -27.935300827026367, -158.78900146484375],
      "min": [12.074700355529785, -28.983100891113281, -160.1300048828125],
      "type": "VEC3"
    },
    {
      "bufferView": 2,
      "byteOffset": 3393588,
      "componentType": 5126,
      "count": 5,
      "max": [0.27767246961593628, -0.57204908132553101, 0.8202022910118103],
      "min": [
        -0.0052988450042903423, -0.80660170316696167, 0.52181565761566162
      ],
      "type": "VEC3"
    },
    {
      "bufferView": 3,
      "byteOffset": 2262352,
      "componentType": 5126,
      "count": 5,
      "max": [0, 0, 0, 1],
      "min": [0, 0, 0, 1],
      "type": "VEC4"
    },
    {
      "bufferView": 0,
      "byteOffset": 2643576,
      "componentType": 5125,
      "count": 9,
      "max": [4],
      "min": [0],
      "type": "SCALAR"
    },
    {
      "bufferView": 2,
      "byteOffset": 3393648,
      "componentType": 5126,
      "count": 3,
      "max": [27.031499862670898, -9.170109748840332, -149.06700134277344],
      "min": [26.843399047851562, -9.7234401702880859, -149.41400146484375],
      "type": "VEC3"
    },
    {
      "bufferView": 2,
      "byteOffset": 3393684,
      "componentType": 5126,
      "count": 3,
      "max": [-0.92227691411972046, 0.075835093855857849, 0.37901768088340759],
      "min": [-0.92227691411972046, 0.075835093855857849, 0.37901768088340759],
      "type": "VEC3"
    },
    {
      "bufferView": 3,
      "byteOffset": 2262432,
      "componentType": 5126,
      "count": 3,
      "max": [0, 0, 0, 1],
      "min": [0, 0, 0, 1],
      "type": "VEC4"
    },
    {
      "bufferView": 0,
      "byteOffset": 2643612,
      "componentType": 5125,
      "count": 3,
      "max": [2],
      "min": [0],
      "type": "SCALAR"
    },
    {
      "bufferView": 2,
      "byteOffset": 3393720,
      "componentType": 5126,
      "count": 172,
      "max": [142.71499633789062, 31.668899536132812, 176.47999572753906],
      "min": [-141.83000183105469, -29.648000717163086, -159.30999755859375],
      "type": "VEC3"
    },
    {
      "bufferView": 2,
      "byteOffset": 3395784,
      "componentType": 5126,
      "count": 172,
      "max": [0.94703203439712524, 0.97618621587753296, 0.941672682762146],
      "min": [-0.94410502910614014, -0.95278888940811157, -0.95673650503158569],
      "type": "VEC3"
    },
    {
      "bufferView": 3,
      "byteOffset": 2262480,
      "componentType": 5126,
      "count": 172,
      "max": [0, 0, 0, 1],
      "min": [0, 0, 0, 1],
      "type": "VEC4"
    },
    {
      "bufferView": 0,
      "byteOffset": 2643624,
      "componentType": 5125,
      "count": 234,
      "max": [171],
      "min": [0],
      "type": "SCALAR"
    },
    {
      "bufferView": 2,
      "byteOffset": 3397848,
      "componentType": 5126,
      "count": 4,
      "max": [103.62699890136719, 3.3090500831604004, 121.16000366210938],
      "min": [102.28700256347656, 2.7392699718475342, 120.38999938964844],
      "type": "VEC3"
    },
    {
      "bufferView": 2,
      "byteOffset": 3397896,
      "componentType": 5126,
      "count": 4,
      "max": [0.3702024519443512, 0.91011154651641846, 0.28246879577636719],
      "min": [0.36931750178337097, 0.8853338360786438, 0.18646292388439178],
      "type": "VEC3"
    },
    {
      "bufferView": 3,
      "byteOffset": 2265232,
      "componentType": 5126,
      "count": 4,
      "max": [0, 0, 0, 1],
      "min": [0, 0, 0, 1],
      "type": "VEC4"
    },
    {
      "bufferView": 0,
      "byteOffset": 2644560,
      "componentType": 5125,
      "count": 6,
      "max": [3],
      "min": [0],
      "type": "SCALAR"
    },
    {
      "bufferView": 2,
      "byteOffset": 3397944,
      "componentType": 5126,
      "count": 8,
      "max": [59.676601409912109, 6.5570001602172852, 162.08900451660156],
      "min": [58.161598205566406, 5.7299299240112305, 159.66999816894531],
      "type": "VEC3"
    },
    {
      "bufferView": 2,
      "byteOffset": 3398040,
      "componentType": 5126,
      "count": 8,
      "max": [-0.22042545676231384, 0.96114212274551392, -0.11662843823432922],
      "min": [-0.39426061511039734, 0.89592826366424561, -0.20462416112422943],
      "type": "VEC3"
    },
    {
      "bufferView": 3,
      "byteOffset": 2265296,
      "componentType": 5126,
      "count": 8,
      "max": [0, 0, 0, 1],
      "min": [0, 0, 0, 1],
      "type": "VEC4"
    },
    {
      "bufferView": 0,
      "byteOffset": 2644584,
      "componentType": 5125,
      "count": 18,
      "max": [7],
      "min": [0],
      "type": "SCALAR"
    },
    {
      "bufferView": 2,
      "byteOffset": 3398136,
      "componentType": 5126,
      "count": 6,
      "max": [125.76300048828125, 13.959500312805176, 53.629398345947266],
      "min": [125.19000244140625, 13.260299682617188, 53.032398223876953],
      "type": "VEC3"
    },
    {
      "bufferView": 2,
      "byteOffset": 3398208,
      "componentType": 5126,
      "count": 6,
      "max": [0.74771034717559814, 0.22484284639358521, 0.62479990720748901],
      "min": [-0.72349905967712402, -0.17897458374500275, -0.66672128438949585],
      "type": "VEC3"
    },
    {
      "bufferView": 3,
      "byteOffset": 2265424,
      "componentType": 5126,
      "count": 6,
      "max": [0, 0, 0, 1],
      "min": [0, 0, 0, 1],
      "type": "VEC4"
    },
    {
      "bufferView": 1,
      "byteOffset": 1130904,
      "componentType": 5126,
      "count": 6,
      "max": [0.5, 0.5],
      "min": [0.5, 0.5],
      "type": "VEC2"
    },
    {
      "bufferView": 0,
      "byteOffset": 2644656,
      "componentType": 5125,
      "count": 6,
      "max": [5],
      "min": [0],
      "type": "SCALAR"
    },
    {
      "bufferView": 2,
      "byteOffset": 3398280,
      "componentType": 5126,
      "count": 3,
      "max": [139.61500549316406, 10.75409984588623, 14.308799743652344],
      "min": [139.56399536132812, 10.344799995422363, 14.102100372314453],
      "type": "VEC3"
    },
    {
      "bufferView": 2,
      "byteOffset": 3398316,
      "componentType": 5126,
      "count": 3,
      "max": [0.98101800680160522, -0.1033414825797081, -0.16408579051494598],
      "min": [0.98101800680160522, -0.1033414825797081, -0.16408579051494598],
      "type": "VEC3"
    },
    {
      "bufferView": 3,
      "byteOffset": 2265520,
      "componentType": 5126,
      "count": 3,
      "max": [0, 0, 0, 1],
      "min": [0, 0, 0, 1],
      "type": "VEC4"
    },
    {
      "bufferView": 0,
      "byteOffset": 2644680,
      "componentType": 5125,
      "count": 3,
      "max": [2],
      "min": [0],
      "type": "SCALAR"
    }
  ],
  "asset": {
    "extras": {
      "author": "Auckland Museum (https://sketchfab.com/aucklandmuseum)",
      "license": "CC-BY-4.0 (http://creativecommons.org/licenses/by/4.0/)",
      "source": "https://sketchfab.com/models/b7294b6b1ad64cc6b624f1185be8523e",
      "title": "Hawksbill Sea Turtle"
    },
    "generator": "Sketchfab-3.18.2",
    "version": "2.0"
  },
  "bufferViews": [
    {
      "buffer": 0,
      "byteLength": 2644692,
      "byteOffset": 0,
      "name": "floatBufferViews",
      "target": 34963
    },
    {
      "buffer": 0,
      "byteLength": 1130952,
      "byteOffset": 2644692,
      "byteStride": 8,
      "name": "floatBufferViews",
      "target": 34962
    },
    {
      "buffer": 0,
      "byteLength": 3398352,
      "byteOffset": 3775644,
      "byteStride": 12,
      "name": "floatBufferViews",
      "target": 34962
    },
    {
      "buffer": 0,
      "byteLength": 2265568,
      "byteOffset": 7173996,
      "byteStride": 16,
      "name": "floatBufferViews",
      "target": 34962
    }
  ],
  "buffers": [
    {
      "byteLength": 9439564,
      "uri": "kornjaca.bin"
    }
  ],
  "images": [
    {
      "uri": "material_8_baseColor.jpg"
    },
    {
      "uri": "material_0_baseColor.jpg"
    }
  ],
  "materials": [
    {
      "doubleSided": true,
      "emissiveFactor": [0, 0, 0],
      "name": "material_0",
      "pbrMetallicRoughness": {
        "baseColorFactor": [1, 1, 1, 1],
        "baseColorTexture": {
          "index": 1,
          "texCoord": 0
        },
        "metallicFactor": 0,
        "roughnessFactor": 0.59999999999999998
      }
    },
    {
      "doubleSided": true,
      "emissiveFactor": [0, 0, 0],
      "name": "material_1",
      "pbrMetallicRoughness": {
        "baseColorFactor": [
          0.43137300000000001, 0.082352999999999996, 0.039216000000000001, 1
        ],
        "metallicFactor": 0,
        "roughnessFactor": 0.59999999999999998
      }
    },
    {
      "alphaMode": "BLEND",
      "doubleSided": true,
      "emissiveFactor": [0, 0, 0],
      "name": "material_10",
      "pbrMetallicRoughness": {
        "baseColorFactor": [1, 1, 1, 0.85097999999999996],
        "metallicFactor": 0,
        "roughnessFactor": 0.59999999999999998
      }
    },
    {
      "alphaMode": "BLEND",
      "doubleSided": true,
      "emissiveFactor": [0, 0, 0],
      "name": "material_2",
      "pbrMetallicRoughness": {
        "baseColorFactor": [
          0.62745099999999998, 0.596078, 0.466667, 0.86666699999999997
        ],
        "metallicFactor": 0,
        "roughnessFactor": 0.59999999999999998
      }
    },
    {
      "alphaMode": "BLEND",
      "doubleSided": true,
      "emissiveFactor": [0, 0, 0],
      "name": "material_3",
      "pbrMetallicRoughness": {
        "baseColorFactor": [
          0.75294099999999997, 0.81568600000000002, 0.72548999999999997,
          0.86274499999999998
        ],
        "metallicFactor": 0,
        "roughnessFactor": 0.59999999999999998
      }
    },
    {
      "alphaMode": "BLEND",
      "doubleSided": true,
      "emissiveFactor": [0, 0, 0],
      "name": "material_4",
      "pbrMetallicRoughness": {
        "baseColorFactor": [
          0.376471, 0.92549000000000003, 0.72548999999999997,
          0.86274499999999998
        ],
        "metallicFactor": 0,
        "roughnessFactor": 0.59999999999999998
      }
    },
    {
      "alphaMode": "BLEND",
      "doubleSided": true,
      "emissiveFactor": [0, 0, 0],
      "name": "material_5",
      "pbrMetallicRoughness": {
        "baseColorFactor": [
          0.62745099999999998, 0.47058800000000001, 0.73333300000000001,
          0.94509799999999999
        ],
        "metallicFactor": 0,
        "roughnessFactor": 0.59999999999999998
      }
    },
    {
      "alphaMode": "BLEND",
      "doubleSided": true,
      "emissiveFactor": [0, 0, 0],
      "name": "material_6",
      "pbrMetallicRoughness": {
        "baseColorFactor": [
          0, 0.70980399999999999, 0.72941199999999995, 0.86274499999999998
        ],
        "metallicFactor": 0,
        "roughnessFactor": 0.59999999999999998
      }
    },
    {
      "alphaMode": "BLEND",
      "doubleSided": true,
      "emissiveFactor": [0, 0, 0],
      "name": "material_7",
      "pbrMetallicRoughness": {
        "baseColorFactor": [
          0, 0.16470599999999999, 0.72941199999999995, 0.86274499999999998
        ],
        "metallicFactor": 0,
        "roughnessFactor": 0.59999999999999998
      }
    },
    {
      "doubleSided": true,
      "name": "material_8",
      "pbrMetallicRoughness": {
        "baseColorFactor": [1, 1, 1, 1],
        "baseColorTexture": {
          "index": 0,
          "texCoord": 0
        },
        "metallicFactor": 0,
        "roughnessFactor": 0.59999999999999998
      }
    },
    {
      "alphaMode": "BLEND",
      "doubleSided": true,
      "emissiveFactor": [0, 0, 0],
      "name": "material_9",
      "pbrMetallicRoughness": {
        "baseColorFactor": [
          0.25097999999999998, 0.96862700000000002, 0.98823499999999997,
          0.85882400000000003
        ],
        "metallicFactor": 0,
        "roughnessFactor": 0.59999999999999998
      }
    }
  ],
  "meshes": [
    {
      "primitives": [
        {
          "attributes": {
            "NORMAL": 1,
            "POSITION": 0,
            "TANGENT": 2,
            "TEXCOORD_0": 3
          },
          "indices": 4,
          "material": 0,
          "mode": 4
        }
      ]
    },
    {
      "primitives": [
        {
          "attributes": {
            "NORMAL": 6,
            "POSITION": 5,
            "TANGENT": 7,
            "TEXCOORD_0": 8
          },
          "indices": 9,
          "material": 0,
          "mode": 4
        }
      ]
    },
    {
      "primitives": [
        {
          "attributes": {
            "NORMAL": 11,
            "POSITION": 10,
            "TANGENT": 12,
            "TEXCOORD_0": 13
          },
          "indices": 14,
          "material": 0,
          "mode": 4
        }
      ]
    },
    {
      "primitives": [
        {
          "attributes": {
            "NORMAL": 16,
            "POSITION": 15,
            "TANGENT": 17
          },
          "indices": 18,
          "material": 1,
          "mode": 4
        }
      ]
    },
    {
      "primitives": [
        {
          "attributes": {
            "NORMAL": 20,
            "POSITION": 19,
            "TANGENT": 21
          },
          "indices": 22,
          "material": 2,
          "mode": 4
        }
      ]
    },
    {
      "primitives": [
        {
          "attributes": {
            "NORMAL": 24,
            "POSITION": 23,
            "TANGENT": 25
          },
          "indices": 26,
          "material": 3,
          "mode": 4
        }
      ]
    },
    {
      "primitives": [
        {
          "attributes": {
            "NORMAL": 28,
            "POSITION": 27,
            "TANGENT": 29
          },
          "indices": 30,
          "material": 4,
          "mode": 4
        }
      ]
    },
    {
      "primitives": [
        {
          "attributes": {
            "NORMAL": 32,
            "POSITION": 31,
            "TANGENT": 33
          },
          "indices": 34,
          "material": 5,
          "mode": 4
        }
      ]
    },
    {
      "primitives": [
        {
          "attributes": {
            "NORMAL": 36,
            "POSITION": 35,
            "TANGENT": 37
          },
          "indices": 38,
          "material": 6,
          "mode": 4
        }
      ]
    },
    {
      "primitives": [
        {
          "attributes": {
            "NORMAL": 40,
            "POSITION": 39,
            "TANGENT": 41
          },
          "indices": 42,
          "material": 7,
          "mode": 4
        }
      ]
    },
    {
      "primitives": [
        {
          "attributes": {
            "NORMAL": 44,
            "POSITION": 43,
            "TANGENT": 45
          },
          "indices": 46,
          "material": 8,
          "mode": 4
        }
      ]
    },
    {
      "primitives": [
        {
          "attributes": {
            "NORMAL": 48,
            "POSITION": 47,
            "TANGENT": 49,
            "TEXCOORD_0": 50
          },
          "indices": 51,
          "material": 9,
          "mode": 4
        }
      ]
    },
    {
      "primitives": [
        {
          "attributes": {
            "NORMAL": 53,
            "POSITION": 52,
            "TANGENT": 54
          },
          "indices": 55,
          "material": 10,
          "mode": 4
        }
      ]
    }
  ],
  "nodes": [
    {
      "children": [1],
      "name": "RootNode (gltf orientation matrix)",
      "rotation": [-0.70710678118654746, -0, -0, 0.70710678118654757]
    },
    {
      "children": [2],
      "matrix": [
        1, 0, 0, 0, 0, -0.056822098791599274, -0.99838429689407349, 0, 0,
        0.99838429689407349, -0.056822098791599274, 0, 0, 7.8719844818115234,
        -36.636314392089844, 1
      ],
      "name": "RootNode (model correction matrix)"
    },
    {
      "children": [3, 4, 5, 6, 7, 8, 9, 10, 11, 12, 13, 14, 15],
      "name": "Turtle_fixed.obj.cleaner.gles"
    },
    {
      "mesh": 0,
      "name": ""
    },
    {
      "mesh": 1,
      "name": ""
    },
    {
      "mesh": 2,
      "name": ""
    },
    {
      "mesh": 3,
      "name": ""
    },
    {
      "mesh": 4,
      "name": ""
    },
    {
      "mesh": 5,
      "name": ""
    },
    {
      "mesh": 6,
      "name": ""
    },
    {
      "mesh": 7,
      "name": ""
    },
    {
      "mesh": 8,
      "name": ""
    },
    {
      "mesh": 9,
      "name": ""
    },
    {
      "mesh": 10,
      "name": ""
    },
    {
      "mesh": 11,
      "name": ""
    },
    {
      "mesh": 12,
      "name": ""
    }
  ],
  "samplers": [
    {
      "magFilter": 9729,
      "minFilter": 9987,
      "wrapS": 10497,
      "wrapT": 10497
    }
  ],
  "scene": 0,
  "scenes": [
    {
      "name": "OSG_Scene",
      "nodes": [0]
    }
  ],
  "textures": [
    {
      "sampler": 0,
      "source": 0
    },
    {
      "sampler": 0,
      "source": 1
    }
  ]
}
